<svg width="24" height="24" viewBox="0 0 24 24" fill="none" xmlns="http://www.w3.org/2000/svg">
<rect width="24" height="24" fill="#0C0C0E"/>
<path d="M18.1191 10.1821C17.1983 9.45388 15.9695 8.43256 16.0575 7.10193C16.1281 6.03537 18.1058 5.84334 18.3446 6.92048C18.4872 7.56441 17.7202 8.05761 17.367 8.49206C16.9583 8.9951 17.7477 9.65082 18.1864 9.87505C18.15 9.72384 18.0374 9.48462 18.1321 9.33661C18.2194 9.1999 18.5022 9.10107 18.6315 9.00346C18.9807 8.74014 19.2692 8.40207 19.4404 7.99738C19.4411 7.99565 19.4418 7.99393 19.4426 7.99197C19.4037 7.95533 19.3688 7.91427 19.3393 7.86977C19.177 7.62415 19.0366 7.36525 18.8826 7.11447C18.8448 7.05276 18.8059 6.99129 18.7658 6.93105C18.7427 6.89639 18.6881 6.84033 18.6554 6.79165C18.3259 6.50054 18.0276 6.17551 17.6934 5.88932C17.5321 5.75115 17.3875 5.596 17.2342 5.44898C17.1961 5.41234 17.1578 5.3762 17.1182 5.34129C17.1042 5.32875 17.0897 5.3167 17.0754 5.30441C16.9989 5.25843 16.9301 5.20532 16.8472 5.16795C16.8312 5.16082 16.8162 5.15271 16.8017 5.1441C16.5784 5.19426 16.3647 5.27761 16.1716 5.3971C15.2308 5.97931 15.3815 7.13119 15.6331 8.04335C15.084 7.57989 15.1565 7.20987 14.357 6.71445C13.5576 6.21903 12.4332 6.16592 12.0572 6.16592H11.9431C11.5671 6.16592 10.443 6.21878 9.64333 6.71445C8.84361 7.21011 8.9164 7.58014 8.36727 8.04335C8.61909 7.13119 8.76959 5.97931 7.82871 5.3971C7.57444 5.23974 7.28475 5.14459 6.98449 5.10624C6.7821 5.31621 6.56225 5.50823 6.34781 5.70591C6.0923 5.9412 5.86434 6.19075 5.65089 6.46465C5.64523 6.47202 5.64031 6.47817 5.63613 6.48333C5.63343 6.48702 5.63023 6.49145 5.62605 6.49661C5.59924 6.53201 5.57219 6.56742 5.54563 6.60282C5.49227 6.67388 5.4394 6.74518 5.38726 6.81697C5.28127 6.96277 5.17774 7.11029 5.07667 7.25953C4.90478 7.51376 4.74592 7.77634 4.575 8.0313C4.74788 8.421 5.02946 8.74751 5.36882 9.00346C5.49817 9.10107 5.78097 9.1999 5.86827 9.33661C5.96295 9.48462 5.85032 9.72384 5.81393 9.87505C6.25264 9.65082 7.04203 8.9951 6.63332 8.49206C6.28043 8.05761 5.51317 7.56416 5.6558 6.92048C5.89459 5.84334 7.872 6.03537 7.94282 7.10193C8.03086 8.43256 6.80202 9.45388 5.88131 10.1821C4.96232 10.9089 4.24326 11.6364 4.64558 13.6039C4.65517 12.9287 4.97314 12.5631 4.97314 12.5631C4.78674 13.3064 4.78157 14.0621 5.03831 14.8361C5.31472 15.6696 5.83434 16.393 6.54553 16.9103C7.38139 17.5183 8.40391 17.7359 9.26388 18.3092C9.69497 18.5966 10.0503 19.4402 12.0002 19.497C13.9503 19.4402 14.3054 18.5964 14.7365 18.3092C15.5965 17.7359 16.619 17.5183 17.4548 16.9103C18.166 16.393 18.6856 15.6696 18.9621 14.8361C19.2188 14.0621 19.2136 13.3064 19.0272 12.5631C19.0272 12.5631 19.3452 12.9287 19.3548 13.6039C19.7571 11.6362 19.038 10.9089 18.1191 10.1821ZM14.2508 18.19C13.9289 18.5667 12.9654 19.1774 12.0002 19.1774C11.035 19.1774 10.0712 18.5664 9.74956 18.19C9.23781 17.5911 8.62769 16.6236 8.88591 15.7933C9.13502 16.4217 9.24396 17.1583 9.92957 17.4684C10.4957 17.7243 11.561 17.684 12.0002 17.1561C12.4394 17.684 13.5047 17.7243 14.0708 17.4684C14.7564 17.1583 14.8653 16.422 15.1145 15.7933C15.3727 16.6236 14.7626 17.5913 14.2508 18.19ZM11.9999 15.0306C12.5267 15.0097 14.2242 14.9082 13.7258 15.6322C13.5266 15.9214 12.2736 16.5488 11.9999 16.5965C11.7262 16.5488 10.4733 15.9214 10.2741 15.6322C9.77563 14.9082 11.4732 15.0097 11.9999 15.0306ZM17.9597 11.4506C17.4553 11.8717 17.4794 12.4948 17.3324 13.0974C17.1981 13.6481 17.0299 14.2979 16.4289 14.4769C15.8446 14.6507 15.2013 14.6215 14.6012 14.5696C14.0873 14.5251 13.6154 14.4486 13.2748 14.0243C12.9044 13.5625 12.8021 12.9371 12.674 12.375C12.6206 12.1412 12.6113 11.8255 12.4096 11.6613C12.3019 11.5735 12.1507 11.5413 11.9997 11.5391C11.8487 11.5413 11.6975 11.5735 11.5897 11.6613C11.3881 11.8255 11.3785 12.1412 11.3254 12.375C11.1973 12.9371 11.095 13.5625 10.7246 14.0243C10.384 14.4486 9.91211 14.5251 9.39815 14.5696C8.79811 14.6217 8.1548 14.651 7.5705 14.4769C6.96948 14.2982 6.80152 13.6481 6.66701 13.0974C6.51995 12.4948 6.5443 11.872 6.03968 11.4506C5.85401 11.2957 5.61621 11.1004 5.74384 10.8231C5.85918 10.5721 6.29592 10.5903 6.53225 10.5632C7.16253 10.4907 9.60152 10.5694 10.1829 10.619C10.7883 10.6707 11.3915 10.7892 11.9994 10.8064C12.6073 10.7889 13.2106 10.6707 13.816 10.619C14.3974 10.5694 16.8364 10.4907 17.4666 10.5632C17.7032 10.5905 18.1397 10.5723 18.255 10.8231C18.3827 11.1004 18.1446 11.2957 17.9592 11.4506H17.9597Z" fill="#FCFCFD"/>
<path d="M9.7835 17.7381C10.008 18.3114 11.1796 18.8401 11.9999 18.8401C12.8203 18.8401 13.9919 18.3114 14.2164 17.7381C13.2794 18.1297 10.7207 18.1297 9.7835 17.7381Z" fill="#FCFCFD"/>
<path d="M11.995 23.0114C5.85057 22.9947 0.950699 17.9965 1.00037 11.9128C1.04882 5.95103 5.90098 0.97717 12.0693 1.01159C18.1498 1.04552 23.0079 5.99086 23 12.0119C22.9921 18.0953 18.0728 23.0112 11.995 23.0112V23.0114ZM11.9945 20.3398C16.6015 20.3398 20.3092 16.6226 20.3321 12.0564C20.3554 7.40263 16.5946 3.72374 12.087 3.67997C7.47583 3.63498 3.66635 7.35812 3.66905 12.0126C3.67151 16.6132 7.40107 20.3396 11.9945 20.3398ZM14.121 20.5555C12.7131 20.8955 11.3084 20.8903 9.89834 20.5594C9.72177 21.2159 9.54767 21.8625 9.37134 22.518C11.136 22.9426 12.8902 22.9546 14.6514 22.5135C14.4736 21.8568 14.299 21.2127 14.121 20.5557V20.5555ZM9.90031 3.49582C11.3087 3.15997 12.7133 3.15751 14.1229 3.49754C14.2992 2.84132 14.4734 2.19396 14.6507 1.53455C12.9138 1.11953 11.107 1.10846 9.37184 1.53922C9.54939 2.19642 9.72349 2.84108 9.90031 3.49582ZM5.61547 5.88367C5.15709 5.43521 4.69206 4.98036 4.22285 4.52132C2.98565 5.81704 2.10183 7.32493 1.60533 9.06689C2.24446 9.23752 2.87253 9.4052 3.48216 9.56821C3.79422 8.92134 4.06448 8.26635 4.41639 7.65882C4.77051 7.0476 5.20578 6.48333 5.61572 5.88367H5.61547ZM19.7947 19.5319C21.0459 18.2374 21.9155 16.7249 22.4177 14.9876C21.7635 14.8125 21.12 14.6404 20.4739 14.4676C20.2192 15.1358 19.9976 15.8066 19.6309 16.4141C19.2653 17.0202 18.8128 17.562 18.3787 18.1029C18.8539 18.5824 19.3228 19.0557 19.7947 19.5319ZM19.8085 4.54468C19.3258 5.02928 18.8556 5.5011 18.3814 5.9771C19.3582 7.01072 20.0522 8.2162 20.458 9.59181C21.1126 9.41577 21.7589 9.24219 22.4172 9.06517C21.913 7.33575 21.0622 5.8254 19.8087 4.54468H19.8085ZM4.21744 19.5228C4.69255 19.0353 5.16004 18.5553 5.63416 18.069C4.66206 17.046 3.97177 15.8356 3.56232 14.4624C2.90499 14.6389 2.2602 14.8123 1.60434 14.9883C2.10478 16.7136 2.96303 18.2217 4.21744 19.5228Z" fill="#FCFCFD"/>
</svg>
