<?xml version="1.0" encoding="UTF-8"?><svg id="Layer_1" xmlns="http://www.w3.org/2000/svg" width="500" height="500" xmlns:xlink="http://www.w3.org/1999/xlink" viewBox="0 0 500 500"><defs><style>.cls-1{fill:#fff;}.cls-2{mask:url(#mask);}.cls-3{fill:#171b33;}.cls-4{fill:#f8f3ee;}.cls-5{fill:url(#linear-gradient);}</style><linearGradient id="linear-gradient" x1="637.35" y1="-236.07" x2="-56.48" y2="-350.62" gradientTransform="translate(0 -50.52) scale(1 -1)" gradientUnits="userSpaceOnUse"><stop offset=".2" stop-color="#fea827"/><stop offset=".52" stop-color="#ff4905"/><stop offset=".92" stop-color="#b50357"/></linearGradient><mask id="mask" x="2.5" y="2.71" width="495" height="494.58" maskUnits="userSpaceOnUse"><g id="mask0_195_355"><path class="cls-1" d="M250,496.29c136.69,0,247.5-110.49,247.5-246.79S386.69,2.71,250,2.71,2.5,113.2,2.5,249.5s110.81,246.79,247.5,246.79Z"/></g></mask></defs><path class="cls-5" d="M250,496.29c136.69,0,247.5-110.49,247.5-246.79S386.69,2.71,250,2.71,2.5,113.2,2.5,249.5s110.81,246.79,247.5,246.79Z"/><g class="cls-2"><path class="cls-3" d="M35.58,373.94c52.64,88.26,134.86,126.64,239.03,121.96,6.3-27.92,6.32-56.33,2.24-85.41,13.18,10.85,28.33,17.1,46.74,15.64,16.54,30.76,31.46,37.62,44.55,18.1,5.8-8.63,8.58-18.93,8.51-29.32-.15-25.37-9.62-47.64-29.05-66.67-2.76-5.51-.96-10.52,5.77-15.01,21.71-7.41,41.36-16.33,43.42-37.94.43-4.42.89-8.84,1.39-13.24,2.15-18.67-4.89-31.43-26.12-35.07-3.98-.68-7.95-1.61-11.68-3.2-16.59-7.04-28.25-20.87-33.26-43.85-7.27-22.44-21.43-41.28-47.8-53.73-3.15-33.57-8.44-65.11-20.42-90.28-2.56-7.73-6.52-8.45-14.65-1.2-16.98,19.08-29.59,51.06-41.07,82.86-13,.11-25.46,2.42-37.23,7.43-6.14-25.37-18.61-47.72-39.47-66.09-6.25-5.9-11.53-4.25-15.85,4.95-14.98,36.35-19.28,74.65-9.44,115.59-8.53,23.66-10.99,47.55-4.32,71.84l.87,25.31c-3.73,38.07-20.97,66.39-62.2,77.35l.04-.04Z"/><path class="cls-4" d="M332.37,258.97c.98.13,1.47,1.2.95,2.03-10.21,16.55-4.65,31.41,15.07,38.38,6.3,2.24,12.5,1.18,21.56,1.24,1.08,0,1.97.85,2.04,1.92.95,12.02-9.51,19.91-30.65,25.88-12.81,2-43.64,4.14-66.28-1.59-13.07-3.31-22.95-10.41-27.85-14.49-1.2-1.02-3.04,0-2.8,1.55,3.08,19.91,13.85,38.57,29.85,56.35l37.82,41.99c.69.76.11,1.98-.91,1.94-10.92-.24-22.9-5.01-34.39-13.22-7.62-1.53-10.77,1.61-11.16,10.06,1.82,34.05,2.91,66.42-1.28,86.28-46.31-.65-86.03-6.56-115.92-20.32-9.25-24.02-18.86-48.33-13.57-61.07,4.3-7.41,10.86-10.54,22.58-6.47,13.78,4.77,28.05,8.41,42.81,10.96,2.82.48,5.69.72,8.57.67,11.7-.26,18.3-4.51,17-14.99-.83-6.73-4.54-12.79-9.88-16.99-34.49-27.05-62.56-54.28-77.78-81.9-1.19-2.16-2.21-4.44-3-6.77-4.15-12.22-4.26-21.5,10.07-20.41.96.07,1.95.13,2.93.07,27.48-1.74,41.14-20.47,44-56.44.33-4.2.82-8.21,1.72-12.48.57-2.72,1.63-5.32,3.02-7.73,6.67-11.54,14.74-21.39,29.26-23.44,8.66-1.22,17.39.83,24.44,6.01,4.93,3.62,9.01,8.36,12.48,13.92.67,1.09.15,2.5-1.06,2.9-13.44,4.38-24.62,11.2-33.28,20.67-6.51,7.12-9.7,16.66-8.23,26.18,2.11,13.72,10.81,19.58,23.97,20.1,8.45.33,16.44-4.03,20.84-11.24,5.73-9.37,12.59-16.97,22.1-20.45.98-.35,2.08-.09,2.86.61,12.87,11.59,26.98,18.18,42.12,20.23l-.02.06Z"/><path class="cls-4" d="M387.52,271.21c1.24,9.84-9.31,19.19-22.3,20.82-13,1.63-24.53-5.01-25.77-14.85-1.24-9.84,8.27-19.13,21.26-20.76,6.77-.85,14.04-.22,18.76,2.7,4.36,2.68,7.45,7.38,8.05,12.09Z"/><path class="cls-3" d="M352.79,266.36c-.08-1.04-.63-2.16-1.58-2.61-.48-.22-1.19-.35-1.74-.28-1.63.24-2.73,1.89-2.91,3.51-1.19,10.48,4.1,16.12,16.61,15.29,1.91-.13,3.45-1.92,3.21-3.83,0-.05,0-.11-.02-.16-.3-1.83-2.13-2.98-3.97-2.7-5.77.87-9.05-1.87-9.59-9.24l-.02.02Z"/><path class="cls-4" d="M309.83,359.58c-5.73-3.81-10.87-5.93-15.24-5.97-8.25-.07-13.07,8.34-8.9,15.44,2.09,3.55,6.75,8.34,10.57,12.57,6.86,7.6,15.3,15.59,22.69,24.79,12.24,15.22,21.05,30.67,25.81,34.85,4.86,4.79,9.03,5.25,13.89,1.39,2.65-2.11,4.51-5.06,5.6-8.28,5.73-16.88,5.84-33.85-1.43-50.99-4.88-11.32-13.22-20.61-24.42-28.23-1.63-1.11-3.47-1.94-5.39-2.4-5.27-1.26-10.14-1.03-14.22,2.38-1.09.91-1.8,2.18-2.32,3.49-1.24,3.16-3.32,3.92-6.65.96h.02Z"/><path class="cls-3" d="M322.36,378.43c15.57,10.11,24.81,26.44,28.79,45.76.13.65,1.06.66,1.21,0,3.97-18.64-2.26-34.06-15.65-46.02-8.47-6.97-13.42-8.43-15.57-5.57-1.39,1.85-.72,4.55,1.21,5.8l.02.02Z"/></g></svg>