<svg xmlns="http://www.w3.org/2000/svg" width="144" height="80" fill="none" viewBox="0 0 144 80"><mask id="mask0_4185_149" width="144" height="80" x="0" y="0" maskUnits="userSpaceOnUse" style="mask-type:luminance"><path fill="#fff" d="M144 0H0v80h144V0Z"/></mask><g mask="url(#mask0_4185_149)"><path fill="url(#paint0_radial_4185_149)" d="M72 78.222c39.765 0 72-17.51 72-39.11C144 17.51 111.765 0 72 0 32.236 0 0 17.51 0 39.111c0 21.6 32.236 39.111 72 39.111Z"/><g filter="url(#filter0_d_4185_149)"><path fill="#260165" d="M62.852 31.714c.23 3.88 2.548 5.646 4.324 3.234.778-1.056.303-5.074.126-6.687l5.713-.435c-.033 1.617-.062 3.66.027 5.262.093 1.69.55 3.022 2.614 2.736 2.856-.396 1.964-5.755 1.955-8 0-2.619-.16-5.177-.23-7.778-.07-2.713 0-5.333-.229-8-.284-3.27-.313-4.538-2.517-7.091a5.805 5.805 0 0 0-7.317-1.942c-5.554 2.192-4.742 10.255-4.8 15.211-.032 2.311-.032 4.66 0 6.981M28.283 72.316a61.5 61.5 0 0 1-4.828-11.992 46.721 46.721 0 0 1-1.337-8.15c-1.565.74-3.095 1.886-5.05 1.362a4.622 4.622 0 0 1-3.4-4.156 5.866 5.866 0 0 1 .356-2.372 4.555 4.555 0 0 1 1.313-1.876h.011a13.018 13.018 0 0 1-8.889-5.85C4.655 36.345 1.081 30.069.77 26.786c-.889-9.277 8.946-13.746 15.29-6.601a44.456 44.456 0 0 1 6.648 13.255 2.782 2.782 0 0 1-.912 2.844l3.657.916c-2.73-6.66-5.061-13.48-7.408-20.293a4.345 4.345 0 0 1 2.169-5.334 4.513 4.513 0 0 1 3.635-.105 6.13 6.13 0 0 1 2.923 3.712c2.108 5.035 3.556 10.719 5.666 15.839a21.476 21.476 0 0 0 2.844 5.497 8.962 8.962 0 0 0-.101-2.07 131.35 131.35 0 0 0-4.926-14.064c-.791-2.21-2.804-5.858-2.925-8.06a4.478 4.478 0 0 1 7.693-3.108 42.212 42.212 0 0 1 3.187 7.337l2.023 5.511a55.783 55.783 0 0 1-.588-8.533c.515-6.295 4.882-11.31 11.555-10.64 6.49.652 8.31 8.414 9.13 13.826a.138.138 0 0 0 .246.07.14.14 0 0 0 .029-.102c-.02-.247-.093-.617-.137-1.097-.436-4.683-.04-10.589 4.275-13.572 7.208-4.978 14.713 2.153 14.713 9.68l.112 8.523a.14.14 0 0 0 .28.023c-.032.188.177-.992 0 0 .647-3.9.858-9.01 1.47-13.092.745-4.977 3.022-5.955 7.797-4.426a13.433 13.433 0 0 1 8.587 11.543.14.14 0 0 0 .177.126c.12-.043.093-.146.114-.39.2-2.325 1.001-7.009 2.845-8.369a4.372 4.372 0 0 1 6.901 2.459 4.29 4.29 0 0 1-.05 1.929l-3.911 16.832 6.692-17.318a4.447 4.447 0 0 1 3.219-2.194 4.455 4.455 0 0 1 3.714 1.176c2.521 2.424.921 6.264.722 10.383l1.801-4.977a4.412 4.412 0 0 1 5.742-2.64l.126.051c5.803 2.49-1.081 12.102-1.955 16.03 2.976-3.377 6.012-7.669 10.889-8.211 2.892-.322 6.243.567 7.525 3.41 2.83 6.28 1.234 12.042-2.173 17.616-.154.31-.33.611-.524.9-3.733 5.562-9.303 12.357-16.51 10.325a4.258 4.258 0 0 1-1.726-.967c.366.858.63 1.756.784 2.677.97 5.941-1.618 11.347-4.445 16.58-2.7 6.088-11.262 11.669-15.787 4.346a12.695 12.695 0 0 1-2.062-6.862l-.66 3.458a8.277 8.277 0 0 1-.533 1.75c-.139.331-.307.648-.503.948a4.04 4.04 0 0 1-5.966.33 11.617 11.617 0 0 1-1.835-5.3l-.322-3.591-.218 1.665a17.001 17.001 0 0 1-.855 3.574v.021l-.164.455a3.473 3.473 0 0 1-5.298 1.655 3.086 3.086 0 0 1-.796-.848c-1.255-1.763-.942-1.715-2.059-.23-2.199 2.5-4.63 1.464-6.709-.532a14.826 14.826 0 0 1-13.932 1.041c-1.446 1.458-3.26 2.742-5.32 1.734a3.803 3.803 0 0 1-2.035-2.562l-.836-3.412h-.928a10.883 10.883 0 0 1-.064 6.015c-.12.25-.273.484-.453.696l-.084.096a3.762 3.762 0 0 1-6.257-1.175l-.69-1.726a6.4 6.4 0 0 1-1.259 3.378 7.704 7.704 0 0 1-1.609 1.918c-3.63 3.106-7.822 2.059-10.704-1.792-.5-.675-.933-1.397-1.294-2.156l-.137-.287-.007.016Zm52.528-43.994c-.11 1.187-.92 6.044-.444 7.063 1.326 2.844 3.646.674 4.35-2.516a30.982 30.982 0 0 0 4.345 5.947c.154.178.304.3.457.457a21.675 21.675 0 0 0 15.674 6.65c2.246-.032 5.698-1.244 3.543-3.91a1.746 1.746 0 0 0-1.489-.889c-.207 0-1.177.108-1.245.108l-2.866.089c-3.79 0-8.66-2.939-11.096-5.72a24.197 24.197 0 0 1-2.745-3.889 25.547 25.547 0 0 1-1.357-2.608 14.745 14.745 0 0 0 7.444-12.174 11.04 11.04 0 0 0-.368-5.58 7.66 7.66 0 0 0-2.288-3.661 9.63 9.63 0 0 0-3.894-2.857c-6.492-2.4-5.315 2.743-5.944 7.433l-2.073 16.044-.004.013Zm-33.847 7.52c4.137 4.01 13.196 1.6 13.27-4.8a5.37 5.37 0 0 0-2.289-5.033 7.655 7.655 0 0 0-5.655-.05c-1.47.57-1.714 1.62-1.209 3.022.736 2.05 2.49 1.22 4.142 1.143a.417.417 0 0 1 .434.418v.55c.005.342-.122.674-.355.926a4.544 4.544 0 0 1-2.948 1.093 5.077 5.077 0 0 1-1.331-.17 1.865 1.865 0 0 1-1.165-.77 21.796 21.796 0 0 1-2.6-8.416c-.563-3.179-1.873-10.38.161-12.978a2.892 2.892 0 0 1 3.986-.784c1.31 1.22 2.156 6.46 2.416 8.338.203 1.465-.114 4.337.908 5.267a2.333 2.333 0 0 0 3.885-1.397 33.977 33.977 0 0 0-2.688-13.755c-3.575-6.45-12.383-3.54-13.85 3.166-1.146 5.243.907 20.361 4.884 24.217l.004.013Zm49.186-5.958c-.287 1.423-1.36 4.486-.559 5.709.205.303.492.541.827.686a2.261 2.261 0 0 0 3.095-1.516c1.126-4.343 2.215-8.534 3.275-12.9.558-2.295 1.028-4.779 1.6-7.079a33.606 33.606 0 0 0 1.145-4.756c.1-.674.1-1.36 0-2.035a2.107 2.107 0 0 0-3.789-.316 11.58 11.58 0 0 0-1.287 4.232L96.15 29.884Zm19.911-1.6.51-11.943c.069-1.127.683-5.207-.619-6.368a2.35 2.35 0 0 0-3.825.996 171.679 171.679 0 0 0-6.535 16.343c-.612 1.621-3.17 7.845-3.023 9.067.267 2.288 3.238 2.8 4.388.297 1.422-3.083 3.292-9.152 4.755-12.285.096 2.845-.117 5.735 0 8.589a53.91 53.91 0 0 0 .566 7.212 2.249 2.249 0 0 0 3.5 1.39 2.25 2.25 0 0 0 .857-1.182c1.2-2.556 2.082-6.01 3.15-8.747 1.778-4.53 4.978-10.698 6.13-15.146.606-2.335-.576-3.796-2.252-3.426a2.627 2.627 0 0 0-1.855 1.6l-5.752 13.603h.005Zm-88.327 8.464a17.57 17.57 0 0 0 2.282 4.239c3.36 4.042 9.677 3.468 11.446-1.721a10.94 10.94 0 0 0-.17-7.725 162.033 162.033 0 0 0-7.27-19.953c-.838-1.812-2.989-2.402-4.13-.712-1.212 1.803 1.433 6.223 2.133 8.19 1.392 3.885 4.646 11.5 5.213 15.15.22 1.412.437 4.184-1.26 4.72-2.091.657-3.146-2.024-3.867-3.482-2.825-5.689-4.528-12.026-6.726-17.984a15.564 15.564 0 0 0-1.442-3.362 2.31 2.31 0 0 0-4.067 2c2.667 6.873 4.69 13.968 7.856 20.637l.002.003Zm21.212-16.053.864 4.38a3.358 3.358 0 0 1 2.404-1.14c-.669-3.355-.46-6.698-1.374-10.067-.269-.988-.776-2.844-1.641-1.998-.252.25-.4.585-.413.939l-.165 3.515c-.069 1.464.04 2.931.323 4.37l.002.001Zm-44.999 9.19c2.014 5.079 5.845 12.812 12.24 12.812l3.35.206c.321 0 2.958.368 3.399.48a5.224 5.224 0 0 1-1.679 1.41c-2.156 1.244-6.387 1.411-5.186 4.766.5 1.397 1.552 1.518 2.872 1.154 2.606-.72 7.064-2.882 8.112-5.5 1.706-4.267-1.851-6.553-5.664-7.035-2.815-.356-5.565.6-8.07-1.312a36.784 36.784 0 0 1-5.886-10.36c-.256-1.496.146-3.65 2.068-3.217 1.921.434 4.77 6.311 5.623 8.108.91 1.919 1.209 5.351 4.322 4.027 2.058-.875.673-3.831.097-5.244-1.324-3.25-4.505-9.257-7.698-10.834a6.085 6.085 0 0 0-8.693 3.91 8.613 8.613 0 0 0 .793 6.628Zm117.597 5.718c-1.634 3.734-2.72 6.875-.687 10.754 2.034 3.88 5.714 3.378 9.156 1.49 2.667-1.463 9.835-10.443 10.562-15.954a20.763 20.763 0 0 0-.089-6.725 4.008 4.008 0 0 0-.486-.873c-.085-.356.137-.587.027-.939a2.592 2.592 0 0 0-.86-1.255c-2.07-1.637-5.396-.913-7.536.356a31.537 31.537 0 0 0-9.17 11.307m-62.005-8.456v-3.294c-.93 2.494-1.679 2.914 0 3.294Zm34.666-.686a11.64 11.64 0 0 1-1.68 2.49c-.421.504-2.606 2.376-2.677 2.547a12.799 12.799 0 0 0 2.444 3.676l.196.205 1.717-8.921v.003Zm-84.302 4.73a29.173 29.173 0 0 0 3.289 5.332c.247-.318-.261-1.196-.4-1.527-.5-1.196-1.364-2.567-1.982-3.722a18.84 18.84 0 0 0-1.68-2.886.16.16 0 0 0-.287.114 9.024 9.024 0 0 0 1.06 2.688Zm63.806 12.7c.018-.42.072-.835.162-1.245a4.383 4.383 0 0 1 .772-1.765c.132-.187.286-.357.46-.505a4.316 4.316 0 0 1 2.558-1.093c.138-.01.275-.01.413 0l-.253-1.572a1.506 1.506 0 0 1-.611 1.09 4.71 4.71 0 0 1-2.576.933 3.378 3.378 0 0 1-2.968-.907c-1.153-1.066-1.463-6.106-1.56-7.157l-1.423.085c-.07 2.048 0 5.837-1.58 7.416 4.894 1.98 5.831 7.272 5.943 12.01.098 2.298-.056 4.6-.457 6.864a8.408 8.408 0 0 1-1.79 3.32l2.018 1.713.9-19.18-.008-.008Zm35.478-1.869-.34-4.8-1.717 3.886a3.82 3.82 0 0 1 2.057.918v-.004Zm-47.59-2.631-.146-.12a4.574 4.574 0 0 1-1.335-1.825c-3.868 5.156-12.76 6.045-16.71.457l-.104.597a24.955 24.955 0 0 1-1.38 4.891 10.227 10.227 0 0 1 5.261-1.143c.282.034.56.093.83.178a9.93 9.93 0 0 1 4.635 2.942 10.55 10.55 0 0 1 2.258 3.923l1.21 4.395.064-5.111a10.707 10.707 0 0 1 5.415-9.188l.002.004Zm38.208-.114c-.297-.218-1.212.82-1.14.912l1.83.457-.69-1.369Zm-13.826 2.293a19.911 19.911 0 0 0-1.623-2.734 5.422 5.422 0 0 1-3.225 1.442h-.081c2.465 2.066 1.104 8.672.901 12.032-.165 2.754-.814 9.6-.901 12.354l4.93-23.094ZM73.147 64.784l-.068-.226a3.575 3.575 0 0 0-.083-.243 7.941 7.941 0 0 0-4.071-4.226 28.953 28.953 0 0 1-3.892-2.293 5.443 5.443 0 0 1-1.6-4.12c-.023-.864.052-3.03 0-3.77 0-1.956-.68-5.204 1.245-6.308a1.88 1.88 0 0 1 .821-.252 1.84 1.84 0 0 1 1.908 1.653l.096.853c.264 2.353.297 4.726.096 7.085l-.21 2.448a2.091 2.091 0 0 0 3.822 1.381c.926-1.399.791-6.944.686-8.809a16.177 16.177 0 0 0-.915-4.8 5.51 5.51 0 0 0-2.059-2.974 4.964 4.964 0 0 0-5.06-.803l-.431.117a6.67 6.67 0 0 0-4.12 6.178v4.71a29.316 29.316 0 0 0 .399 6.13 9.14 9.14 0 0 0 1.433 3.115c2.394 3.166 4.222 2.95 6.743 4.907.14.108 1.207 1.11 1.034 1.27l-3.63.118h-.77c-1.564-.065-3.765-.145-3.85 1.837-.109 2.547 2.873 2.558 4.592 2.666a12.105 12.105 0 0 0 3.946-.325 4.444 4.444 0 0 0 4.063-4.06 3.25 3.25 0 0 0-.125-1.245v-.014Zm3.328-15.449c-.14 2.09-.355 4.244-.457 6.4-.131 2.667-.414 5.502-.457 8.237a35.693 35.693 0 0 0 0 4.003c.324 2.882 3.997 2.944 4.347-.227.318-2.873.073-6.65.227-9.725.127-2.52.313-5.035.457-7.55.143-2.489.479-5.069.457-7.55-.009-1.136.267-2.45-.796-3.2-1.68-1.199-3.344.13-3.556 1.955-.27 2.384-.066 5.246-.229 7.664l.007-.007Zm15.801-4.933c-.596-.573-3.179-1.986-3.792-3.072l-5.156 26.418c-.065 2.076 1.472 3.098 2.884 2.437a2.293 2.293 0 0 0 1.255-1.627c.823-4.034 1.182-7.735 2.04-11.758.065-.457.224-.895.467-1.287.423 2.763.864 5.545 1.445 8.279a36.662 36.662 0 0 0 1.984 7.397 2.16 2.16 0 0 0 3.712-.519c.049-.132.084-.27.107-.409l3.934-22.737-4.089-.94-2.174 11.44-2.626-13.626.009.004ZM53.368 64.668c.248.953.215 2.411.456 3.433.342 1.44.758 3.085 2.617 2.968 3.262-.207 1.389-4.978 1.044-6.857l-3.262-15.053a9.684 9.684 0 0 0-2.047-4.206c-2.4-2.845-6.161-3.961-9.244-.756a2.738 2.738 0 0 0-.48.683 3.543 3.543 0 0 1-.117.212c-2.278 3.79-.324 10.931.52 15.224.303 1.533.817 3.11 1.145 4.576.258 1.156.402 2.466.687 3.66.405 1.7.368 4.545 2.63 4.547 3.688 0 1.588-5.568 1.03-7.517l5.035-.917-.014.003Zm57.655-19.22c.689-.157 1.353-.355 2.057-.456a5.508 5.508 0 0 1 2.744 0c.779.171 1.543.4 2.287.686.062-.067-.237-1.543-.228-1.83.069-2.34-.498-.792-1.6-.117a3.995 3.995 0 0 1-4.691-.796 4.197 4.197 0 0 1-.322 1.936l-.244.576-.003.002Zm-70.934-.913a9.616 9.616 0 0 1-10.52-.915l-.232 1.14c1.846.171 3.6.889 5.035 2.061 1.993 1.844 4.032 6.123 2.695 8.758-.076.142-.17.276-.277.396a3.782 3.782 0 0 1-3.513 1.225c-.581-.101-1.177-.26-1.794-.388l3.097 9.636-.702-3.2a3.831 3.831 0 0 1 .355-2.667 3.723 3.723 0 0 1 2.087-1.75l.112-.036a4.255 4.255 0 0 1 4.338 1.289c-.355-2.63-1.099-5.416-1.436-8.178a16.88 16.88 0 0 1 .75-7.378l.005.007Zm.23 19.911c-.464-1.532-.754-4.126-3.023-3.847-3.532.434-.497 5.835-.403 8.194.07 1.73-.219 4.108-2.059 1.831-2.501-3.097-7.276-15.644-5.88-19.23.078-.205.321-.38.728-.215 1.888.771.921 4.645 4.121 4.355 2.631-.24 1.694-3.378.84-4.967a6.304 6.304 0 0 0-5.3-3.733c-1.35 0-1.024.663-1.938 1.609-1.46 1.513-2.43 1.066-2.638 3.653-.445 5.511 3.59 18.924 8 22.421a4.798 4.798 0 0 0 1.861 1 4.33 4.33 0 0 0 4.324-.65 5.288 5.288 0 0 0 2.34-4.56 11.112 11.112 0 0 0-.357-3.502l-.616-2.355v-.004Zm62.222 6.635a5.18 5.18 0 0 0 4.231 3.888c5.721.615 9.422-6.343 11.326-10.754 2.169-5.015 2.999-9.56.635-14.295-.149-.297-.455-.286-.628-.585-.158-.27-.177-.851-.355-1.123-1.778-2.687-6.486-1.206-8.461.67-4.54 4.31-8.967 16.178-6.743 22.199h-.005ZM65.492 54.364l.194-1.05c.091-.494.147-.994.167-1.495.043-1.06.027-2.12-.046-3.177l-.112-1.6a.088.088 0 0 0-.011-.04.095.095 0 0 0-.1-.05.095.095 0 0 0-.078.08 41.245 41.245 0 0 0-.02 7.334m40.954-5.262c.291-.405.922-.86 1.144-1.37-1.39.223-2.8.294-4.206.21a8.906 8.906 0 0 0-.597 2.074c-.608 2.844-1.349 5.866-1.687 8.69-.11.922-.274 1.296-.08 1.367.02.006.041.008.061.006a.16.16 0 0 0 .06-.019.159.159 0 0 0 .047-.04.147.147 0 0 0 .027-.056 35.953 35.953 0 0 1 5.232-10.864l-.001.002ZM59.544 65.116a10.218 10.218 0 0 1 2.714-1.537l.258-.06-.517-.356a13.973 13.973 0 0 1-2.596-2.34l-.432-.5.125.596c.288 1.383.439 2.792.45 4.205l-.002-.008Z"/></g><path fill="url(#paint1_linear_4185_149)" d="M46.974 35.833c4.137 4.01 13.197 1.6 13.27-4.8A5.37 5.37 0 0 0 57.956 26a7.655 7.655 0 0 0-5.655-.05c-1.47.57-1.714 1.62-1.21 3.022.737 2.05 2.49 1.22 4.143 1.144a.414.414 0 0 1 .434.417v.55a1.34 1.34 0 0 1-.356.926 4.544 4.544 0 0 1-2.947 1.093 5.076 5.076 0 0 1-1.323-.158 1.865 1.865 0 0 1-1.164-.77 21.794 21.794 0 0 1-2.601-8.416c-.562-3.178-1.872-10.38.161-12.978a2.893 2.893 0 0 1 3.986-.784c1.31 1.22 2.157 6.46 2.416 8.338.203 1.465-.114 4.338.909 5.268a2.333 2.333 0 0 0 3.884-1.398A33.98 33.98 0 0 0 55.945 8.45C52.37 2 43.563 4.91 42.096 11.616c-1.146 5.243.907 20.36 4.884 24.217h-.006Z"/><path fill="url(#paint2_linear_4185_149)" d="M96.162 29.884c-.287 1.432-1.36 4.486-.559 5.709.205.303.492.541.827.686a2.261 2.261 0 0 0 3.095-1.516c1.125-4.343 2.215-8.534 3.275-12.9.558-2.295 1.027-4.779 1.6-7.079a33.606 33.606 0 0 0 1.145-4.756c.1-.674.1-1.36 0-2.035a2.108 2.108 0 0 0-3.789-.316 11.58 11.58 0 0 0-1.287 4.232l-4.304 17.974-.003.001Z"/><path fill="url(#paint3_linear_4185_149)" d="m116.069 28.283.508-11.943c.07-1.128.683-5.208-.617-6.368a2.35 2.35 0 0 0-3.825.995A171.404 171.404 0 0 0 105.6 27.31c-.612 1.622-3.17 7.846-3.023 9.067.267 2.288 3.238 2.8 4.388.297 1.422-3.083 3.292-9.152 4.755-12.285.096 2.845-.117 5.736 0 8.589a53.91 53.91 0 0 0 .566 7.212 2.254 2.254 0 0 0 2.098 1.798 2.25 2.25 0 0 0 2.259-1.59c1.2-2.556 2.082-6.01 3.15-8.746 1.778-4.53 4.978-10.7 6.13-15.147.606-2.334-.576-3.796-2.252-3.426a2.627 2.627 0 0 0-1.853 1.6l-5.74 13.598-.009.006Z"/><path fill="url(#paint4_linear_4185_149)" d="M27.753 36.748a17.566 17.566 0 0 0 2.282 4.239c3.36 4.042 9.677 3.468 11.446-1.721a10.94 10.94 0 0 0-.17-7.725 162.057 162.057 0 0 0-7.27-19.954c-.838-1.811-2.989-2.401-4.13-.71-1.213 1.802 1.433 6.222 2.133 8.19 1.392 3.884 4.646 11.498 5.213 15.15.22 1.411.437 4.183-1.26 4.718-2.091.658-3.146-2.023-3.867-3.479-2.825-5.689-4.528-12.027-6.726-17.984a15.562 15.562 0 0 0-1.442-3.362 2.311 2.311 0 0 0-4.067 2c2.667 6.873 4.692 13.968 7.856 20.637l.002.001Z"/><path fill="url(#paint5_linear_4185_149)" d="M3.96 29.893c2.015 5.08 5.846 12.813 12.24 12.813l3.35.206c.322 0 2.958.368 3.4.48a5.224 5.224 0 0 1-1.68 1.41c-2.155 1.244-6.387 1.411-5.185 4.766.5 1.397 1.552 1.518 2.871 1.154 2.607-.72 7.065-2.882 8.112-5.5 1.707-4.267-1.85-6.554-5.664-7.035-2.814-.356-5.564.6-8.07-1.312A36.784 36.784 0 0 1 7.448 26.52c-.256-1.497.146-3.652 2.067-3.218 1.922.434 4.77 6.311 5.624 8.108.91 1.919 1.208 5.352 4.321 4.027 2.059-.875.674-3.83.098-5.244-1.324-3.25-4.505-9.257-7.698-10.834a6.086 6.086 0 0 0-8.693 3.911 8.613 8.613 0 0 0 .795 6.628v-.006Z"/><path fill="url(#paint6_linear_4185_149)" d="m73.161 64.782-.067-.225a3.597 3.597 0 0 0-.084-.244 7.942 7.942 0 0 0-4.071-4.226 28.94 28.94 0 0 1-3.89-2.288 5.444 5.444 0 0 1-1.6-4.119c-.023-.864.052-3.031 0-3.77 0-1.956-.68-5.204 1.245-6.308.25-.147.531-.233.82-.253a1.84 1.84 0 0 1 1.908 1.654l.096.853a36 36 0 0 1 .096 7.084l-.21 2.449a2.09 2.09 0 0 0 3.823 1.38c.926-1.398.79-6.943.686-8.808a16.18 16.18 0 0 0-.915-4.8 5.511 5.511 0 0 0-2.06-2.974 4.963 4.963 0 0 0-5.059-.804l-.432.116a6.67 6.67 0 0 0-4.119 6.177v4.712a29.33 29.33 0 0 0 .398 6.13 9.145 9.145 0 0 0 1.433 3.114c2.395 3.166 4.223 2.95 6.743 4.907.14.108 1.208 1.109 1.035 1.269l-3.63.12h-.77c-1.564-.067-3.765-.147-3.85 1.836-.11 2.547 2.872 2.558 4.591 2.666 1.325.11 2.658 0 3.947-.325a4.444 4.444 0 0 0 4.062-4.06 3.249 3.249 0 0 0-.124-1.245l-.002-.018Z"/><path fill="url(#paint7_linear_4185_149)" d="M76.489 49.332c-.14 2.092-.356 4.243-.457 6.4-.132 2.666-.415 5.502-.457 8.236a35.648 35.648 0 0 0 0 4.004c.323 2.881 3.996 2.944 4.346-.228.319-2.873.073-6.649.228-9.724.126-2.521.313-5.035.457-7.55.142-2.49.478-5.07.459-7.55-.01-1.137.266-2.45-.797-3.2-1.68-1.2-3.344.129-3.555 1.955-.27 2.384-.066 5.246-.23 7.664l.005-.007Z"/><path fill="url(#paint8_linear_4185_149)" d="M92.288 44.402c-.595-.573-3.18-1.986-3.792-3.072l-5.155 26.418c-.066 2.076 1.472 3.098 2.883 2.437a2.292 2.292 0 0 0 1.255-1.627c.824-4.034 1.183-7.735 2.04-11.758.065-.457.224-.895.467-1.287.423 2.763.864 5.545 1.445 8.279a36.649 36.649 0 0 0 1.985 7.397 2.16 2.16 0 0 0 3.712-.519c.048-.133.084-.27.106-.41l3.94-22.733-4.09-.938-2.173 11.44-2.617-13.625-.006-.002Z"/><path fill="url(#paint9_linear_4185_149)" d="M40.34 64.432c-.465-1.532-.754-4.126-3.023-3.847-3.532.434-.498 5.834-.403 8.194.069 1.73-.219 4.108-2.059 1.83-2.501-3.096-7.276-15.644-5.88-19.23.077-.204.32-.38.728-.215 1.888.772.92 4.646 4.12 4.356 2.632-.24 1.695-3.378.84-4.967a6.303 6.303 0 0 0-5.3-3.733c-1.349 0-1.023.663-1.937 1.608-1.46 1.513-2.43 1.067-2.638 3.654-.445 5.51 3.59 18.924 8 22.421a4.8 4.8 0 0 0 1.86 1 4.33 4.33 0 0 0 4.324-.65 5.288 5.288 0 0 0 2.34-4.56 11.109 11.109 0 0 0-.356-3.502l-.617-2.355v-.004Z"/><path fill="url(#paint10_linear_4185_149)" d="M140.489 25.16a4.044 4.044 0 0 0-.485-.872c-.085-.355.137-.587.026-.939a2.585 2.585 0 0 0-.86-1.255c-2.069-1.637-5.395-.914-7.536.356a31.559 31.559 0 0 0-9.17 11.307l-.915 1.83c-1.634 3.734-2.72 6.875-.687 10.754 2.034 3.88 5.714 3.378 9.156 1.49 2.667-1.463 9.835-10.443 10.562-15.954a20.708 20.708 0 0 0-.089-6.725l-.002.009Zm-14.195 19.821a1.3 1.3 0 0 1-1.574-.505 6.066 6.066 0 0 1-.425-3.256c.379-4.02 5.778-11.878 8.918-14.418.606-.49 1.541-1.232 2.359-1.037.066.016.158.356.556.841.285.356 1.11.555 1.122.601-.306 6.756-5.218 14.062-10.953 17.778l-.003-.004Z"/><path fill="url(#paint11_linear_4185_149)" d="M118.763 49.908c-.149-.297-.455-.287-.627-.585-.159-.27-.178-.852-.356-1.124-1.778-2.686-6.485-1.205-8.46.67-4.541 4.312-8.968 16.178-6.744 22.2a5.182 5.182 0 0 0 4.231 3.888c5.721.616 9.423-6.344 11.327-10.754 2.169-5.015 2.999-9.561.634-14.295h-.005Zm-7.269 17.628c-.765 1.085-3.52 4.393-4.674 2.603-1.438-2.233-.619-7.677.302-10.107.921-2.588 4.373-8.972 6.167-9.067.941-.051 1.75.578 2.271 2.004a6.47 6.47 0 0 1 .369 1.907c.199 4.182-2.158 9.425-4.435 12.66Z"/><path fill="url(#paint12_linear_4185_149)" d="m57.492 64.185-3.266-15.046a9.686 9.686 0 0 0-2.046-4.206c-2.4-2.844-6.162-3.96-9.245-.755a2.747 2.747 0 0 0-.48.682 3.488 3.488 0 0 1-.117.212c-2.277 3.79-.324 10.931.52 15.225.303 1.532.817 3.11 1.144 4.576.258 1.155.402 2.466.686 3.66.406 1.7.368 4.544 2.631 4.546 3.687 0 1.588-5.568 1.03-7.516l5.025-.921c.25.953.215 2.409.457 3.433.342 1.44.758 3.084 2.617 2.967 3.263-.206 1.389-4.978 1.044-6.857Zm-9.956-2.964a51.556 51.556 0 0 1-1.258-5.262c-.3-1.703-1.147-7.289-.432-8.553.889-1.59 2.167-.759 3.114.455a7.29 7.29 0 0 1 1.389 3.069l1.861 9.362-4.674.93Z"/><path fill="url(#paint13_linear_4185_149)" d="M62.866 31.714c.23 3.88 2.548 5.646 4.324 3.234.778-1.056.305-5.074.126-6.687l5.713-.435c-.033 1.618-.062 3.66.027 5.262.093 1.69.55 3.022 2.614 2.736 2.856-.396 1.964-5.755 1.955-8 0-2.619-.16-5.177-.23-7.778-.07-2.713 0-5.333-.228-8-.285-3.27-.313-4.538-2.518-7.091a5.804 5.804 0 0 0-7.317-1.942c-5.554 2.192-4.741 10.255-4.8 15.211-.032 2.311-.032 4.66 0 6.981l.334 6.509Zm4.468-8c0-1.383-.25-9.627 0-12.125a8.604 8.604 0 0 1 .805-3.655 2.245 2.245 0 0 1 2.626-.691c2.327 1.441 2.069 13.884 2.069 16.345l-5.5.126Z"/><path fill="url(#paint14_linear_4185_149)" d="M80.82 28.313c-.11 1.188-.921 6.044-.445 7.063 1.328 2.845 3.647.674 4.35-2.516a30.985 30.985 0 0 0 4.345 5.947c.155.178.305.3.457.457a21.675 21.675 0 0 0 15.675 6.65c2.245-.031 5.698-1.244 3.543-3.91a1.747 1.747 0 0 0-1.49-.89c-.206 0-1.176.11-1.244.11l-2.866.088c-3.792 0-8.661-2.939-11.097-5.72a24.206 24.206 0 0 1-2.745-3.889 25.568 25.568 0 0 1-1.356-2.608 14.745 14.745 0 0 0 7.442-12.174c.358-1.86.232-3.783-.367-5.58a7.662 7.662 0 0 0-2.288-3.661 9.63 9.63 0 0 0-3.902-2.844c-6.492-2.4-5.315 2.743-5.945 7.432l-2.073 16.045h.006ZM87.696 9.3c.415.303 1.435 1.055 1.778 1.357.495.462.901 1.01 1.2 1.618.49 1.314.648 2.729.457 4.119a18.543 18.543 0 0 1-.97 3.491 14.881 14.881 0 0 1-4.78 5.431l2.312-16.014.003-.002Z"/><path fill="#260265" d="M126.298 44.974a1.3 1.3 0 0 1-1.577-.512 6.063 6.063 0 0 1-.425-3.259c.379-4.019 5.778-11.877 8.917-14.417.606-.49 1.542-1.232 2.359-1.037.066.016.16.356.557.841.284.356 1.109.555 1.122.601-.304 6.756-5.218 14.062-10.953 17.778v.005Zm7.575-11.703.907-2.329c.24-.611.347-1.267.312-1.923-.026-.463-.124-.854-.387-.743a37.792 37.792 0 0 0-4.331 4.823 34.208 34.208 0 0 0-1.964 3.184 14.37 14.37 0 0 0-2.023 5.562.138.138 0 0 0 .236.114l1.182-.851a17.467 17.467 0 0 0 6.068-7.835v-.002Z"/><path fill="#ABE7B4" d="m63.205 39.717.23-.229c-.063.013-.146.196-.23.23Z"/><path fill="#260265" d="M115.551 52.947a6.44 6.44 0 0 1 .37 1.908c.199 4.185-2.158 9.422-4.444 12.663-.765 1.085-3.52 4.393-4.674 2.603-1.438-2.233-.619-7.676.302-10.107.921-2.588 4.373-8.972 6.167-9.067.95-.046 1.758.575 2.279 2Zm-2.122.953a9.065 9.065 0 0 0-2.123 3.13 23.743 23.743 0 0 1-.779 1.576 21.69 21.69 0 0 0-2.48 8.907c.018.247-.127.763.34.567 1.698-.711 4.592-8 5.344-10.61.116-.543.203-1.092.261-1.644l.285-1.6h-.26a.71.71 0 0 1-.592-.322l.004-.004ZM52.21 60.291l-4.674.93a51.477 51.477 0 0 1-1.26-5.262c-.3-1.703-1.146-7.289-.431-8.553.889-1.59 2.167-.757 3.115.455a7.289 7.289 0 0 1 1.388 3.069l1.861 9.361Zm-2.502.701-.691-1.892.919-.169a49.975 49.975 0 0 0-1.373-7.091 5.559 5.559 0 0 0-.839-2.311.177.177 0 0 0-.302.064l.01.138a54.14 54.14 0 0 0 1.298 8.178l.285 1.19.693 1.893Z"/><path fill="#270265" d="M67.326 23.698c0-1.383-.25-9.627 0-12.125a8.603 8.603 0 0 1 .805-3.655 2.245 2.245 0 0 1 2.626-.691c2.327 1.441 2.069 13.884 2.069 16.345l-5.5.126Zm2.055-2.285c.26 0 .956.022 1.244 0a60.112 60.112 0 0 0-.064-8.773 21.89 21.89 0 0 0-.158-1.956.464.464 0 0 0-.907.036 52.606 52.606 0 0 0-.199 5.595c.02 1.066.04 2.18 0 3.486-.008.375.004.751.036 1.125l.04.482.008.005Z"/><path fill="#260165" d="M87.682 9.285c.414.303 1.434 1.055 1.778 1.357.494.462.901 1.01 1.2 1.618.49 1.314.648 2.729.456 4.119a18.51 18.51 0 0 1-.97 3.491 14.88 14.88 0 0 1-4.779 5.431l2.311-16.014.004-.002Zm.73 5.899-.504 2.791a3.269 3.269 0 0 0 .563-2.45l-.059-.341Z"/></g><defs><linearGradient id="paint1_linear_4185_149" x1="42.964" x2="66.697" y1="6.854" y2="22.712" gradientUnits="userSpaceOnUse"><stop stop-color="#EAA5E9"/><stop offset=".241" stop-color="#D28AD1"/><stop offset=".815" stop-color="#F3BFCD"/><stop offset=".869" stop-color="#F4C4CB"/><stop offset="1" stop-color="#DEBA8F"/></linearGradient><linearGradient id="paint2_linear_4185_149" x1="100.466" x2="100.466" y1="6.631" y2="36.467" gradientUnits="userSpaceOnUse"><stop stop-color="#C4FAC8"/><stop offset=".882" stop-color="#71F6F4"/><stop offset="1" stop-color="#65DAD8"/></linearGradient><linearGradient id="paint3_linear_4185_149" x1="113.293" x2="115.283" y1="9.351" y2="41.932" gradientUnits="userSpaceOnUse"><stop stop-color="#ACFFFE"/><stop offset=".462" stop-color="#67DFDF"/><stop offset=".83" stop-color="#79FBF9"/><stop offset="1" stop-color="#67DDDB"/></linearGradient><linearGradient id="paint4_linear_4185_149" x1="25.523" x2="47.28" y1="9.874" y2="35.747" gradientUnits="userSpaceOnUse"><stop stop-color="#EAA5E9"/><stop offset=".442" stop-color="#E396E1"/><stop offset=".863" stop-color="#EAA8EA"/><stop offset="1" stop-color="#C984C8"/></linearGradient><linearGradient id="paint5_linear_4185_149" x1="5.894" x2="33.492" y1="17.586" y2="39.785" gradientUnits="userSpaceOnUse"><stop stop-color="#CF88CE"/><stop offset=".184" stop-color="#C985C8"/><stop offset=".396" stop-color="#E598E3"/><stop offset=".574" stop-color="#EBA7EA"/><stop offset=".69" stop-color="#EBA8EA"/><stop offset=".747" stop-color="#EAA2E9"/><stop offset="1" stop-color="#C985C8"/></linearGradient><linearGradient id="paint6_linear_4185_149" x1="61.04" x2="83.067" y1="39.02" y2="49.919" gradientUnits="userSpaceOnUse"><stop stop-color="#A6F6E1"/><stop offset=".521" stop-color="#F5E34E"/><stop offset=".622" stop-color="#D9C146"/><stop offset=".768" stop-color="#F4D265"/><stop offset=".921" stop-color="#EDBF8E"/><stop offset="1" stop-color="#DAA2AA"/></linearGradient><linearGradient id="paint7_linear_4185_149" x1="77.285" x2="89.013" y1="38.057" y2="41.278" gradientUnits="userSpaceOnUse"><stop stop-color="#F4E35F"/><stop offset=".3" stop-color="#F2CE71"/><stop offset=".642" stop-color="#F0BEA2"/><stop offset=".857" stop-color="#EFB4B3"/><stop offset="1" stop-color="#CE89CA"/></linearGradient><linearGradient id="paint8_linear_4185_149" x1="90.259" x2="104.396" y1="39.642" y2="69.291" gradientUnits="userSpaceOnUse"><stop stop-color="#D6A196"/><stop offset=".537" stop-color="#EAA8EA"/><stop offset=".752" stop-color="#E598E3"/><stop offset="1" stop-color="#CA85C8"/></linearGradient><linearGradient id="paint9_linear_4185_149" x1="28.451" x2="48.101" y1="45.892" y2="67.775" gradientUnits="userSpaceOnUse"><stop stop-color="#92FDFD"/><stop offset=".174" stop-color="#67DFDE"/><stop offset=".555" stop-color="#6FEFEE"/><stop offset=".849" stop-color="#B4F8F5"/><stop offset="1" stop-color="#84D7C8"/></linearGradient><linearGradient id="paint10_linear_4185_149" x1="130.283" x2="130.283" y1="23.142" y2="49.265" gradientUnits="userSpaceOnUse"><stop stop-color="#C8FDFD"/><stop offset=".285" stop-color="#70F0EF"/><stop offset=".768" stop-color="#75F9F8"/><stop offset="1" stop-color="#68E1E0"/></linearGradient><linearGradient id="paint11_linear_4185_149" x1="111.089" x2="111.089" y1="46.734" y2="74.995" gradientUnits="userSpaceOnUse"><stop stop-color="#EBCCEB"/><stop offset=".197" stop-color="#E8A2E7"/><stop offset=".564" stop-color="#E497E3"/><stop offset="1" stop-color="#CC87CB"/></linearGradient><linearGradient id="paint12_linear_4185_149" x1="44.856" x2="68.812" y1="41.278" y2="58.576" gradientUnits="userSpaceOnUse"><stop stop-color="#75FBF9"/><stop offset=".603" stop-color="#B5D49F"/><stop offset=".726" stop-color="#E3E785"/><stop offset=".803" stop-color="#DDE68D"/><stop offset="1" stop-color="#D9C94C"/></linearGradient><linearGradient id="paint13_linear_4185_149" x1="65.208" x2="87.118" y1="2.433" y2="22.647" gradientUnits="userSpaceOnUse"><stop stop-color="#EDB1E2"/><stop offset=".215" stop-color="#D19CB3"/><stop offset=".481" stop-color="#F3D18D"/><stop offset=".605" stop-color="#F8E755"/><stop offset=".697" stop-color="#D8C45C"/><stop offset="1" stop-color="#CED56D"/></linearGradient><linearGradient id="paint14_linear_4185_149" x1="84.168" x2="120.222" y1="2.85" y2="33.007" gradientUnits="userSpaceOnUse"><stop stop-color="#F9E857"/><stop offset=".157" stop-color="#EADD4E"/><stop offset=".383" stop-color="#D8F9B1"/><stop offset=".475" stop-color="#B5E6AE"/><stop offset=".919" stop-color="#65DAD9"/><stop offset="1" stop-color="#70F0EF"/></linearGradient><radialGradient id="paint0_radial_4185_149" cx="0" cy="0" r="1" gradientTransform="matrix(63.504 0 0 34.496 72 39.111)" gradientUnits="userSpaceOnUse"><stop stop-color="#260165"/><stop offset=".511" stop-color="#36186A" stop-opacity=".824"/><stop offset="1" stop-color="gray" stop-opacity="0"/></radialGradient><filter id="filter0_d_4185_149" width="143.797" height="78.796" x=".314" y=".259" color-interpolation-filters="sRGB" filterUnits="userSpaceOnUse"><feFlood flood-opacity="0" result="BackgroundImageFix"/><feColorMatrix in="SourceAlpha" result="hardAlpha" type="matrix" values="0 0 0 0 0 0 0 0 0 0 0 0 0 0 0 0 0 0 127 0"/><feOffset dy=".3"/><feGaussianBlur stdDeviation=".2"/><feColorMatrix type="matrix" values="0 0 0 0 0.129412 0 0 0 0 0.0117647 0 0 0 0 0.376471 0 0 0 0.22 0"/><feBlend in2="BackgroundImageFix" mode="normal" result="effect1_dropShadow_4185_149"/><feBlend in="SourceGraphic" in2="effect1_dropShadow_4185_149" mode="normal" result="shape"/></filter></defs></svg>