<?xml version="1.0" encoding="UTF-8"?> <svg xmlns="http://www.w3.org/2000/svg" xmlns:xlink="http://www.w3.org/1999/xlink" version="1.1" id="Layer_1" x="0px" y="0px" viewBox="0 0 256 256" style="enable-background:new 0 0 256 256;" xml:space="preserve"> <style type="text/css"> .st0{fill:#FDFDFE;} .st1{fill:#E9FC45;} </style> <g> <g> <path class="st0" d="M151.35,116.47c0.39-2.78,2.39-5.79,5.47-5.79c6.44-0.11,12.93-0.4,19.36,0.05c2.96,0.21,5.64,2.11,6.58,4.92 c1.43,4.28-0.2,9.98-4.1,12.27c4.96,5.91,0.83,17.77-7.55,17.57c-6.74,0.14-13.51,0.13-20.25,0.05c-1.03,0.03-1.9-0.38-2.69-0.94 c-1.32-0.94-1.98-2.58-1.74-4.19C147.66,132.36,149.81,124.47,151.35,116.47z M159.88,123.87c3.74-0.06,7.5,0.3,11.23-0.07 c1.67-0.99,1.37-3.4,2.07-5c-3.89-0.34-7.81-0.31-11.71-0.31C160.91,120.27,160.4,122.08,159.88,123.87z M158.23,131.81 c-0.29,1.87-0.93,3.62-1.28,5.57c3.64-0.05,7.67,0.47,11.28-0.17c2.47-0.46,1.88-3.56,2.28-5.39 C166.42,131.77,162.32,131.85,158.23,131.81z"></path> </g> <path class="st0" d="M187.52,116.42c0.42-2.62,2.07-5.52,5.01-5.7c8.69-0.39,17.42-0.04,26.12-0.18c-0.65,2.66-1.25,5.32-1.73,8.01 c-6.52,0.05-13.04-0.15-19.55,0.13c-0.4,1.77-0.82,3.55-1.23,5.32c6.39-0.17,12.79-0.15,19.17-0.05c-0.52,2.59-1.09,5.16-1.71,7.73 c-6.32-0.01-12.63,0.01-18.95-0.06c-0.51,1.92-1,3.85-1.46,5.77c6.58,0.23,13.15,0.07,19.73,0.14c-0.49,2.71-1.01,5.4-1.58,8.1 c-8.24-0.2-16.49,0.13-24.73-0.14c-2.53,0-4.75-2.4-4.08-4.95C183.93,132.45,185.87,124.45,187.52,116.42z"></path> <path class="st0" d="M220.75,110.55c11.75,0.02,23.49,0.04,35.25-0.02c-0.57,2.73-1.14,5.46-1.72,8.19 c-4.23-0.01-8.45-0.07-12.68,0.06c-1.5,8.97-3.64,17.84-5.5,26.75c-3.42,0.06-6.84,0.07-10.25,0.12 c1.96-8.97,3.68-18.01,5.78-26.96c-4.18-0.01-8.37,0-12.55,0.07C219.68,116.02,220.18,113.28,220.75,110.55z"></path> <path class="st1" d="M1.85,110.57c11.74-0.05,23.48,0.06,35.22-0.06c-0.58,2.73-1.15,5.47-1.72,8.22 c-4.17-0.02-8.32-0.02-12.49-0.06c-1.96,8.96-3.91,17.94-5.69,26.94c-3.45-0.02-6.91-0.04-10.38,0.01 c2.03-8.96,3.8-17.97,5.81-26.92c-4.2-0.01-8.41,0.01-12.61,0.07C0.64,116.05,1.29,113.32,1.85,110.57z"></path> <path class="st1" d="M39.24,113.84c0.68-2.02,2.8-3.22,4.87-3.16c8.45-0.31,16.92,0,25.38-0.15c-0.61,2.68-1.2,5.37-1.79,8.05 c-6.38-0.09-12.75,0.06-19.11-0.15c-0.59,1.83-1.13,3.66-1.67,5.5c6.43,0.01,12.87-0.06,19.3,0.06c-0.58,2.55-1.12,5.1-1.64,7.67 c-6.33,0-12.66,0.02-18.98-0.06c-0.56,1.88-1.14,3.76-1.73,5.64c7.51,0.64,15.07,0.14,22.59,0.33c1.76-7.12,3.12-14.34,4.69-21.5 c0.82-6.21,10.03-8.17,13.9-3.78c3.3,6.58,5.82,13.52,8.77,20.25c2.5-7.1,3.32-14.67,5.13-21.96c3.12,0,6.26,0,9.39-0.01 c-1.9,9.24-3.92,18.45-5.85,27.67c-0.58,2.81-1.59,6.16-4.68,7.1c-3.23,1.26-8.13,1.23-9.84-2.35c-3.29-6.66-5.82-13.65-8.96-20.37 c-1.12,6.36-2.37,12.71-3.99,18.96c-0.47,2.8-3.34,4.14-5.95,3.99c-9.49,0.07-18.97-0.05-28.47,0.05 c-2.58,0.01-6.07,0.05-7.11-2.88c-0.44-4.26,1.23-8.35,1.96-12.49C36.73,124.77,37.37,119.13,39.24,113.84z"></path> <g> <path class="st1" d="M112.98,115.13c1.91-2.18,4.57-3.58,7.41-4.2c6.57-1.45,13.65-1.48,19.98,0.85 c5.95,2.64,6.39,10.04,5.32,15.6c-1.16,6.15-2.84,13.58-8.99,16.6c-5.9,2.45-12.57,2.43-18.82,1.61c-4.31-0.5-8.94-3.11-9.88-7.66 c-1.22-6.36,0.18-12.94,2.56-18.86C111.15,117.62,111.97,116.29,112.98,115.13z M120.25,122.79c-1.4,3.22-2.48,6.82-2.26,10.35 c0.14,2.21,1.86,4.03,4.06,4.33c2.87,0.38,5.79,0.36,8.44-0.94c3.02-1.71,3.72-5.41,4.55-8.49c0.26-1.2,0.58-2.54,0.69-3.87 c0.22-2.8-1.89-5.28-4.67-5.68C126.86,117.87,122.08,118.68,120.25,122.79z"></path> </g> </g> </svg> 