<svg width="183" height="37" viewBox="0 0 183 37" fill="none" xmlns="http://www.w3.org/2000/svg">
<path d="M126.953 5.92702H133.822V0H126.953V5.92702Z" fill="#17E882"/>
<path d="M69.7412 29.2022C75.4467 29.2022 79.7874 25.4909 80.573 19.9919H73.7094C73.1353 21.7997 71.6145 22.9478 69.7412 22.9478C67.309 22.9478 65.5415 21.0393 65.5415 18.4006C65.5415 15.7619 67.2888 13.8886 69.7412 13.8886C71.5641 13.8886 73.1101 14.9663 73.6942 16.623H80.4975C79.732 11.2298 75.4618 7.63428 69.7664 7.63428C63.22 7.63428 58.5469 12.1009 58.5469 18.3805C58.5469 24.66 63.2401 29.2072 69.7412 29.2072V29.2022ZM170.636 29.1568C177.228 29.1568 182.002 24.6197 182.002 18.3553C182.002 12.0909 177.228 7.55371 170.636 7.55371C164.045 7.55371 159.271 12.0657 159.271 18.3553C159.271 24.6449 164.02 29.1568 170.636 29.1568ZM170.636 22.8874C168.088 22.8874 166.26 21.0393 166.26 18.3553C166.26 15.6713 168.088 13.8232 170.636 13.8232C173.184 13.8232 175.012 15.6864 175.012 18.3553C175.012 21.0242 173.184 22.8874 170.636 22.8874ZM149.134 7.94146C146.526 7.94146 144.285 8.9486 142.774 10.6255L141.817 8.54071H136.917V28.8144H143.902V17.9877C143.902 15.3893 145.146 13.8685 147.321 13.8685C149.069 13.8685 149.95 15.0368 149.95 17.3985V28.8144H156.934V16.4367C156.934 11.2751 153.842 7.93642 149.139 7.93642L149.134 7.94146ZM126.891 28.7389H133.876V8.46517H126.891V28.7389ZM115.878 29.2022C121.266 29.2022 124.842 26.4275 124.842 22.1925C124.842 17.046 120.587 16.3863 117.384 15.8173C115.455 15.4749 113.909 15.2029 113.909 14.0548C113.909 13.1081 114.66 12.5592 115.783 12.5592C117.047 12.5592 117.918 13.1584 117.918 14.4577H124.459C124.379 10.3536 121.035 7.60407 115.873 7.60407C110.712 7.60407 107.212 10.2277 107.212 14.2864C107.212 19.2063 111.381 20.1581 114.519 20.6717C116.472 20.9889 118.003 21.3213 118.003 22.4946C118.003 23.5471 117.031 24.0658 116.014 24.0658C114.69 24.0658 113.652 23.3859 113.652 21.9004H106.93C106.99 26.2915 110.354 29.2122 115.878 29.2122V29.2022ZM99.764 8.2436L99.049 9.8097C97.3771 8.43496 95.242 7.63428 92.8551 7.63428C86.6511 7.63428 82.2247 12.1009 82.2247 18.3855C82.2247 24.67 86.6561 29.2072 92.8551 29.2072C95.2067 29.2072 97.3117 28.4317 98.9734 27.0872L99.5676 28.5223H104.961V8.25367H99.759L99.764 8.2436ZM93.7867 23.0183C91.1731 23.0183 89.2445 21.0494 89.2445 18.3956C89.2445 15.7418 91.153 13.7829 93.7867 13.7829C96.4203 13.7829 98.3289 15.7619 98.3289 18.3956C98.3289 21.0292 96.4002 23.0183 93.7867 23.0183Z" fill="white"/>
<path d="M34.3938 14.0395V36.4182H41.2977V28.4316C42.7279 29.2927 44.4098 29.7761 46.2428 29.7761C52.4468 29.7761 56.8732 25.2742 56.8732 18.9544C56.8732 16.4113 56.153 14.1654 54.8941 12.3878C48.0909 12.4231 41.2625 13.0525 34.3988 14.0345L34.3938 14.0395ZM31.2969 9.18512L31.3925 2.49268H24.5238V9.17505L31.2969 9.18512ZM17.5192 9.25058L21.2708 2.53296H1.55603V9.26065L17.5192 9.25058ZM11.5871 22.0614L13.8582 17.8717C10.9124 18.4911 7.9564 19.1256 4.99541 19.7601L0 28.7941L0.916497 28.8042H21.719V22.0564H11.5871V22.0614ZM24.403 28.8545H31.3875V14.4676C29.061 14.8452 26.7345 15.2582 24.403 15.6963V28.8545ZM45.3062 23.6074C42.6926 23.6074 40.764 21.6283 40.764 18.9644C40.764 16.3006 42.6926 14.3215 45.3062 14.3215C47.9197 14.3215 49.8484 16.3006 49.8484 18.9644C49.8484 21.6283 47.9096 23.6074 45.3062 23.6074Z" fill="#17E882"/>
<path fill-rule="evenodd" clip-rule="evenodd" d="M48.7214 8.73722C48.6207 7.53872 49.2602 6.50137 50.1515 6.43087C51.9593 6.13377 53.0621 6.09348 56.0533 4.92016C60.6509 1.57143 61.6833 13.8233 56.5871 11.2853C53.4449 10.6256 52.3471 10.7666 50.5191 10.7767C49.6278 10.8522 48.8271 9.93571 48.7264 8.73722H48.7214ZM56.9648 6.2093C57.8813 6.13377 58.687 6.81358 58.7625 7.73008C58.8381 8.64658 58.1583 9.45229 57.2418 9.52782C56.3253 9.60336 55.5196 8.92354 55.444 8.00704C55.3685 7.09055 56.0483 6.28987 56.9648 6.2093Z" fill="#17E882"/>
</svg>
