<?xml version="1.0" encoding="utf-8"?>
<!-- Generator: Adobe Illustrator 27.2.0, SVG Export Plug-In . SVG Version: 6.00 Build 0)  -->
<svg version="1.1" id="Livello_1" xmlns="http://www.w3.org/2000/svg" xmlns:xlink="http://www.w3.org/1999/xlink" x="0px" y="0px"
	 viewBox="0 0 2148.2 501.1" style="enable-background:new 0 0 2148.2 501.1;" xml:space="preserve">
<style type="text/css">
	.st0{display:none;}
	.st1{clip-path:url(#SVGID_00000164488004282086497020000006450303741111264911_);fill:#FFFFFF;}
	.st2{clip-path:url(#SVGID_00000089532605741542017590000017456091773282626733_);fill:#FFFFFF;}
	.st3{clip-path:url(#SVGID_00000140736265782526338500000002190060339785265059_);fill:#FFFFFF;}
	.st4{clip-path:url(#SVGID_00000027589023041653608140000006441369173384028823_);fill:#FFFFFF;}
	.st5{clip-path:url(#SVGID_00000080912695234746904450000015161253238765992873_);fill:#FFFFFF;}
	.st6{clip-path:url(#SVGID_00000045592946188718969550000013652801776631796357_);fill:#FFFFFF;}
	.st7{clip-path:url(#SVGID_00000018230403446350980580000014581913351491828387_);fill:#FFFFFF;}
	.st8{clip-path:url(#SVGID_00000104697564346523371710000009689200759442799761_);fill:#FFFFFF;}
	.st9{clip-path:url(#SVGID_00000100366380908263828040000005578285421900599989_);fill:#FFFFFF;}
	.st10{clip-path:url(#SVGID_00000026136992364450127470000018371129025331874703_);fill:#FFFFFF;}
	.st11{clip-path:url(#SVGID_00000176004336585812846800000008798772322379236766_);fill:#009245;}
	.st12{clip-path:url(#SVGID_00000051371211101666751400000009343269730936950172_);fill:#C1272D;}
	.st13{fill:#FFFFFF;}
	.st14{fill-rule:evenodd;clip-rule:evenodd;fill:#FFFFFF;}
</style>
<rect x="-113.3" y="-249.6" class="st0" width="2399" height="999"/>
<path class="st0" d="M-112.8-249.1h2398v998h-2398V-249.1z M-113.8,749.9h2400v-1000h-2400V749.9z"/>
<g>
	<g>
		<defs>
			<rect id="SVGID_1_" x="-113.8" y="-250.1" width="2400" height="1000"/>
		</defs>
		<clipPath id="SVGID_00000031198171473096981560000009034733371325049479_">
			<use xlink:href="#SVGID_1_"  style="overflow:visible;"/>
		</clipPath>
		<path style="clip-path:url(#SVGID_00000031198171473096981560000009034733371325049479_);fill:#FFFFFF;" d="M1609.9,496.4h121.4
			l15.2-222.1c2.8-37.2,0-82.7,0-82.7h1.4c0,0,16.6,51.7,27.6,82.7l51.7,142.7h103.4l51.7-142.7c11-31,27.6-82.7,27.6-82.7h1.4
			c0,0-2.8,45.5,0,82.7l15.2,222.1h120.7l-40-493.1h-131l-71.7,208.3c-11,31.7-24.8,81.4-24.8,81.4h-1.4c0,0-13.8-49.6-24.8-81.4
			L1781.8,3.3h-131L1609.9,496.4z"/>
	</g>
	<g>
		<defs>
			<rect id="SVGID_00000091010073943836755640000013067867892822859195_" x="-113.8" y="-250.1" width="2400" height="1000"/>
		</defs>
		<clipPath id="SVGID_00000143614140025613823620000001302560356087590046_">
			<use xlink:href="#SVGID_00000091010073943836755640000013067867892822859195_"  style="overflow:visible;"/>
		</clipPath>
		<path style="clip-path:url(#SVGID_00000143614140025613823620000001302560356087590046_);fill:#FFFFFF;" d="M970.7,3.4H843.8
			l-167.6,493h124.1L830,393h153.8l30.3,103.4h124.1L970.7,3.4z M858.2,296.4l28.3-95.9c9-31,20-84.8,20-84.8h1.4
			c0,0,11,53.8,20,84.8l27.6,95.9H858.2z"/>
	</g>
	<g>
		<defs>
			<rect id="SVGID_00000029019705790104341840000001825287526593355928_" x="-113.8" y="-250.1" width="2400" height="1000"/>
		</defs>
		<clipPath id="SVGID_00000039121740040428709630000012220811448583625911_">
			<use xlink:href="#SVGID_00000029019705790104341840000001825287526593355928_"  style="overflow:visible;"/>
		</clipPath>
		<path style="clip-path:url(#SVGID_00000039121740040428709630000012220811448583625911_);fill:#FFFFFF;" d="M1334.1,3.4h-175.2
			v493.1h175.2c155.2,0,254.5-92.4,254.5-247.6S1489.2,3.4,1334.1,3.4 M1329.2,393h-49.6V106.8h49.6c81.4,0,134.5,48.3,134.5,142
			C1463.7,343.3,1412.7,393,1329.2,393"/>
	</g>
	<g>
		<defs>
			<rect id="SVGID_00000044150033461856250600000008379776170985045405_" x="-113.8" y="-250.1" width="2400" height="1000"/>
		</defs>
		<clipPath id="SVGID_00000127029163860207822030000005541007690706825360_">
			<use xlink:href="#SVGID_00000044150033461856250600000008379776170985045405_"  style="overflow:visible;"/>
		</clipPath>
		<path style="clip-path:url(#SVGID_00000127029163860207822030000005541007690706825360_);fill:#FFFFFF;" d="M533.4,56.9l-0.3-0.2
			v-1.5l0.3-0.2c1.4,0,2.3-0.1,2.7-0.2s0.8-0.4,1.1-0.7c0.3-0.4,0.9-1.6,1.9-3.6l3-6.5l7.8-17.6c1.5-3.4,2.9-6.9,4.4-10.3h1.9
			l12.2,28.7l1.6,3.8c0.5,1.1,1,2.3,1.6,3.5c0.6,1.3,1,2,1.3,2.3c0.2,0.2,0.5,0.4,0.9,0.5s1.1,0.2,2.4,0.2l0.2,0.2v1.5l-0.2,0.2
			c-2-0.2-3.8-0.3-5.5-0.3c-3.2,0.1-6.3,0.2-9.5,0.3l-0.2-0.2v-1.5l0.2-0.2c2.1,0,3.5-0.1,4-0.3c0.5-0.1,0.8-0.5,0.8-1
			c0-0.4-0.1-1-0.4-1.7l-3.5-8.7h-16.5l-3.1,7.3c-0.6,1.3-0.8,2.3-0.8,2.9c0,0.5,0.3,0.8,0.8,1.1c0.5,0.2,1.8,0.4,3.9,0.4l0.3,0.2
			v1.5l-0.5,0.1c-2.5-0.2-4.6-0.2-6.5-0.2C537.6,56.7,535.5,56.8,533.4,56.9 M546.4,40.9h14.5l-7.2-17.2L546.4,40.9z"/>
	</g>
	<g>
		<defs>
			<rect id="SVGID_00000054988086715397941360000002070519992610418103_" x="-113.8" y="-250.1" width="2400" height="1000"/>
		</defs>
		<clipPath id="SVGID_00000054231818014341937060000011891985308655581362_">
			<use xlink:href="#SVGID_00000054988086715397941360000002070519992610418103_"  style="overflow:visible;"/>
		</clipPath>
		<path style="clip-path:url(#SVGID_00000054231818014341937060000011891985308655581362_);fill:#FFFFFF;" d="M575.3,111.4v0.9
			l-0.1,0.3l-1.4,0.8c-0.3,0.2-0.5,0.4-0.6,0.5s-0.1,0.7-0.2,1.7c-0.1,1-0.1,2.3-0.1,3.7c0,1.7,0.1,3.5,0.3,5.4L573,125
			c-5.2,2-10.6,3-16.1,3c-4.2,0-8.1-0.8-11.5-2.4s-6.1-4-8.1-7.1s-3-6.9-3-11.2c0-6.6,2.3-11.8,6.8-15.7c4.5-3.9,10.4-5.8,17.6-5.8
			c5.3,0,10.1,0.9,14.4,2.7l0.2,0.3c-0.3,1.3-0.7,4-1.2,8l-0.2,0.2h-1.3l-0.2-0.2l-0.1-3c-0.1-1-0.1-1.6-0.2-1.7
			c-0.1-0.2-0.3-0.4-0.6-0.7c-0.3-0.3-1.2-0.7-2.6-1.3c-1.4-0.6-2.8-1-4.3-1.3c-1.4-0.3-3-0.4-4.6-0.4c-3.5,0-6.6,0.7-9.3,2.2
			c-2.7,1.4-4.7,3.6-6.1,6.3c-1.4,2.8-2,5.9-2,9.2c0,3.5,0.7,6.8,2.2,9.8s3.6,5.4,6.3,7.1s5.9,2.5,9.6,2.5c1.6,0,3.2-0.2,4.8-0.5
			s3-0.8,4.1-1.3c0.2-0.6,0.3-1.8,0.3-3.7v-3.2c0-1.5-0.1-2.4-0.3-2.8s-0.7-0.6-1.4-0.8c-0.8-0.2-2.4-0.2-4.9-0.3l-0.3-0.3v-1.3
			l0.3-0.3l1.7,0.1c3,0.1,5.4,0.1,7.3,0.1c1.1,0,2.7-0.1,4.8-0.2L575.3,111.4z"/>
	</g>
	<g>
		<defs>
			<rect id="SVGID_00000090283407617329260450000011091324536803577481_" x="-113.8" y="-250.1" width="2400" height="1000"/>
		</defs>
		<clipPath id="SVGID_00000015325273441612652030000013691112782335617974_">
			<use xlink:href="#SVGID_00000090283407617329260450000011091324536803577481_"  style="overflow:visible;"/>
		</clipPath>
		<path style="clip-path:url(#SVGID_00000015325273441612652030000013691112782335617974_);fill:#FFFFFF;" d="M539.1,157l0.2-0.2
			c6.5,0.1,10.7,0.2,12.5,0.2c6.2,0,11.8-0.1,16.7-0.2l0.1,0.2c-0.5,1.8-0.8,4.7-1.1,8.6l-0.2,0.2h-1.4l-0.3-0.2c0-0.2,0-0.3,0-0.5
			c0-1.6-0.1-3.2-0.4-4.6c-1.2-0.5-2.9-0.9-5-1c-2.1-0.2-3.7-0.2-4.8-0.2c-1.5,0-3.4,0.1-5.8,0.3l-0.1,4.6l-0.1,5.2l-0.1,5.8
			c2.1,0.1,4,0.2,5.7,0.2c1.8,0,3.2-0.1,4.4-0.2s1.9-0.2,2.1-0.4c0.2-0.1,0.4-0.4,0.5-0.7c0.1-0.4,0.2-1,0.3-1.9l0.1-1.8l0.2-0.2
			h1.3l0.2,0.2c0,2.1-0.1,4.2-0.1,6.3l0.1,6.4l-0.2,0.2h-1.3l-0.2-0.2l-0.2-1.7c-0.2-1.3-0.3-2.1-0.4-2.4c-0.1-0.3-0.3-0.5-0.5-0.7
			c-0.3-0.2-1-0.3-2.1-0.5c-1.1-0.1-2.7-0.2-4.7-0.2c-1.1,0-2.8,0-5.1,0.1c-0.1,1.6-0.1,4.3-0.1,8c0,4,0,6.9,0.1,8.8h5.3
			c4.6,0,7.5-0.1,8.7-0.2s2.3-0.4,3.3-0.8c0.2-0.4,0.5-1.5,0.8-3c0.4-1.6,0.6-2.6,0.7-3l0.3-0.2h1.4l0.2,0.2
			c-0.2,0.8-0.3,2.2-0.5,4.3c-0.2,2-0.2,3.8-0.2,5.2l-0.2,0.2c-3.6-0.1-8.4-0.2-14.3-0.2l-7.8-0.1c-1.8,0-3.7,0.1-5.7,0.2l-0.2-0.2
			V196l0.2-0.3c1.1-0.6,1.8-0.9,1.9-1.1c0.2-0.1,0.3-1.8,0.4-5c0.1-3.2,0.2-5.6,0.2-7.3v-10.5v-6.5c0-1.4,0-2.6-0.1-3.4
			c0-0.9-0.1-1.5-0.2-1.9c-0.1-0.4-0.2-0.6-0.3-0.8c-0.1-0.2-0.3-0.3-0.6-0.4s-0.7-0.2-1.4-0.3l-2.2-0.2l-0.2-0.2V157H539.1z"/>
	</g>
	<g>
		<defs>
			<rect id="SVGID_00000116229145663388783200000003369019683644289411_" x="-113.8" y="-250.1" width="2400" height="1000"/>
		</defs>
		<clipPath id="SVGID_00000080895745507116374040000001857563834738802340_">
			<use xlink:href="#SVGID_00000116229145663388783200000003369019683644289411_"  style="overflow:visible;"/>
		</clipPath>
		<path style="clip-path:url(#SVGID_00000080895745507116374040000001857563834738802340_);fill:#FFFFFF;" d="M532.4,267.6l-0.3-0.3
			V266l0.3-0.2c1.2,0,2.1-0.1,2.8-0.2c0.7-0.1,1.1-0.3,1.3-0.6s0.3-0.7,0.4-1.3c0.1-0.6,0.1-1.9,0.2-4c0.1-2.1,0.1-3.6,0.1-4.5
			v-23.1c0-1-0.2-1.7-0.5-2.2c-0.4-0.5-0.8-0.8-1.4-0.9c-0.6-0.1-1.6-0.2-3.1-0.2l-0.2-0.2v-1.3l0.2-0.3c2.6,0.1,4.4,0.1,5.2,0.1
			c1.9,0,3.5,0,4.7-0.1l9.1,11.9l13.4,16.8c1.6,2,3.3,4,4.9,5.8v-22.1c0-0.7,0-2.1-0.1-4.4c-0.1-2.2-0.1-3.7-0.2-4.3
			c-0.1-0.6-0.3-1-0.5-1.2s-0.7-0.4-1.3-0.5c-0.7-0.1-1.5-0.2-2.7-0.2l-0.2-0.2v-1.3l0.2-0.3c1.5,0.1,3.7,0.1,6.6,0.1
			c2.6,0,4.5,0,5.7-0.1l0.3,0.3v1.3l-0.2,0.2c-1.3,0-2.2,0.1-2.9,0.2s-1.1,0.3-1.3,0.6c-0.2,0.3-0.3,0.7-0.4,1.3
			c-0.1,0.6-0.1,1.9-0.2,3.9c-0.1,2.1-0.1,3.6-0.1,4.5v13.6v7.9c0,2.6,0.1,5.2,0.1,7.7c-1-0.3-2.6-0.7-4.9-1.2l-2-2.4l-6.1-7.4
			l-19.4-24.2v21.9c0,0.9,0,2.4,0.1,4.7c0.1,2.2,0.1,3.6,0.2,4.1c0.1,0.5,0.2,0.8,0.4,1s0.5,0.3,1,0.5s1.5,0.2,3.1,0.3l0.2,0.2v1.3
			l-0.2,0.2c-1-0.1-2.6-0.2-4.8-0.2C537,267.4,534.6,267.5,532.4,267.6"/>
	</g>
	<g>
		<defs>
			<rect id="SVGID_00000023987039504123949110000000908179819138479269_" x="-113.8" y="-250.1" width="2400" height="1000"/>
		</defs>
		<clipPath id="SVGID_00000056428333451842773040000014190267259728110243_">
			<use xlink:href="#SVGID_00000023987039504123949110000000908179819138479269_"  style="overflow:visible;"/>
		</clipPath>
		<path style="clip-path:url(#SVGID_00000056428333451842773040000014190267259728110243_);fill:#FFFFFF;" d="M536.4,337.6v-1.4
			l6.9-8.5l16.3-21c2.5-3.2,4.1-5.4,5-6.8h-1.2h-4.6c-4,0-7.3,0.1-9.8,0.2c-2.5,0.1-4.1,0.3-4.9,0.4c-0.8,0.1-1.3,0.3-1.5,0.6
			c-0.2,0.2-0.3,0.8-0.4,1.7l-0.4,3.8l-0.3,0.3h-1.3l-0.3-0.3c0.1-1.4,0.1-2.6,0.1-3.5c0-2.3,0-4.2-0.1-5.5l0.3-0.3
			c6.8,0.2,11.6,0.2,14.3,0.2c4.5,0,10.4-0.1,17.7-0.2l0.3,0.3v1.5c-2.1,2.5-3.6,4.2-4.4,5.3l-23.8,30.7l11.6,0.2
			c2.3,0,4.6-0.1,7-0.2c2.3-0.1,3.9-0.2,4.6-0.3c0.7-0.1,1.3-0.3,1.5-0.5c0.3-0.2,0.5-0.4,0.6-0.7c0.1-0.2,0.2-0.9,0.5-2l0.6-3.8
			l0.3-0.2h1.3l0.2,0.2c-0.1,1.2-0.3,4.5-0.4,9.9l-0.3,0.2c-8-0.2-14.4-0.2-19-0.2c-3.3,0-8.6,0.1-16.1,0.2L536.4,337.6z"/>
	</g>
	<g>
		<defs>
			<rect id="SVGID_00000022559184214525432380000017850401200370981773_" x="-113.8" y="-250.1" width="2400" height="1000"/>
		</defs>
		<clipPath id="SVGID_00000057114366895575492240000008841001003875295128_">
			<use xlink:href="#SVGID_00000022559184214525432380000017850401200370981773_"  style="overflow:visible;"/>
		</clipPath>
		<path style="clip-path:url(#SVGID_00000057114366895575492240000008841001003875295128_);fill:#FFFFFF;" d="M546.7,367.5l3.6,0.1
			c2.3,0.1,3.9,0.1,4.6,0.1c0.6,0,3.4-0.1,8.2-0.2l0.2,0.2v1.4l-0.2,0.2c-1.3,0-2.3,0.1-3,0.2c-0.7,0.1-1.2,0.2-1.6,0.4
			c-0.3,0.2-0.5,0.7-0.6,1.5s-0.2,1.8-0.2,3.2l-0.1,6.6v13.2v5.6c0,2.2,0.1,3.5,0.2,4.2c0.1,0.6,0.2,1,0.4,1.3
			c0.2,0.2,0.5,0.4,1,0.5s1.8,0.3,3.8,0.3l0.2,0.2v1.4l-0.2,0.2c-0.1,0-1.8-0.1-5-0.2c-1.4,0-2.4-0.1-3.2-0.1
			c-0.6,0-3.3,0.1-8.2,0.2l-0.2-0.2v-1.4l0.2-0.2c1.8-0.1,3-0.2,3.5-0.3c0.6-0.1,1-0.3,1.2-0.4c0.2-0.2,0.4-0.6,0.5-1.2
			c0.1-0.6,0.2-1.9,0.2-3.9v-6v-13.2l-0.1-5.6c0-2.2-0.1-3.6-0.2-4.2c-0.1-0.6-0.2-1-0.4-1.3c-0.2-0.2-0.5-0.4-1-0.5
			s-1.8-0.2-3.8-0.3l-0.2-0.2v-1.4L546.7,367.5z"/>
	</g>
	<g>
		<defs>
			<rect id="SVGID_00000183242347760786975860000004095824569186573186_" x="-113.8" y="-250.1" width="2400" height="1000"/>
		</defs>
		<clipPath id="SVGID_00000036221730806748180850000014459387172466442943_">
			<use xlink:href="#SVGID_00000183242347760786975860000004095824569186573186_"  style="overflow:visible;"/>
		</clipPath>
		<path style="clip-path:url(#SVGID_00000036221730806748180850000014459387172466442943_);fill:#FFFFFF;" d="M533.4,478.4l-0.3-0.2
			v-1.5l0.3-0.2c1.4,0,2.3-0.1,2.7-0.2c0.4-0.1,0.8-0.4,1.1-0.7c0.3-0.4,0.9-1.6,1.9-3.6l3-6.5l7.8-17.6c1.5-3.4,2.9-6.9,4.4-10.3
			h1.9l12.2,28.7l1.6,3.8c0.5,1.1,1,2.3,1.6,3.5c0.6,1.3,1,2,1.3,2.3c0.2,0.2,0.5,0.4,0.9,0.5s1.1,0.2,2.4,0.2l0.2,0.2v1.5l-0.2,0.2
			c-2-0.2-3.8-0.3-5.5-0.3c-3.2,0.1-6.3,0.2-9.5,0.3l-0.2-0.2v-1.5l0.2-0.2c2.1,0,3.5-0.1,4-0.3c0.5-0.1,0.8-0.5,0.8-1
			c0-0.4-0.1-1-0.4-1.7l-3.5-8.7h-16.5l-3.1,7.3c-0.6,1.3-0.8,2.3-0.8,2.9c0,0.5,0.3,0.8,0.8,1.1c0.5,0.2,1.8,0.4,3.9,0.4l0.3,0.2
			v1.5l-0.2,0.2c-2.5-0.2-4.6-0.2-6.5-0.2C537.6,478.1,535.5,478.2,533.4,478.4 M546.4,462.3h14.5l-7.2-17.2L546.4,462.3z"/>
	</g>
	<g>
		<defs>
			<rect id="SVGID_00000003094015922236667990000015683045483417162668_" x="-113.8" y="-250.1" width="2400" height="1000"/>
		</defs>
		<clipPath id="SVGID_00000161609470536528576700000000512947015513075085_">
			<use xlink:href="#SVGID_00000003094015922236667990000015683045483417162668_"  style="overflow:visible;"/>
		</clipPath>
		
			<rect x="516.4" y="-0.1" style="clip-path:url(#SVGID_00000161609470536528576700000000512947015513075085_);fill:#009245;" width="4.6" height="498.8"/>
	</g>
	<g>
		<defs>
			<rect id="SVGID_00000111869738585815474280000009676263962713786499_" x="-113.8" y="-250.1" width="2400" height="1000"/>
		</defs>
		<clipPath id="SVGID_00000113332567159884423650000003846551683188658334_">
			<use xlink:href="#SVGID_00000111869738585815474280000009676263962713786499_"  style="overflow:visible;"/>
		</clipPath>
		
			<rect x="589.6" y="0.6" style="clip-path:url(#SVGID_00000113332567159884423650000003846551683188658334_);fill:#C1272D;" width="4.6" height="498.8"/>
	</g>
</g>
<g>
	<g>
		<g>
			<g>
				<path class="st13" d="M112.8,93.2l3.5-1.6l0.7,1.6l0,0l5.6,12.3l-2.2,1.9c-2.9,2.5-5.7,5.2-8.5,7.9c-1.3,1.3-2.6,2.7-3.9,4.2
					c-0.5,0.6-1.1,1.2-1.6,1.8l-2.9-2.5l0,0l0,0l0,0l0.9-6.6l0,0c0.7-0.7,1.4-1.4,2.1-2.2c0.9-0.9,1.8-1.8,2.7-2.7
					c1.3-1.3,2.7-2.6,4-3.8l-0.9-2l-1.8-3.9L112.8,93.2z"/>
			</g>
		</g>
		<g>
			<g>
				<path class="st13" d="M66,178.6l-3.2-1.8c0,0.1-0.1,0.2-0.1,0.2c-0.7,1.2-1.3,2.2-1.7,3.1c-0.1,0.2-0.2,0.3-0.2,0.4l-1.6,2.9
					l0.1,0.1l4.2,2.4l1.6,0.9c-1.2,5.6-2,10.9-2.5,16l-11.7,2.4l-3.8,0.8l0,0l0,0l-0.1,3c0,1-0.1,2.7-0.1,4.9c0,5.4,0,13,0.1,15.4
					l0.1,3l15.5,3.2c0.5,5,1.4,10.3,2.5,16l-13.8,7.9l0.9,2.9c0.5,1.6,1.7,5.5,3,9.5c0.2,0.8,0.5,1.5,0.7,2.3l0.6,1.7l0.6-0.2l3.1-1
					l2.2-5.3c0,0,0-0.1,0.1-0.1c-0.4-1.3-0.8-2.6-1.2-3.9l0,0c-0.2-0.8-0.5-1.5-0.7-2.2l2.4-1.4l4.7-2.7l0,0l5.2-8.2l0,0
					c0-0.1,0-0.1,0-0.2c-0.2-1.2-0.5-2.4-0.7-3.6c-1-5.4-1.7-10.3-2.1-15l-0.2-2.9L54.7,226c0-3.8,0-9.9,0-13.7l15.2-3.1l0.2-2.9
					c0.5-6.5,1.6-13.3,3.2-20.7l0.6-2.8l-3.6-2l-3.2-1.8L66,178.6z"/>
			</g>
		</g>
		<g>
			<g>
				<path class="st13" d="M378,274.6l-2.4-0.8l-2.3-5.3c0.2-0.7,0.4-1.3,0.6-2c0.1-0.4,0.2-0.8,0.4-1.1c0.2-0.8,0.5-1.5,0.6-2.1
					l-8.5-4.9l-2.5-1.4l2.3-4.7l0.5,0.1l1.1-2l2,1.1l13.9,8l-0.6,2.8c-0.3,1.5-1.2,4.3-1.8,6.2c0,0.1-0.1,0.3-0.1,0.4
					c-0.4,1.1-0.7,2.2-1.1,3.3L378,274.6z"/>
			</g>
		</g>
		<g>
			<path class="st13" d="M217.7,390.1c-4.2,0-8.4,0-10.2-0.1l-3-0.1l-3.2-15.5c-5.1-0.5-10.5-1.4-16-2.5l-7.7,13.8l-2.9-0.8
				c-3.3-1-16.1-5.1-19.4-6.3l-2.8-1l1.8-15.7c-4.9-2.2-9.8-4.7-14.6-7.4l-11.6,10.6l-2.5-1.6c-2.6-1.7-13.7-9.7-16.5-12l-2.3-1.9
				l6.5-14.4c-4.3-3.9-8.1-7.7-11.5-11.4l-14.3,6.5l-1.9-2.3c-0.5-0.6-1.2-1.5-2.1-2.7l-0.7-1c-1.1-1.6-2.5-3.4-3.8-5.2l6.2-4.5
				c1.3,1.8,2.7,3.7,3.8,5.2l0.7,1c0,0,0,0.1,0.1,0.1l13.9-6.3l1.9,2.1c4.3,4.8,9.2,9.7,14.9,14.8l2.1,1.9l-6.3,14.1
				c3.1,2.3,7.9,5.8,11.1,8l11.3-10.4l2.5,1.5c6,3.6,12.4,6.8,18.7,9.5l2.7,1.1l-1.7,15.4c3.7,1.2,9.4,3.1,13.1,4.2l7.5-13.4
				l2.8,0.6c7.2,1.6,14.2,2.7,20.7,3.2l2.9,0.2l3.1,15.2c3.9,0,9.9,0,13.7,0l3-15l2.8-0.3c7.6-0.8,14.4-1.8,20.7-3.3l2.8-0.7
				l7.6,13.4c3.7-1.2,9.5-3,13.1-4.2l-1.7-15.3l2.6-1.1c6.5-2.8,12.8-6.1,18.6-9.6l2.5-1.5l11.5,10.4c3.1-2.2,7.9-5.7,11-8l-6.5-14
				l2.2-1.9c5.8-5,10.6-9.9,14.8-14.8l1.9-2.2l14.2,6.4c1.8-2.4,4.3-5.9,6.4-8.9c0.7-1,1.3-1.9,1.9-2.6l6.3,4.4
				c-0.6,0.8-1.2,1.7-1.9,2.7c-2.5,3.6-6.9,9.6-8.5,11.6l-1.9,2.3l-14.4-6.5c-3.4,3.9-7.3,7.7-11.6,11.5l6.6,14.3l-2.4,1.9
				c-2.5,1.9-13.5,10.1-16.5,11.9l-2.5,1.5l-11.6-10.6c-4.6,2.7-9.5,5.2-14.5,7.4l1.8,15.6l-2.8,1.1c-3.2,1.2-15.9,5.3-19.4,6.3
				l-2.9,0.8l-7.8-13.7c-5,1.1-10.3,1.9-16,2.6l-3.1,15.4l-3,0.1C226.1,390.1,221.9,390.1,217.7,390.1z"/>
		</g>
		<g>
			<g>
				<path class="st13" d="M208.2,48.7C208.2,48.7,208.1,48.7,208.2,48.7L208.2,48.7z M341.4,119.9l-3,1.4l-6.7,3.1l-1.9-2.2
					c-4.6-5.3-9.5-10.1-14.9-14.9l-2.2-1.9l6.4-14c-2-1.5-4.8-3.6-7.4-5.5c-1.4-1-2.7-1.9-3.7-2.6l-11.3,10.5l-2.5-1.5
					c-6.1-3.6-12.3-6.8-18.7-9.5l-2.7-1.1l1.8-15.3c-3.6-1.3-9.4-3.1-13.1-4.2L254,75.7l-2.8-0.7c-7.1-1.7-13.8-2.7-20.6-3.3
					l-2.9-0.2l-3.1-15.1c-3.8-0.1-9.8-0.1-13.7,0l-3,15.1l-2.9,0.2c-7.5,0.6-14.2,1.7-20.6,3.3l-2.8,0.7l-7.8-13.5
					c-3.6,1.1-9.4,3-13,4.2l1.7,15.3l-2.7,1.1c-6.3,2.6-12.5,5.8-18.6,9.5l-2.4,1.5l-11.5-10.4c-0.6,0.4-1.2,0.9-1.8,1.3
					c-2,1.4-4.2,3-6.3,4.6l0,0c-0.3,0.2-0.6,0.4-0.8,0.6l-2.3-3.1l3.4-7.3c0.5-0.4,1-0.7,1.5-1.1c2.2-1.6,3.7-2.6,4.5-3.2l1-0.6l0,0
					l1.5-1l11.7,10.6c4.7-2.8,9.6-5.2,14.5-7.4l-1.8-15.5l2.7-1.1c3.4-1.4,16.2-5.5,19.4-6.4l2.8-0.7l7.9,13.6
					c5.1-1.1,10.4-2,16.1-2.6l3-15.2l2.8-0.3c0.2,0,0.3,0,0.5,0h0.3h0.1c4.1-0.2,16.4-0.2,19.7,0.1l2.9,0.2l3.2,15.3
					c5.3,0.5,10.6,1.4,16.1,2.6l7.6-13.6l2.8,0.7c3.4,0.9,16.4,5,19.7,6.4l2.7,1.1l-1.8,15.5c4.9,2.2,9.8,4.7,14.5,7.4l11.4-10.6
					l0.2,0.1l0,0l2.2,1.3c0.3,0.2,0.6,0.4,1,0.6c1.7,1.1,4.1,2.8,5.6,3.9c0,0,0,0,0.1,0c1.6,1.1,3.1,2.3,4.6,3.4l0,0
					c0.2,0.2,0.5,0.3,0.7,0.5c2.1,1.6,3.9,2.9,4.8,3.6l2.3,1.9l-1.8,3.9l-4.7,10.4c4.1,3.7,7.9,7.5,11.5,11.5l4.8-2.2l1.5-0.7
					l1.6,3.5L341.4,119.9z"/>
			</g>
		</g>
		<g>
			<g>
				<path class="st13" d="M365.5,229.8L365.5,229.8v-0.5l3-0.5l0,0h0.2l11.9-2.5c0.1-3.8,0.1-9.7,0-13.7l-15.2-3l-0.2-2.9
					c-0.6-7.5-1.7-14.2-3.3-20.6l-0.7-2.8l6-3.4l5.5-3.2l2.8,0.3l1.1,1.9l-0.9,4.9l0,0l-3.9,2.2l-1.8,1c1.1,5.1,2,10.4,2.6,16.1
					l8,1.6l4.8,1c1,1.6,2,3.2,2.8,4.6c0,0.3,0,0.6,0,1c0,1.6,0.1,3.8,0.1,6.2c0,4.8,0,10.3-0.2,12.3l-0.2,2.9l-15.4,3.2
					c-0.3,3-0.7,6.2-1.3,9.5l-0.5-0.1l-3.3-0.6L365.5,229.8z"/>
			</g>
		</g>
		<g>
			<g>
				<path class="st13" d="M343.9,178.3l-94.7-2.1l-31.6-89.5l-31.3,89.4l-94.8,2.3l75.4,57.4l-27.1,91l77.9-53.9l78.1,53.9
					L268.7,236L343.9,178.3z M217.6,258.7l-57.2,39.6l19.9-66.9L125,189.3l69.6-1.7l23-65.7l23.2,65.8l69.5,1.6L255,231.7l19.9,66.6
					L217.6,258.7z"/>
			</g>
		</g>
		<g>
			<path class="st13" d="M250.6,182.8l-6.5-0.2l-1.6-4.4l-2.3-81.1l2.9,0.6c35.3,7.4,65.6,29.7,83.1,61.1l1.4,2.6L250.6,182.8z
				 M247.5,178.1l2.6,0.1l70.7-19.7c-16.5-28-43.8-48.1-75.6-55.6l2.1,74.5L247.5,178.1z"/>
		</g>
		<g>
			<path class="st13" d="M185.2,182.7L108.4,160l1.5-2.5c18-31.2,48.5-53.1,83.6-60l2.9-0.6l-3.5,81l-1.6,4.6L185.2,182.7z
				 M115.4,157.2l70.4,20.8l2.2-0.1l0.3-1l3.2-74.4C159.8,109.6,132.3,129.4,115.4,157.2z"/>
		</g>
		<g>
			<path class="st13" d="M127.5,305l-2-2.2c-9.7-10.8-17.4-23.1-22.9-36.6l-0.3-0.7l0.2-0.7c2.4-10,3.9-22.3,3.3-26.1
				c-0.2-1.1-0.4-1.8-0.6-2.2l0,0l-7.9,6l6-12c0.3-0.7,0.4-1.3,0.4-1.6c-1.4,0-4.1,0.4-6.7,1.6l-3.1,1.5l-0.3-3.4
				c-0.6-8-0.4-16.1,0.5-24.1l0.3-2.9l77.7,28.9l2.7,2l-1.6,5.3L127.5,305z M107.1,265.2c4.9,11.8,11.5,22.6,19.8,32.3l42.2-61.5
				l0.4-1.4l-71.1-26.4c-0.5,5.7-0.7,11.5-0.4,17.2c3.3-1,7.1-1.3,8.7-0.1l0,0c1.7,1.4,2,3.7,0.8,7c1.6,1,2.2,3.3,2.7,5.8
				C111.1,242.9,109.3,255.7,107.1,265.2z"/>
		</g>
		<g>
			<path class="st13" d="M217.5,343.7c-17.8,0-35.5-3.8-52-11.4l-2.7-1.2l51.6-65l3.2-2.2l3.1,2.1l0.2,0.3l50.3,65.3l-2.7,1.2
				C252.3,340,234.9,343.7,217.5,343.7z M170.1,329.3c29.9,12.9,63.8,13,93.9,0.4l-46.4-60.2L170.1,329.3z"/>
		</g>
		<g>
			<path class="st13" d="M306.9,306L262,238.4l-1.6-5.5l2.5-2l0.3-0.1l77.7-27.7l0.3,2.9c1.2,11.3,0.9,22.7-1,33.9l-0.4,2.2
				l-2.2-0.3c-0.9-0.1-1.6,0-2,0.4s-0.6,1.3-0.5,2.4c0.2,1.5,0.9,3.5,2.2,6.2l0.4,0.8l-0.2,0.8c-5.2,19.1-15.1,36.9-28.6,51.5
				L306.9,306z M266.3,236.4l41.2,62.1c11.8-13.4,20.5-29.4,25.3-46.6c-1.3-2.7-2-4.9-2.2-6.8c-0.4-3.3,0.8-5.2,1.9-6.2
				c0.9-0.9,2.2-1.5,3.6-1.7c1.4-9.2,1.7-18.5,0.9-27.8l-71.2,25.4L266.3,236.4z"/>
		</g>
		<g>
			<path class="st14" d="M440.4,253.5c5.1-7.3,5.8-13.8,1.9-19.6c1.4-9.6,0.4-15.6-2.9-18c-3.5-2.5-7.9-1.7-13,2.4
				c-3-1.6-7.1-0.1-12.2,4.5c0.9-2.3,1-4.3,0.3-6.1c4.6-2.1,7.6-4.5,8.9-7c1.3-2.6,2-6.6,2-12.1c0.5-3.4,3.6-9.4,9.3-18
				c3.9-8.7,1.2-11.7-8.2-9c5.1-4.6,7.7-8.6,7.7-11.9c0.4-3.2-1-7.3-4-12.2c-1.2-2.8-3.1-3.4-5.6-1.6c0.9-1.8,1.4-3.9,1.4-6.4
				c0.1-2.5-1.5-7.7-4.9-15.6c-0.5-10.4-3-14.8-7.4-13c-0.7-5.5-2.5-10.7-5.3-15.6c-4.2-6.4-7.6-8.1-10.1-5
				c-6.9-10.3-13.4-14.5-19.4-12.7c-0.2-4.4-1.7-8.4-4.5-11.9c-1.6-6.7-3.5-11.4-5.8-14.1c-3.2-1.2-5.4,0.5-6.6,5.3
				c-0.5-3.9-1.8-8-3.7-12.2c-2-4.2-5-6.5-9.3-6.6c-1.6-0.2-3.1,0.1-4.5,0.8c-2.8-1.8-5.2-2.6-7.2-2.6c-6-6.4-11.5-6.9-16.4-1.6
				l-0.8-5.6c-1.8-6.5-5.3-8-10.6-4.2c-8.7-9-16.1-14.9-22.3-17.8c-5.1-1.8-8.5-1.3-10.1,1.3c-2.7-2.7-5.5-4.3-8.5-5
				s-5.8-1.5-8.5-2.4c-4.1-0.2-5.8,2-5.3,6.6c-6.4,0.4-10.7,1.5-13.1,3.3c-2.4,1.9-3,4.5-1.8,7.8c1.1,3.4,3.8,6.1,7.8,8.2
				c-1.1,1.2-1.5,3.2-1.3,5.8c0.2,2.6,3,4.9,8.5,6.6c4.1,1.1,8.1,1.1,11.9,0.3c-0.9,4.1,0.5,6.6,4.2,7.7c5.1,5.3,11.5,6.6,19.1,4
				l-0.8,5l10.3,4.2c0.4,5,2.7,8.5,6.9,10.6l4.1,1.7c-0.9,0.1-4.7,3.2-4.7,3.8c-0.6,0.7-2,3.4-0.6,5.3c0.5,0.7,1.5,1.3,3,1.6
				c1.9,0.2,3.8,0.4,5.7,0.6c2.5,0.2,5,0.3,7.5,0.3c0.1,1.3,0.9,3.4,1.7,4.9c0.8,1.6,2.6,3.9,5.7,7.3c2.9,3.1,8.3,6.2,12.9,8.1
				c-0.3,0.3-1.6,3.8-2.7,6.9c-0.7,1.9-1.2,4.4-1.2,6.9s0.5,5,1.8,6.7c-0.6-0.3-3.1,1.5-4,2.9c-3.3,5.1,3.8,12.4,5,14.9
				c-0.6-0.1-2.5,0.9-3.6,1.7c-2.5,1.8-1.6,10.5,5.4,12.1c1.8,0.8,9.8,5.5,13.8,9.6c0.8,0.8,3,5,6.3,9.3c1.7,2.2,3.5,6,7.7,6.1
				c0.2,0.6,0.4,1.2,0.6,1.7c3,9.2,7.4,18.1,12.6,26.8c0.4,0.7,0.8,1.4,1.3,2.2c1,1.7,2.1,3.4,3.2,5.1c0,0.4,6.9,7.7,9.4,14.4
				c-0.8,4.3-0.7,8-0.8,8.2c-0.9,8.5-2.4,16.4-4.6,23.5c-7.5-3.6-8.8,1.3-9.9,6.2c-0.1-0.2-3.5-0.6-4,1c0.1-0.7-0.1-1.3-0.5-1.9
				c-1.3-2-4.5-3.2-6.2-2c-0.1,0-2.4,1.7-3.9,2.8c-0.5,0.4-0.9-2.4-1.1-4.5c-0.1-1.4-0.4-6.4,0.6-8.3c0.1-0.1,0.3-0.5,0.7-1
				c0.6-0.9,1.6-2.2,2.3-3.4c1.7-3.1,1.2-11.2-0.4-18.8c-0.5-2.3-1.1-4.5-1.7-6.5c-0.8-2.6-2.6-3.9-4.1-4.5c-0.6-0.2-4.6,0-5.3,3
				c-0.2-1.7-3-2.8-5.1-3.2c-5.8-1.4-12,9.8-11.3,20.1c-1.3-1-2.7-1.6-4-1.8c-3-0.4-5.6,1.3-5.1,5.3c0.2,2,1.1,4.4,2.4,6.9
				c3.8,7.8,10.9,17.2,11.1,22.1c-3.6-3.2-11.9-3.3-11.9,4.6c0,2.4,2,6.5,2.8,8.2c-1.7,8.5,8.1,14.6,16,22.6
				c-0.1,3.3,0.8,3.8,1.9,4.8c0.1,0.2,0.3,0.3,0.4,0.5c-1.4,2.2-10.3,16.2-10.5,16.6c-0.4,0.2-6.6-3.3-8.6-1.5
				c-2.2,1.9-3.9,4.5-4.9,6.1l1.1,9.8c0.7,4.1-1.5,8.6-6.5,13.7c-5,5-8.4,9.7-9.9,13.9c-0.9,3.2-4.3,6.6-10.3,10.3
				c-0.4-1.1-1.8-2.7-4.2-5c-0.4-0.7-1.1-1-2.1-0.8c-6,1.6-18.1,6.9-36.3,15.9c-3.2,1.6-7.7,6.3-13.5,14.1h-10.3
				c-2.8-1.6-5.8-3.8-9-6.6c-2.3-1.8-6.4-1.2-12.2,1.9c-5.5-1.2-11-0.1-16.4,3.4c-3.4,1.2-5.8,1.5-7.4,0.8l-13-14.1
				c-26.9-11.3-41.6-16.4-44-15.1c-2.6,1.6-4.6,3.9-5.8,6.9c-2.6-1.2-6.6-4.6-11.9-10.1l-8.2-9.3c-6-6.7-8.5-13.1-7.4-19.1l1.3-8.2
				c0.2-1.2,0-2.2-0.5-2.9c-2-2.1-5.4-3.4-7.2-3.8c-0.4-0.2-1.5-0.6-2.8,4.2c0.3,1.2-8.5-11.6-8.6-12.1c0.2-0.2,0.4-0.4,0.6-0.7
				c2.4-3.1,6.2-10.1,8.4-18.2c2.7-9.9,4-20.9,3.9-25.1c0.4-0.8,0.5-1,1-1.5c1.6-1.2,3.4-6.4,4.8-12.8c2.4-10,4-22.7,3.3-27
				c-0.5-2.8-1.2-4.3-2-4.4s-1.6,0.1-2.3,0.7l1.6-3.2c0.9-2.3,0.9-3.8,0-4.5c-0.5-0.6-5.2-0.5-9.4,1.6c0,0-0.1,0-0.1,0.1
				c-0.5-4.6-2.7-11.4-3.8-13.8c-0.4-0.8-1.5,0.1-1.6,0.1c-7.4,4.5-10.7,14.3-13.4,26.6l-2.1,2c-2.1,2.6-4.1,5.4-6,8.2
				c-0.8,1.2-1.6,2.5-2.4,3.8c-3,4.9-5.6,10.1-7.8,15.5c-1.8,4.5-3.2,9.1-4.2,14c-1.6-2.5-2.5-6.1-3.9-10.7
				c-1.4-4.7-1.9-7.8-1.3-9.4c1.4-2.5,1-4.8-1.3-6.9c-1.8-1.8-4.1-9.7-6.9-23.9c0.2-3.7,1.7-9.3,4.5-16.7
				c2.8-7.4,7.6-16.8,13.8-27.4c0.3-0.5,3.1-3.4,3.9-3.6c1-0.2,2.3-1,3.9-2.3c12.2-9.9,40.1-47.8,42-71c0.2-2.2,0.1-4.3-0.2-6.2
				c0.4-0.1,2.7-3.9,5.6-9c2.7-4.8,6-10.7,8.6-15.9c2.4-4.8,4.3-9,4.8-10.9l2.2-0.7l2.7-1.1c8.8-3.5,16.4-7.3,23.2-10.5l10.7-5.7
				c7.4-3.2,14.5-7.5,21.2-13c7.1-6.2,10.9-12.6,11.4-19.4c-1.2-1.6-4.9-2.5-10.9-2.6c3.2-3.5,4.9-7.3,5-11.1
				c-2.3-3.2-9.2-3.7-20.7-1.6c-12,3-22.6,7.7-31.6,14.1c-9.2,5.8-17.5,13-24.8,21.4s-13.2,17.1-17.6,26.1l5.3-12.2
				c2.6-5.8,5.5-12.6,8.5-20.4c0.9-3.7,0.9-6.4,0.1-8c-0.8-1.6-2.5-2-5.2-1.3c-2.8,0.7-8,4.4-15.4,11.1
				c-8.1,8.3-15.3,18.6-21.6,30.8c-6.3,12.2-10.6,21.8-12.9,28.9c1.2-8,1.1-14.8-0.5-20.4c-0.9-2.3-2.8-2.9-5.8-1.9
				c-2.8,2-5.6,4.9-8.5,8.8c-2.8,3.9-5.6,7.7-8.2,11.3c-2.6,3.6-5.8,8.8-9.4,15.5c-3.6,6.7-6.8,14.7-9.5,23.9
				c-2.7,9.2-4.8,21.4-6.2,36.6c-0.9,9.7-0.2,20.2,2.1,31.3c2.8,11.1,5.7,19.4,8.5,24.7c2.8,5.3,5.5,8.4,8,9.3
				c1.6,3.9,3.7,10.3,6.4,19.4c1.4,4.2,2,7.5,1.8,9.7s0.4,3.8,1.7,4.6c1.3,0.9,2.4,2.6,3.3,5.3c2.3,8.5,5.4,16.4,9.3,23.6
				c-0.7,3.9-1.1,7.8-1.1,11.7c-8.5-24.6-15.4-43.2-20.7-55.7c-10.3-22.8-18.3-33.3-24.1-31.3c-2.8,1.1-4.6,3.6-5.3,7.7
				c-0.2,1.6-0.2,5.7,0,12.2s0.8,13.4,1.9,20.7c5.3,23.5,14.4,43.2,27.3,58.9l19.4,22.8c3.9,3.9,7.6,6.8,11.1,8.6
				c3.5,1.9,6.8,2.3,9.8,1.5c4.4,7.1,10,14.5,16.7,22.3c4.2,6.5,8.7,9.6,13.3,9.3c1.9,4.2,4.9,6.4,8.8,6.4l4-0.5
				c5.5,5.3,10.4,9.5,14.9,12.7l-5,14.3c-8.9,1.2-17,2-24.4,2.1c-6.9-5-16.6-11.7-29.2-20.2l-0.8-15.9c-0.4-5.5,0.6-10.1,2.9-13.8
				c0.5-3-1.2-5.7-5-8.2c-5.8-2.8-10-4-12.5-3.4c-1.1,0.4-1.7,1.3-1.8,2.9v8.7l-25.2,0.5c-2.3,0-4.2,0.9-5.7,2.6
				c-1.5,1.8-1.5,5.3-0.1,10.6c0.2,1.9,0.1,3.6-0.3,5c-1.2,5.7-4.5,12.6-9.8,20.7c-0.7,1.2-0.4,3.1,0.9,5.6s4.6,6.4,9.9,11.7
				c2.3,2.3,5.8,5.1,10.5,8.5s12.9,8.5,24.8,15.4c14,8.3,27.3,15.2,40.1,20.7c2.7,0.2,20.3-2.2,53.1-7.2l0.3,2.9
				c-9.4,7.1-15.4,10-18,8.8c-3.7,0.4-4.9,3.1-3.4,8.2c1.1,2.3,3,3.9,5.8,4.8l3.4,4l9.8,5.8c3.7,1.1,7.3,1.1,10.6,0
				c3.2-1.2,5.3-4,6.4-8.2l11.7-11.7l7.7-5.9c6-1,9.9-3.2,11.7-6.4c0.4-2.8,1.1-4.6,2.4-5.3l9.3-6.4c0.4-0.9,4.2,0.6,11.4,4.5
				c3.5,0.9,6.6,0.7,9.3-0.5l6.9-4c6.2,1.4,17.1,9.1,32.6,23.1c-0.2,1.6,0.8,3.4,2.9,5.6c1.2,1.6,4.6,2.9,10.1,4l3.7,6.9l3.7,1.3
				c5.5,0.2,10.6-1.8,15.4-5.8l5.8-1.8c3-2.3,4.3-4.6,4-6.9l-2.4-2.4l-5-1.3c-6.4-3-12.8-7.1-19.4-12.2l-4.2-3.2
				c19.3,3.4,43.2,6,71.9,8c3.5,0.7,8.3-1.1,14.2-5.4c5.9-4.3,23.8-17.1,53.7-38.3c4.4-4.8,8-10.3,10.6-16.5c-2.7-2.5-5-6-7-10.6
				s-3.3-8.5-3.8-11.7c-0.7-3-0.8-5.7-0.3-8.1c0.5-2.4-0.3-4.6-2.4-6.8c-0.9-1.2-2.9-2-6.1-2.4c-5.7-0.5-12-0.4-19.1,0.3
				c-3.4-0.4-5.3-1.2-5.8-2.4l0.3-6.4c0.5-2.8-0.3-4.1-2.4-3.7c-7.8,1.9-12.5,3.9-14.1,5.8c-2.3,2.5-2.2,5.1,0.3,8
				c1.9,1.8,2.9,3.8,2.9,6.1c-1,11.7-2,19.6-2.9,23.6c-12.9,10.3-21.7,16.5-26.3,18.8c-3.7,1.2-12,0.7-24.9-1.6
				c-2.8-2.5-4.9-6.7-6.1-12.7c4.4-2.6,9.1-5.8,14.1-9.5c3.4-0.5,6.2-1.2,8.5-2s3.4-3,3.4-6.5c2.3-0.9,4-2.8,5-5.8l15.4-18.6
				c5-4.2,10.3-6.7,16.2-7.4c7.1-0.5,16.3-4.5,27.6-11.9c1.8-1.9,1.8-4.7,0-8.2c3.4-2,8.8-7.4,16.4-16.5c3-4.2,3.7-8.9,2.1-14.1
				c7.1-8.5,11.1-15.2,11.9-20.2c0.7-4.4,0.6-9.2-0.3-14.3c3.4-2.1,5.7-3.9,7-5.4s2-3.6,2-6.2C443.4,257.5,442.4,255.3,440.4,253.5z
				 M301.4,54.3l-9-2.9l0.5-6.1l-5,1.1c-4.8,1.6-9.5,0.2-14.3-4.2c-3.2,0.5-4.5-0.7-4-3.7c1.2-2.6,0.9-4.1-1.1-4.2l-7.7,0.8
				c-4.9-0.7-8.2-2.1-9.8-4.2c-1.1-1.8-0.4-4,2.1-6.6c-4.8-1.9-7.7-4.1-8.9-6.4c-1.1-2.3-0.4-4.2,2.1-5.6c2.6-1.4,7.3-1.7,14.2-0.8
				c-1.6-1.9-2-4-1.3-6.1c0.2-2.1,4.8-1,13.8,3.4l5.3,3.2c1.4-2.7,3.8-3.4,7.2-2.4c4.1,1.9,7.9,4.3,11.4,7s7.5,6.7,11.9,11.8
				c3.7-2.5,6.4-1.9,8,1.6l0.8,6.4c-3.9-3.7-8.7-4-14.3-0.8l-3.7-1.6c-5.1-6.2-8.2-10.9-9.3-14.1c-1.1-4.1-1.6-4.4-1.6-1.1
				c0.2,3.5,2.3,8.1,6.4,13.5c-7.8-2.5-13.5-5.7-17.1-9.6s-6.4-7.2-8.4-9.8c-1.9-3.2-2.7-3.2-2.4,0c2.1,3.9,5,7.5,8.8,10.9
				c-2.8-1.2-5.5-2.5-8-3.7c-6.2-2.6-11.3-4.1-15.4-4.2c-1.9,0-2,0.4-0.3,1.1c6.9,1.8,11.9,3.4,15,4.9s5.2,2.9,6.2,4.1
				c-5,2.1-10.1,3.1-15.4,2.9c-3.4-0.2-4.9-0.1-4.5,0.3s1.4,0.7,3.2,1.1c6.4,0.7,12.8,0,19.4-2.1c4.8,2.5,10.3,4.9,16.7,7.2
				c-3.9,0.9-7.7,2.6-11.4,5.3c-1.4,1.8-0.7,1.8,2.1,0.3c2.8-2.1,7.1-3.4,12.7-4l4.5,1.8c-0.4,4.8,0.8,9.6,3.4,14.6L301.4,54.3z
				 M322.7,79.7c-9.9,0.2-11.9-0.1-12.5-1.6c-0.4-1.2-0.6-2.2,2.9-4.2l1.8-3c-5.8-2.6-11.1-5.7-11.3-12.9l4.8-1.9
				c2.1-2.5,2.2-4.3,0.1-5.6c-2-1.2-3.1-4.5-3.3-9.8c2-4.2,6.7-4.2,14.3,0c3.4-6.5,7.4-8.5,12.2-5.8c-5.1,0-8.1,2.2-9,6.6
				c-0.5,2.8-0.5,6.3,0,10.3c-1.8-2.5-3.9-4.6-6.4-6.4c-4.8-2.5-5.7-2.2-2.6,0.8c3,3,5.6,6.1,8,9.3c-3.9,3.2-8.1,4.6-12.7,4.2
				c-1.6,0.7-1.3,1.1,0.8,1.3c2.1,0.5,4.6,0.4,7.4-0.5c-0.4,2.8,0.6,7.5,1.8,10.4c1.7,2.4,3.9,4.5,6.5,6.5
				C324.2,77.8,323.2,78.5,322.7,79.7z M328.2,84.8c-0.2-2.1,1.7-3.3,5.6-3.6c3.9-0.3,4.5-1.4,1.9-3.3c-5.1-1.8-9.4-4.8-12.7-9
				c-2.3-3-2.3-5.1,0-6.4l4-1.1l1.9-2.4l-2.4-9.3c-0.7-4.8,0.6-8.1,4-10.1c4.8-0.7,9.5,0.7,14.1,4.2c0.2-2.5,1.8-3.2,4.9-2.3
				c3.1,1,6,7.6,8.6,19.8l4.2,1.6c1.4-3.4,2.6-5,3.4-5c1.4,0,2.8,2.9,4.2,8.8c3.5,3.2,5.2,8.4,5,15.6c-2.3,3-3.5,6.7-3.7,11.1
				l-2.1-4.8c-1.2-5.3-1.8-10.9-1.6-16.7c-0.2-2.5-0.4-2.5-0.8,0c-0.5,5.1-0.6,9.5-0.3,13c-4.8-6.2-9.9-11.8-15.4-16.7
				c-1.1-3.9-1.4-8.3-1.1-13.3c-0.5-4.2-1-5.2-1.3-2.9c-0.4,5.3-0.2,10.3,0.5,14.9c-4.1-4.1-8.9-10-14.3-17.8c-1.4-2.5-2-3-1.9-1.6
				c3.4,6.4,6.9,11.7,10.6,15.9c3.7,4.2,6.7,7.6,9,10.1c-4.6-1.4-8.6-2.3-11.9-2.8c-3.4-0.4-6.5-1.4-9.3-2.8
				c-2.6-0.5-2.6,0.1,0.3,1.9c1.6,1,4.8,2,9.7,2.9c4.9,0.9,9.4,2.4,13.7,4.5c2.3,1.4,5.4,5,9.3,10.9l3.2,7.2
				c-5-2.7-10.4-4.5-16.5-5.6c-6-1.1-9.5-2-10.6-2.9c-4.6-1.9-5.1-1.8-1.6,0.5c1.1,1.1,4.8,2.2,11.3,3.6c6.5,1.3,12.7,3.8,18.7,7.6
				l0.5,1.6c-1.2,1.4-1.7,3.4-1.3,5.8l1.9,5.3c-1.6-2-3.8-1.1-6.6,2.6c1.1-2.3,0.8-4.4-0.8-6.4c-2.5-3.7-8.5-7.7-18-11.9l-1.6,2.9
				C335,96.1,330.2,91.5,328.2,84.8z M392.8,217c-1.8-2.7-4.5-6.9-8-12.6s-6-10.3-7.6-13.8s-1.8-7.2-0.8-10.9
				c0.1-0.3,0.2-0.6,0.3-0.9c0.6-2,1.1-3.7,1.5-5.1c0.3-0.9,0.6-1.8,0.8-2.4c0.7-1.9,0.6-2.3-0.3-1.1c-0.4,0.7-0.7,1.3-1.1,2
				c-1.4,2.7-2.4,5.3-3.2,7.9c-0.1,0.4-0.2,0.7-0.3,1l-0.3-0.7l-5-14.4c0.2-2.2,0.8-4.7,1.7-7.4c1.6-4.6,4.2-9.8,7.9-15.7
				c1.8-3.2,1.6-3.4-0.5-0.8c-4.1,5.5-7.1,11.1-9,16.7c-0.5,1.6-1,3.2-1.3,4.8l-2-4.4l-6.3-13.9c-0.2-3.4,1.9-9.7,6.4-19.1
				c2.3-5,1.8-4.8-1.6,0.5c-2.8,5.3-4.9,10.3-6.1,14.9c-0.8-3.2-1.6-6.3-2.3-9.2c-1.1-4-2.1-7.8-3.2-11.2c-0.6-1.8-1.1-3.6-1.6-5.3
				l-1.8-0.5l0.8,2.1l0.3,0.8c0.9,6,2.1,11.4,3.6,16.3c0.7,2.4,1.4,4.6,2.2,6.7c-1.6-1.4-3.2-2.6-4.9-3.8c-2-1.4-4.2-2.6-6.5-3.6
				c-2.3-1.2-2.3-1,0,0.8c2.1,1.2,4,2.5,5.7,3.7c2.4,1.8,4.4,3.5,6,5.3c2.1,5,4.1,9.5,5.8,13.5c-1.8-1.3-4.4-2.8-7.7-4.4
				c-2.4-1.1-5.2-2.3-8.4-3.6c-2.8-0.5-2.8-0.2,0,1.1c3.6,1.5,6.7,3,9.3,4.4c2.9,1.7,5.2,3.3,6.8,4.9c0.7,0.7,1.2,1.4,1.6,2.1
				l5.3,14.1c-1.9,0-4.5-2.9-7.7-8.8c-2.6-4.9-9.3-9.7-19.9-14.3c-2.1-0.9-3.1-2.7-2.9-5.6c0.4-1.9,2.4-2.7,6.1-2.4
				c-1.1-3-2.3-5.4-3.7-7.2l-2.1-3.2c-2.8-5.8-1.2-8.8,5-8.8c-2.3-3.5-3.1-6.3-2.4-8.2c0-0.6,0-1.2,0-1.8c0.1-2.7,1-5.4,2.4-8
				c1.1-2.1,1.9-4.2,2.4-6.4c3.4,1.9,6.4,3.6,9.2,4.9c2.7,1.3,4.2,3.8,4.4,7.3l-1.3,8.2c0.5,1.6,1.9,1.1,4.2-1.6
				c2.3-3.2,4.2-5,5.6-5.6c2,0.9,3.8,2.5,5.6,4.8c1.8,3.4,1.2,9.5-1.8,18.6l-2.9,7.4c6-8,10.9-11.8,14.6-11.4
				c1.2,0.9,1.6,2.7,1.2,5.4c-0.4,2.7-0.4,5.6,0,8.6s-0.6,5.6-3,7.7c-2.5,2.1-4.2,5.6-5,10.3c5.6-4.2,8-3.4,6.9,2.4l-3.2,11.4
				c-0.9,5.5,0,8,2.6,7.7c2.7-0.4,4.3,0,4.9,1.1s0.8,2.9,0.4,5.6c-1.6,3.7-2.3,6.1-2.1,7.3c0.2,1.2,0.7,2.1,1.5,2.9s2.5,0.6,5.2-0.5
				c2.6-1.2,4-0.4,4,2.4c0,2.7,0,5.4,0.1,8s0.9,5.1,2.5,7.6c1.2,1.7,2.7,2.8,4.6,3.4c0.1,0,0.1,0.1,0.2,0.1l2.4-2.9
				c-3.5,0.2-5.2-2.1-4.9-6.9s0.2-8.5-0.1-11.1c-1.4-3.4-2.8-5.2-4.2-5.6c-1.4-0.4-4.7-9.2-9.8-26.5l5.6,0.3
				c4.1,14.9,7.3,22.9,9.8,24s3.6,2.5,3.4,4c-0.2,1.5,0.3,4.7,1.3,9.7c3.2-0.9,5-3.8,5.6-8.8c0.9-4.6-0.4-8.1-4-10.6
				c-3.7-2.1-5.8-4.1-6.4-5.8c-1.1-3,0.1-4.9,3.4-5.6c1.9-1.1-2.7-5.3-14.1-12.7c-5.8-4.1-7.6-7.7-5.3-10.9c0.9-1.6,2.5-1.5,4.9,0.1
				s3.9,2.1,4.6,1.2c1.2-2.5,0.3-4.2-2.9-5.2c-3.2-1-4.7-2.1-4.5-3.3c-0.2-5.5-0.1-9.2,0.3-11.1s0.2-4.2-0.5-6.9
				c-1.9-2.8-5.6-2.6-11.1,0.5c1.2-3,1.5-5.9,0.9-8.8c-0.6-2.8-2-5.6-4.1-8.2l-2.6-8.2c-0.7-2.8,0.9-4.8,4.8-5.8
				c-1.2-5.5-1.2-9.4,0-11.7c1.2-2.5,2.1-4.5,2.6-6.1s2.1-1.8,4.8-0.5c2.7,1.2,6.9,5.9,12.7,14.1c2.8-3.2,5.6-2,8.2,3.4
				c3.2,5,4.4,10.9,3.7,17.8c6.5-3.5,8.8-1.2,6.9,7.2c2.8,5.8,4.6,10.4,5.2,13.7c0.6,3.3,0.1,6.3-1.6,9.2c-1.7,2.8-2.5,5-2.4,6.5
				s0.7,1.5,1.9-0.1s3.5-2.9,7-4c2.3,5,3.3,8.2,2.9,9.8c0,2-1.2,4.1-3.6,6.4c-2.4,2.3-3.8,5-4.1,8.2c0,1.6,0.8,2.4,2.4,2.4l4.8-1.3
				c2.5-0.4,2.6,1.6,0.3,5.8c-2.5,4.6-4.3,8.5-5.4,11.7c-1.2,3.2-1.7,5.8-1.7,7.7c-0.2,4.1-0.9,6.5-2.1,7.2c0.4-5.1,0.2-10.5-0.4-16
				c-0.6-5.6-1.7-11.8-3.3-18.7c1.4-1.2,3.4-5.4,5.8-12.5c1.2-3.5,1-4-0.8-1.3c-1.9,5.3-3.9,8.6-5.8,9.8c-1.9-6.5-4.1-14.5-6.4-23.9
				c2.7-4.4,4.3-10,5-16.7c0.2-5.7-0.2-6.1-1.1-1.3c-1.1,6.7-3,11.9-5.8,15.7c-2.3-7.4-4.8-14.4-7.4-21c0.9-3.7,1.2-8,1.1-13
				c-0.2-5-0.6-5.1-1.3-0.5c0,3.7-0.4,6.9-1.3,9.6l-5.8-14.9l-3.7-8.5c-1.2-2.8-1.7-2.8-1.3,0l3.4,11.1c-2.6-3-5.1-5.2-7.4-6.6
				s-2.7-1.3-1.3,0.3c3.9,3.4,7.3,7,10.1,10.9c2.3,5.7,4.6,11.5,6.9,17.5c-6.7-5.6-11.4-8.8-14.1-9.5c-3.4-1.2-3.4-0.6,0,1.9
				c4.8,3,10.4,8.3,17,15.9c2.1,6.2,4.2,12.2,6.1,18c-3.4-1.9-7.4-5.8-12.2-11.7c-2.1-2.1-2.2-1.8-0.3,1.1c3.9,5.8,8.4,11,13.5,15.4
				l4,16.2c-4.1-4.1-9.4-8.2-15.9-12.5c-2.8-1.8-3-1.4-0.5,1.1c5.7,4.1,11.6,10.1,17.8,18c1.8,5,2.6,14.1,2.4,27.3
				c-0.2,3.4-2.6,5.8-7.4,7.4v0.5l-1,12.2l-6.6,0.3C397.4,223.6,394.7,219.8,392.8,217z M401.5,229.5c1.1-0.4,3.4-0.1,5.7-0.1
				c-2.5,13.4-5.3,28.2-7.6,37.4l-3.7-2.1C399.1,251.9,400.8,237.6,401.5,229.5z M354.4,305.1c-1-0.8-3.9-3.2-8.9-7.3
				c-4.4-3.9-5.8-7.4-4.2-10.6c-1.2-1.6-2.4-3.4-3.3-5.6c-1-2.1-0.8-4.2,0.7-6.2c1.4-2,4.7-1.1,9.8,2.8c0.9-3,0.9-5.9,0-8.5
				s-1.9-5.3-3.2-8c-2.3-4.2-4.5-7.9-6.6-10.9c-1-2.2-1.6-3.8-1.8-5c0.1-0.6,0.3-1.2,0.4-1.8c0,0,0.1,0,0.1-0.1
				c1.1-0.5,2.7,0.2,5,2.1c4.4-4.8,7.3-6.2,8.7-4.1c1.4,2,2.6,5.4,3.4,10.2c0.9,4.8,1,9.7,0.3,14.9l-1.1,1.1l1.1,1.1
				c0.3,1.1-0.1,5-1.3,11.9c0,1.4,0.4,2.8,1.3,4.2l0,0c0,0,0,0,0-0.1c-0.3-2.1-0.4-3.6-0.3-4.7c0.2-0.9,0.8-3,1.7-6.2
				c1-3.3,1.5-5.1,1.5-5.6c0-0.4,0-0.8-1.4-0.9c1.6-0.5,1.9-1.3,2.3-2.3s0.5-1.9,0.3-2.9c-0.3-1-0.4-3.8-0.5-8.4
				c-0.1-4.6-0.5-8.1-1.3-10.5s-1.3-4.2-1.5-5.6c-0.2-1.3-1.2-2.1-3.2-2.2c-1.9-0.2-4.7,1.8-8.2,5.8c1.6-7.6,3.2-12.7,4.9-15.3
				c1.7-2.6,3.4-3.3,5.2-2.3c1.8,1.1,2.9,2.2,3.4,3.4c0.5,1.2,1.3,1,2.4-0.7s1.9-2.2,2.6-1.7s1.5,1.6,2.3,3.2s1.4,3.3,1.7,5
				c0.4,1.8,0.7,5,0.9,9.7c0,0.4,0,0.9,0,1.3c0.1,3.6-0.4,6.2-1.5,7.7c-0.1,0.2-0.2,0.3-0.3,0.4c-1.4,1.6-2.1,3.5-2.1,5.8
				c0.4,9.2,1.1,13.8,2.1,13.7c1.1-0.1,2.3-0.8,3.8-2.1s2.8-1.8,4-1.5c0.9,0.3,1.5,2,1.8,5.2c0.1,0.8,0.1,1.6,0.2,2.5
				c0.2,4.8,0.6,5.3,1.3,1.5c0.7-3.8,2-5.7,4-5.7s2.3,5.1,1.1,15.4c-6.9,6.2-11.8,11.3-14.9,15.4c-1.1-4.4-1.1-7.5-0.1-9.3
				s1.8-3.8,2.6-6c0.8-2.2,1.5-4.2,2-6c0.2-0.5,0.3-0.9,0.4-1.3c0.9-2.8,0.5-2.9-1-0.1c-0.1,0.1-0.1,0.2-0.2,0.4
				c-1.1,2.1-2,4-2.8,5.6s-1.7,3.2-2.8,4.8c-0.3-2.3-1.1-6.2-2.5-11.6c-0.3-1.1-0.6-2.3-0.9-3.6c-1.6-4.9-2-4.8-1.3,0.3
				c0.2,1,0.3,2.1,0.5,3.1c1.1,7.2,1.9,14.2,2.4,21c-3-3.2-6.1-5.9-9.1-8.2c-0.7-0.6-1.4-1.1-2.1-1.7c-2.2-1.8-4.2-3.7-6-5.7
				c-1.9-1.2-2.3-1.1-1.1,0.5c1.5,2,3.6,4.3,6.1,6.8c1,1,2.1,2,3.3,3.1c4.2,3.8,6.7,6.3,7.6,7.6c0.9,1.2,1.4,2.3,1.6,3.2
				c-1.6,2.1-3.4,4.3-5.6,6.6c-0.4-0.2-0.8-0.6-1.1-0.9c-0.6-0.7-0.9-1.6-1-2.6C355.9,307.1,355.3,305.9,354.4,305.1z M339.8,331.6
				c2.2,0,5.4,1.1,4.6,3s-1.7,5.1-3.5,5.3s-5.2-2.3-5.2-4.5S337.5,331.6,339.8,331.6z M259.3,402.1c2.1-2.5,4.9-4.7,8.2-6.6
				c15-7.4,25-11.8,30-13c0.9-0.4,1.7-0.1,2.4,0.8l2.1,2.7l-2.9,1.8c-1.8,1.4-4,2-6.6,1.9c-2.3-0.2-5.4,0.6-9.3,2.2
				c-3.9,1.7-6,4-6.4,7c-0.7,2.1-1.7,3.4-2.9,4c-3.9,2.1-7.4,4-10.6,5.6l-8.2-0.5L259.3,402.1z M280.5,403.9c-0.9-3,0.2-5.4,3.2-7.2
				c2.8-2.1,5.9-3,9.3-2.6c1.4,0.2,1.5,2.7,0.3,7.7c-1.1,2.5-6.3,5.5-15.7,9l-8.8-1l9.3-5.3l2.4,3.7h1.3L280.5,403.9z M229.5,405.2
				l2.7,2.5l-5.9-2.8L229.5,405.2z M138.9,381.6c1.5-0.7,3.4-0.5,5.7,0.5l12.7,6.1l21.8,8.2c5.3,5.7,8.6,9.5,9.8,11.7
				c-4.4,0.5-9.2,0.9-14.3,1.1l-11.4-8c-4.6-5.5-8-9.5-10.1-11.9c-2.1-2.5-4.2-4.2-6.1-5.3c-2.8-1.6-5.1-2.1-6.9-1.6
				c-1.2,0.4-2.6,2.1-4,5.3l-0.5-0.5C136.3,384.2,137.4,382.3,138.9,381.6z M151.3,393c-2.5,1.2-5,1.2-7.4,0l-4.2-3.2
				c1.4-3.5,3.3-4.7,5.6-3.4l4.2,3.7L151.3,393z M105.1,243.4c-0.3,4.9-1.1,10.5-2.4,16.8c-0.8,4-1.8,8.3-2.9,12.9
				c-0.2-9.7-0.6-16.3-1.3-19.6l1.2-3.3l1.2-3.3c0.2-2.3-0.3-2.4-1.3-0.3l-0.5,1l-1.1,2l-0.3-5.3l0.5-0.6l3.5-4.5
				C104.3,236.5,105.5,237.9,105.1,243.4z M101.1,229.1c2.3-0.5,2.7,0.5,1.3,3.2l-5,7.4c-0.2-1.9-0.5-3.7-0.8-5.2
				c-0.1-0.9-0.2-1.7-0.3-2.6C98,230.7,99.6,229.8,101.1,229.1z M80.2,241.6c3.7-14.7,7.3-22.5,10.6-23.4c1.9,5.1,3.5,14.6,4.8,28.5
				c1.2,13.9,1.2,26.4,0,37.5c-1.6,14.1-4,23.7-7.2,28.7l-3.4,7.4c0-7.7,0.1-14.4,0.2-20.1c0-2.1,0.1-4.1,0.2-6c0-0.2,0-0.4,0-0.7
				c0.3-6.9,0.5-16.1,0.8-27.5c0.3-11.4,1-24.4,2.3-38.9c0.7-3.5,0.5-4.3-0.5-2.4c-2.8,14.7-4.5,33.5-5,56.5l-0.1,8.1l-0.1,7.1
				l-0.2,6.8l-0.4,13.4v0.5l-3.4-4c-0.1-0.6-0.2-1.2-0.4-1.9c-0.2-1-0.4-1.9-0.5-2.9c-1.6-9.5-2.4-19.3-2.4-29.5
				c0-1.6,0-3.1,0.1-4.7C75.9,264.1,77.5,253.2,80.2,241.6z M56.7,286c0.8-3.7,2-7.4,3.4-11.2c3.6-9.5,9.1-19.2,16.6-29.2
				c-1.8,7.3-2.8,12.6-2.9,16.2c-3.6,6.2-6.8,12.3-9.6,18.5c-3.3,7.2-6.1,14.4-8.4,21.6c-1.1,4.1-1.9,8.9-2.6,14.6
				C52.6,309.1,53.8,299,56.7,286z M74.1,308.1l-5.8-7.4l4.2-10.6C72.3,295.9,72.8,302,74.1,308.1z M194.8,22.2
				c0,3.4-2,7.1-6.1,11.1c-6.2,5.7-13.9,10.9-23.2,15.6c-9.3,4.8-21.4,10.4-36.2,17v-1.6c18-13.4,34.8-24.4,50.1-32.9
				c4.1-2.5,3.7-3.2-1.1-2.1c-5.3,2.6-11.1,5.9-17.5,9.8c-10.6,6.9-21,13.7-31,20.4l0.3-3.2c20.2-17.7,36.7-29.1,49.6-34.2
				C186,20.7,191.1,20.7,194.8,22.2z M135,28.5c9.6-8,21.2-14.1,34.6-18.6c6.5-1.8,12.2-2.6,17-2.4c2.3,0.5,2.9,1.9,1.8,4l-5.8,7.7
				c-5.1,0.7-12.2,3.6-21.1,8.8c-8.9,5.1-18.5,11.9-28.8,20.4l-3.7,2.4c-1.9-1.4-5.5-0.8-10.6,1.8c16.3-13.6,30.4-24,42.4-31
				c7.8-3.9,12.3-6.6,13.5-8.2c-3.9,1.1-9.4,3.5-16.5,7.3s-18.7,11.7-35,23.7l-15.6,14.1C116.1,46.5,125.3,36.5,135,28.5z M118.6,58
				c2.8-1.6,4.8-2.2,5.8-1.9c0.7,1.8,0.9,4.2,0.5,7.3c-0.4,3.1-2.7,9.6-6.9,19.5l-2,3.9l-3.3,6.4l-4.5,8.8
				c-6.9,0.9-13.4,4.1-19.6,9.5c3.2-5.5,7-11.8,11.5-18.8c4.5-7.1,11.5-17.7,21.1-31.8c1.6-2.7,1.6-3.3,0.1-2s-5.5,6.4-12.1,15.3
				c-6.5,8.9-15.3,22.6-26.3,41.1c-0.5,0.7-1,1.6-1.7,2.6c-0.3,0.4-0.6,0.8-0.8,1.3c-0.4,0.6-0.8,1.2-1.2,1.9
				c-0.2,0.3-0.4,0.7-0.7,1c-0.2,0.4-0.5,0.7-0.8,1.1c-0.2,0.3-0.4,0.6-0.6,0.9c-0.4,0.6-0.8,1.3-1.3,2c-0.2,0.3-0.4,0.7-0.7,1
				c-0.2,0.4-0.5,0.7-0.7,1.1s-0.5,0.7-0.7,1.1s-0.5,0.8-0.8,1.2c-0.5,0.7-1,1.5-1.5,2.2c-0.3,0.5-0.7,1-1,1.5
				c-0.5,0.8-1,1.6-1.6,2.4c-0.1,0.1-0.1,0.2-0.2,0.3c-0.6,0.9-1.2,1.9-1.9,2.8c-0.3,0.5-0.6,1-1,1.5c-0.4,0.6-0.8,1.2-1.2,1.8
				c-0.8,1.2-1.7,2.5-2.5,3.9c-0.1,0.2-0.3,0.4-0.4,0.6c-0.4,0.6-0.7,1.1-1.1,1.7c-0.9,0.9-3.5,1.4-8,1.6l-8.8,25.7
				c0.7,1.1,2.9,0.7,6.6-1.1c-1.8,3.4-4.4,5.2-8,5.6l-2.1-1.6l-1.1-4l0.3-2.4l2.1,0.3l9.3-23.6l-5.6-6.9l1.3-4
				c1.8,3.7,3.4,5.7,5,6.1c2.5-4.8,6.1-11.3,10.7-19.5c4.7-8.2,10.2-16.6,16.6-25.1l-0.3-2.1c0-1.2,0.6-1.3,1.8-0.3l13.3-19.1
				L82.7,97.6c1.8,1.9,1,3.3-2.4,4c-11.3,15-20,30-26,44.8l2.6,0.8c1.6,0.7,3.1,0,4.5-2.1l16.2-28.7L93,87.7
				C101,75.3,109.3,65.2,118.6,58z M60.8,153.2c-3.7,6.9-6.5,13.1-8.5,18.6l-2.1-0.3l5.6-17.2L60.8,153.2z M48.9,182.1l-5.3,14.3
				l-3.7,12.5l1.3-10.6l1.9-7.7l1.6-7.7L48.9,182.1z M40.1,169.4c1.2-7.9,2.9-15.2,5-21.8l2.1,2.7L40.1,169.4z M79.1,74.1
				c3-6.2,7.4-13.2,13.3-21c1.8-4.1,0.8-4-2.9,0.3c-8.7,10.8-18.8,27.9-30.3,51.2l5-12.7c0.9-2.8,3.7-9.2,8.5-19.2
				S82.2,54.8,86.8,49c4.6-5.8,7.8-9.6,9.6-11.4c6.4-5.5,10.1-8,11.1-7.7c0.9,0.7,1.2,1.8,0.8,3.4l-13,33.4
				c-8.5,16.4-19.6,33.6-33.4,51.5c-5.9,6.4-9.5,10.4-10.9,12.2c-1.4,1.8-2.6,3.4-3.4,5l1.1-4.5l5-8C60.7,111.5,69.2,95.2,79.1,74.1
				z M43.3,267.8c0-3.5-0.4-5.8-1.2-6.6c-0.8-0.9-1.6-2.5-2.4-4.9c-0.8-2.4-2-5.9-3.6-10.6s-2.7-8.9-3.4-12.6l0,0
				c-4.7-2.1-8.2-5.7-10.3-10.7s-4.1-11.6-6-19.8c-1.8-8.1-2.6-17.9-2.2-29.2c0.9-13.4,2.8-26.5,5.8-39.3
				c4.4-17.7,13.4-34.5,27.1-50.4c3-3.4,4.8-4.2,5.6-2.4c0.7,7.1,0.7,13.9-0.1,20.6c-0.8,6.6-2.5,14-5.2,22.2
				c-6.9,23-11.1,38.5-12.5,46.4c-2.6,9.4-5.6,21.6-8.8,36.6c-1.4-7.3-0.6-22.5,2.5-45.8s7-39.8,11.8-49.7c2.3-5.1,2.2-5.9-0.3-2.4
				c-10.8,18.4-17.1,45.5-18.8,81.4c-0.4,12.6,0.4,21.6,2.1,27.2c1.8,5.6,3.8,8.8,6.1,9.7c1.2,0.7,2.6,0.6,4-0.3
				c1.1-6.7,1.8-12.2,2.1-16.3c0.4-4.2,0.8-9,1.4-14.6c0.6-5.6,1.7-10.2,3.3-13.9l1.1,1.1c-1.8,8.1-2.7,13.8-2.8,17
				s-0.3,6.4-0.7,9.5s-0.7,9.3-1.1,18.3c2.1-7.3,4.4-14.1,6.9-20.7l8.2-23.9l7.3-17.2l3.4-8c0-0.1,0.1-0.1,0.1-0.2
				c1.1-2.1,2.2-4.2,3.4-6.4c0.6-1,1.2-2,1.8-3.1s1.3-2.2,2-3.3c0.1-0.2,0.2-0.3,0.3-0.5c0.6-1,1.2-1.9,1.8-2.9
				c0.9-1.4,1.8-2.9,2.7-4.3c1-1.6,2.1-3.3,3.3-5c0.3-0.4,0.6-0.9,0.9-1.3c2.6-3.8,5.3-7.8,8.3-11.8c1.6-1.9,3.2-3.6,4.8-5
				c0.5-0.5,1.1-1,1.6-1.4l0.8-0.6c0.4-0.3,0.8-0.6,1.2-0.9s0.8-0.6,1.1-0.8c0.2-0.2,0.5-0.3,0.7-0.5c0.6-0.4,1.1-0.7,1.7-0.9
				c0.3-0.2,0.6-0.3,0.9-0.4c0.3-0.1,0.6-0.2,0.9-0.4h0.1c0.3-0.1,0.6-0.2,0.9-0.3c0.3-0.1,0.5-0.1,0.8-0.2c0.1,0,0.2,0,0.2,0l0,0
				h0.1c0.2,0,0.4-0.1,0.6-0.1c0.8,1.1,1.1,3,0.8,5.7v0.1c0,0.1,0,0.1,0,0.2c0,0.2,0,0.3-0.1,0.5c0,0.3-0.1,0.5-0.1,0.8
				c0,0.4-0.1,0.7-0.2,1.1c-0.1,0.4-0.2,0.9-0.2,1.3c0,0,0,0.1,0,0.2c-0.1,0.3-0.1,0.5-0.2,0.8l0,0c0,0,0,0.1,0,0.2
				c-1.2,5.5-3.4,11.2-6.4,17.2c-0.2,0.1-0.4,0.2-0.2,0.3c-0.3,0.6-0.6,1.1-0.9,1.6c0,0.1-0.1,0.2-0.2,0.3c-0.7,1.2-1.3,2.4-2,3.5
				c-0.4,0.6-0.7,1.2-1.1,1.9c-0.7,1.2-1.4,2.4-2.1,3.6c-1.5,2.4-2.9,4.8-4.4,7.1c-0.3,0.6-0.7,1.1-1,1.6c-0.4,0.7-0.9,1.3-1.3,2
				c-0.1,0.2-0.3,0.4-0.4,0.6c-0.1,0.2-0.2,0.4-0.4,0.6c-0.4,0.5-0.7,1-1,1.5c-0.4,0.6-0.8,1.2-1.3,1.8c-0.4,0.6-0.9,1.2-1.3,1.8
				c-0.4,0.6-0.9,1.2-1.3,1.7c-0.4,0.6-0.9,1.1-1.3,1.7c0,0,0,0.1-0.1,0.1c-0.7,0.9-1.3,1.7-2,2.5c-1,1.3-2.1,2.5-3.1,3.7
				c-0.7,0.8-1.3,1.5-2,2.2l0,0c-0.7,0.7-1.4,1.4-2,2.1c-0.6,0.6-1.2,1.2-1.8,1.8c-0.1,0.1-0.1,0.1-0.2,0.2c-0.5,0.5-1.1,1-1.6,1.5
				l0,0c-0.1,0.1-0.3,0.3-0.4,0.4l0.3-0.5L77.6,160l-4-0.4c-0.1,0.1-0.2,0.3-0.2,0.4c-0.3,0.5-0.7,1.1-1,1.6s-0.6,1-1,1.5
				c-2.2,3.4-4,6.4-5.6,9c-0.4,0.7-0.8,1.3-1.2,2c-0.3,0.5-0.6,1.1-0.9,1.6c-0.3,0.5-0.6,1-0.9,1.5c-0.7,1.2-1.3,2.2-1.7,3.1
				c-0.2,0.3-0.3,0.6-0.4,0.8c-3.5,6.9-7,13.3-10.3,19.4c-3.4,6-5.6,10.7-6.6,14.1c-1.1,3.4-3.3,9.4-6.6,18c0,1.6,1.1,6.2,3.2,13.8
				c2.1,7.6,3.9,12.1,5.4,13.4s1.6,2.8,0.4,4.4c-0.5,1.4-0.2,4.1,1.1,8c0.9,4.2,2.9,10.1,6.1,17.5l-0.8,2.6
				C49,284.8,46,276.7,43.3,267.8z M34.6,189c-1.8,14.1-3.3,25.2-4.5,33.2l-1.1-2.1C27.9,218.5,29.8,208.1,34.6,189z M118.6,388.3
				l-3.4-4.5c-1.1-1.2-2.5-1.5-4.4-0.8s-3.3-0.4-4.4-3.2c-4.8,2.8-9.6,1.8-14.6-3.2L83,366l-8.2-14.1l-2.9-2.1l0,0
				c-0.2,0.1-0.3,0.2-0.5,0.3c-0.3,0.2-0.7,0.3-1,0.5l0,0c-1,0.4-2.2,0.5-3.4,0.5c-0.2,0-0.5,0-0.7-0.1c-0.2,0-0.5-0.1-0.7-0.1
				L55,344c-2.5-2.3-7.8-11.4-15.9-27.3c-10.8-20.5-18.1-36-22-46.4c-2.8-8.7-4.7-14.1-5.6-16.5c-0.9-2.3-1.2-2.3-1-0.1
				c0.2,2.2,1.5,7.2,4,14.9c2.5,7.7,7.1,19,13.8,33.8c5.8,12,11.6,23,17.2,32.9c-13.1-14.1-22.6-27.4-28.4-39.8
				c-5.8-12.2-9.7-23.5-11.7-34c-0.9-3.7-1.4-9.4-1.6-17.1s-0.1-12,0.3-12.9c0.9-2.7,2.1-3.8,3.7-3.4c1.1,0,3.5,2.5,7.3,7.6
				c3.8,5,9,16.3,15.5,34c6.5,17.6,10.6,29.1,12.1,34.6s3,10.3,4.5,14.3c1.5,4.1,3.3,8.2,5.4,12.5c3.2,6.4,6.4,10.7,9.6,13
				c0.6,0.4,1.2,0.8,1.8,1.2c0.3,0.2,0.7,0.4,1,0.5c0.2,0.1,0.5,0.2,0.7,0.3c0.3,0.1,0.6,0.2,0.8,0.3s0.5,0.2,0.7,0.2
				s0.5,0.1,0.7,0.1s0.3,0,0.5,0c0,0,0.1,0,0.2,0c0.2,0,0.4,0,0.5,0c0.2,0,0.4,0,0.5-0.1c0.2,0,0.3-0.1,0.5-0.1
				c0.2-0.1,0.3-0.1,0.5-0.2c0.2-0.1,0.3-0.2,0.5-0.3c0.1-0.1,0.3-0.2,0.4-0.4L64.3,331c-1.2-2.7-1.1-5.3-3.6-4.6l1,1.7
				c-0.9-0.4-1.8-0.4-3-0.1c-0.2,0-0.4,0-0.5,0h-0.1H58c-0.1,0-0.2,0-0.3,0c-0.7-0.1-1.4-0.2-1.9-0.5c-0.4-0.2-0.7-0.5-1-0.8
				c-0.1-0.1-0.2-0.2-0.3-0.4c-0.1-0.1-0.2-0.3-0.2-0.4c-0.1-0.2-0.2-0.4-0.3-0.6c-0.1-0.2-0.2-0.5-0.2-0.7c0-0.3-0.1-0.5-0.1-0.8
				s0-0.6,0-0.9v-0.1c0-0.1,0-0.1,0-0.2v-0.2c0-0.2,0-0.4,0-0.6c0-0.3,0.1-0.7,0.1-1c0.4-3.2,1.5-8.7,3.4-16.4c0.3-1,0.6-2,1-3.1
				c0.2-0.5,0.3-1,0.5-1.4c0.2-0.5,0.3-1,0.5-1.4c0.4-1.1,0.7-2.2,1.1-3.3c0.4-1,0.7-2,1.1-3l0,0c0.2-0.5,0.4-1,0.6-1.5
				c0.2-0.5,0.4-1,0.6-1.5l0,0c0.4-1,0.8-2,1.2-3s0.9-2,1.3-3c0.4-1,0.9-2,1.4-3c0,0,0,0,0-0.1c0.6-1.2,1.1-2.4,1.7-3.6
				c0.6-1.2,1.2-2.4,1.8-3.6c0,0,0-0.1,0.1-0.1c0-0.1,0.1-0.2,0.1-0.2c0.1-0.2,0.2-0.4,0.3-0.6c0-0.1,0.1-0.1,0.1-0.2
				c0.1-0.1,0.2-0.3,0.2-0.4c0.3-0.6,0.6-1.2,0.9-1.8c0.7-1.3,1.4-2.6,2.1-3.9c-0.6,4.1-1,7.7-1.2,10.8c0,0.4,0,0.8-0.1,1.2
				c0,0.6,0,1.2,0,1.8v0.5c-6.5,14.7-11.3,26.5-14.3,35.5c-1.6,6.5-1.5,9.7,0.3,9.5l2.1-1.1l-1.6-3.7l1.1-2.9l3.2,5.6l1.8-1.3
				l1.6,2.4l-1.6,2.4L77,343.6l2.9-2.4l2.1,2.4c-3.5,3.5-5,5.8-4.2,6.9c3.2,5.8,6.1,10.5,8.8,14.1c5.3,7.8,9.6,10,13,6.6
				c1.1-0.9,2.4-0.7,4,0.5s3.4,3.9,5.3,8l-0.3-6.1l-9.8-9.3l-5.6-11.1c-4.6-6.5-7.9-11.6-9.8-15.1c-1.9-3.5-4.4-7.8-7.3-12.7
				c-2.9-5-6.5-10.5-10.7-16.7l0.8-2.9l8.5,10.3c7.6,9.7,12.9,17.1,16,22.2c3.1,5,4.9,6.2,5.4,3.6l1.6-5l2.4,1.3l-1.6,10.3l-0.5,3.2
				c-0.2,2.5,0.3,3.9,1.5,4.4c1.1,0.4,2.2,2.1,3,4.9c0.5,1.8,3.3,5.4,8.4,11c5,5.6,10.3,10.3,15.9,14.1c5.6,3.8,10.2,6.9,13.8,9.3
				c3.6,2.4,5.3,4.7,5.2,7l5,1.1l-1.3-6.4l3.2-0.8c1.6,1,2.9,3,4,5.8c4.6,3.5,8.6,6.4,11.9,8.5l-11.7,2.1L137,400.8L118.6,388.3z
				 M69.8,326.2l1.6-1.6l7.4,12.5l-0.8,1.6L69.8,326.2z M82.3,351.1l2.9-3.7l6.9,9.8l4,7.2l1.3,4c-2.5-1.2-4.6-3.1-6.4-5.6l-4.2-5.6
				L82.3,351.1z M143.6,415l-15.9,2.7l3.7-10.6L143.6,415z M181.5,464.7c-7.4,7.3-15.8,14.1-25.2,20.7l-3.2-1.1
				c5.5-3.4,13.3-8.9,23.4-16.5l4.5-5l-2.4-0.3c-3.4,3-7.2,6.1-11.5,9.1c-4.3,3.1-9.3,6.1-15,8.9l-7.7,3.7l1.3,1.6l5.8,0.8
				c3.4,2.1,4.8,4.2,4.2,6.4c-1.8,2.7-4.6,3-8.5,1.1l-6.4-3.4c-2.3-2.3-4.6-3.9-6.9-4.8l-2.7-2.1l1.1-2.6l8,3.2h2.4l-1.3-4.8
				l9.5-5.9c2.5-0.9,3.5-2.4,3.2-4.5l0.8-4.8c4.1,0.9,8.5,0.2,13.3-2s9.3-3.5,13.5-3.8C184.4,460.3,184.4,462.4,181.5,464.7z
				 M175.2,453.6c-9.2,2-17.5,3.8-24.9,5.4c-18.6,3.4-36.9,6.1-54.9,8.2c-4.6-1.2-17.9-8.1-39.8-20.4C40,437.4,29.2,429.8,23,424
				c-7.1-7.6-9.9-12.2-8.5-13.8c4.6-7.6,7.7-14.3,9.3-20.2c0.7-2.5,0.9-4.4,0.5-5.8c-2-6-0.5-9.1,4.2-9.3
				c11.9-0.7,19.8-0.9,23.9-0.5c1.8,0.2,2.9-0.4,3.4-1.6l4-8l-2.4-1.1L54,369l-0.3-6.1c0-0.9,0.5-1.2,1.6-0.8
				c7.4,1.9,10.9,4.4,10.3,7.4c-2.3,3.9-3.4,8.3-3.2,13.3l0.3,13.8c-9.4-6.2-19.4-11.7-30.2-16.4c1.2-0.2,2.6-0.3,4.2-0.4
				c1.6-0.1,2.7-0.7,3.2-1.7c0.5-1.1-0.4-1.7-2.9-1.9c-5.5,0-9,0.4-10.6,1.3c-1.2,1.4-1,2.9,0.8,4.5c12.7,6.4,24,12.7,33.7,19.1
				c15.4,9.7,27.3,17.7,35.8,23.9c8.3-0.2,20-1.3,35-3.4l22.8-4.2c9.4-1.8,19.1-3.3,29.2-4.5c3.7-0.5,8.4-0.9,14.1-1.1
				c5.7-0.2,10.9-0.6,15.7-1.3c4.6,8.7,7.4,16.3,8.5,22.8c0.5,3.4,0.1,5.2-1.3,5.6C199.5,446.7,184.4,451.6,175.2,453.6z M243.1,445
				l-1.3-4.2l-7.2,9l-5.8,3.7c-2.6,2.3-5.4,3.2-8.2,2.6l-9.3-4.5l4.8-2.4l1.3,1.1c-0.9,2.6,0.2,2.3,3.2-1.1l8.2-8
				c0.5-4.8-0.6-10.9-3.4-18.4s-4.9-12.3-6.4-14.2c-0.4-1.6-4.4-2-12.2-1.1c4.6-2.3,10-2.5,16.2-0.5l6.4,2.7l3.4-1.5l1.8,1.8
				c9,9.7,14.1,16.3,15.3,19.9c1.2,3.5,1.3,7,0.4,10.3C246.9,444.7,244.5,446.3,243.1,445z M272,482.7c-1.6-1.2-2-2.5-1.3-3.7
				l5.3,4.5C274.9,484.2,273.6,483.9,272,482.7z M306.5,483.2l2.9,0.5l-1.1,1.3l-6.9,2.1c-3,2.7-6.5,4.4-10.6,5.3l-4.5-0.8l-1.1-3.2
				c1.1-1.6,2.4-2.7,4.1-3.4s3.8-1.3,6.5-1.8l6.4,1.1L306.5,483.2z M296.7,480.3c-4.8,0-7.8,0.5-9,1.6H284
				c-5.1-3.5-9.2-6.8-12.2-9.8l-12.5-9.8c2.3-1.2,7.3-0.8,14.9,1.3L296.7,480.3z M334.6,426.3c5.1,0.4,9,0.2,11.7-0.7
				c4.8-1.9,14.6-9.2,29.5-21.8c14.3-10.8,26.4-18.3,36.3-22.5c3-1.8,3.1-3,0.4-3.8c-2.7-0.8-6.9-1.2-12.3-1.2
				c-1.8,1.4-1.6,2.6,0.5,3.4c2.5-0.2,4.2,0,5.3,0.5c-11.8,6.2-21.8,12.4-29.7,18.6c0.7-4.1,1.3-11.1,1.9-21c-0.2-3.2-1.2-6-3.2-8.5
				c-1.2-1.8,0.4-3.4,5-4.8l3.7-1.1v5.8l-5-1.3l0.5,2.6c1.1,2,3,3.3,5.8,4l14.3,0.8l6.4-0.3c7.4,0.2,11.1,2,10.9,5.5
				c-0.2,3.4,0.1,6.7,0.8,9.7c1.2,7.6,4.2,14.9,9,21.8c-1.1,3.2-3.4,6.9-6.9,11.1l-13.8,9c-11.9,8.5-27.9,19.6-48.3,33.2
				c-14.5,0.4-31.9-0.8-52.3-3.4c-14.7-1.9-31.6-5.7-50.7-11.1l-4.2-1l1.9-1.9c3-3.9,4.6-6.5,4.9-7.8s-0.2-4.3-1.3-9
				c-1.1-4.7-4.5-10.2-9.9-16.6v-1.6l4-0.5c11,0.7,20.7,2.1,29.3,4.2c8.6,2.1,18.8,4.1,30.6,5.8
				C321.2,424.6,329.5,425.9,334.6,426.3z M314.7,419.3c-4.6-0.7-12-2-22.3-4l9.3-3.2c5,1.1,7.8,0,8.5-3.2
				C310.9,412.7,312.4,416.1,314.7,419.3z M370.1,341c-3.5,3.9-4.7,7.9-3.4,12.2c-5,2.7-9.7,6.5-14.3,11.7c-4.6,5.1-8.1,9.5-10.5,13
				s-4.9,5.7-7.6,6.4c-3,1.4-6.5,0.7-10.3-2.1l-1.1,6.6l-17.8,10.9l-8.7,3.7c0.7-1.8,1.1-4.8,1.3-9l3.2-2.6
				c12.2-6.4,19.3-12.2,21.2-17.5c2.5-4.4,5.1-8.1,8-11c2.8-2.9,4.9-6.5,6.1-10.7l0.3-6.4l-0.8-6.6c2.8,3.2,5.4,3.9,7.7,2.1
				c3.7-6.9,7.7-13.3,11.9-19.2c4.2-5.9,8.8-11.5,13.5-16.6c4.8-5.1,8.8-9.5,12.2-13l-0.3,6.6c-10.6,13.1-17.2,22-19.9,26.8
				c-9,13.6-15.1,24.4-18.3,32.4c-2,4.4-4.8,8-8.5,10.6c-2.8,1.4-4.9,2.9-6.4,4.5c-1.2,2.3-0.5,2.9,2.1,1.9c1.8-1.8,3.7-3.1,5.8-4
				c3.9-1.9,12.2-11.1,24.9-27.6l-0.3-9.3l2.9-5c-0.2,5.1,0.3,7.9,1.3,8.5c1.1,0.5,2.5-0.9,4.4-4.4c1.9-3.4,6.4-13,13.7-28.5
				c-1.6,4.8-1.7,8.9-0.3,12.5c-4.2,3-5.4,8.1-3.4,15.4L370.1,341z M429.7,282.1c-0.6,4.4-2.1,8.2-4.4,11.4
				c-7.3,8.3-10.3,13.3-9,14.9c2,3.4,1.6,7.2-1.1,11.4c-3.9,4.8-9,10.1-15.4,15.9c1.8,3.5,0.4,6.5-4,9c-5.1,2.8-10.8,5.3-17,7.4
				c11.5-8.7,18.6-18,21.2-27.9c3.7-3.4,7-5.6,9.8-6.6c2.5-1.6,2.9-2.3,1.3-2.1c-3.2,1.2-6.5,3.2-10.1,5.8c3.4-6.7,5.7-14,7.2-21.8
				c6.9-6.7,11.2-12,13-15.9c2.5-3.7,2.6-4.5,0.3-2.4c-2.6,4.4-6.7,9.1-12.2,14.1c2.5-7.6,4.7-16.1,6.6-25.5
				c0.9-5.5,0.6-6.5-0.8-2.9l-2.6,9.3c-1.2-3.7-2.6-6.5-4.2-8.5l3.4,11.1c-0.7,4.4-2.4,10.7-5,18.8c-2.5-7.1-5.7-13.4-9.8-19.1
				c-3.7-4.6-4.3-4.7-1.8-0.3c4.1,5.8,7.4,13.5,10.1,23.1c-2.1,8.5-4.6,15.6-7.4,21.2c-2.1-3.2-4.3-5.4-6.6-6.6
				c-1.8-0.9-1.8-0.4,0,1.6c2.3,2.3,4.2,4.6,5.6,6.9c-2.1,5.1-4.9,9.6-8.4,13.5c-3.4,3.9-6.9,7.2-10.2,9.8
				c4.2-6.5,5.7-13.8,4.2-21.8c0-1.4,1.1-2.6,3.3-3.5c2.2-0.9,3-1.8,2.3-2.9c-2-3.9-2.9-7-2.9-9.3c1.4-0.7,3.5-0.7,6.4,0
				c2.3-1.6,2.1-3.8-0.7-6.8c-2.7-2.9-4.5-7.1-5.2-12.6c0-3.2,2.1-4.3,6.4-3.4c1.9-0.2,2.1-2.5,0.5-6.9l-4.5-6.1
				c-3.2-7.1-1.9-9.7,4-7.7l6.9,4.2c4.6,1.8,6.8-1.3,6.6-9.3c0-1.8,1.4-2.2,4.1-1.2c2.7,1,5.3-1.1,7.6-6.2c2.3-2.5,4.1-0.2,5.3,6.9
				c-0.5,9.4,1.8,13.8,6.9,13.3C430.2,275.2,430.3,277.7,429.7,282.1z M437.7,259.3c0.3,1.8-0.1,3.2-1.2,4.4
				c-1.1,1.2-3.1,2.2-6.1,3.1l-2.9-5.3c0.2-4.2-1.2-8.3-4.2-12.2c1.2-1.1,3.2-2.1,5.8-3.2c2-0.9,1.6-1.2-1-0.8
				c-2.8,0.5-5,1.2-6.6,2.1H421c1.6-5.7,4.2-11.1,7.7-16.2c0.9-2.3,0.4-2.2-1.6,0.3c-3,4.2-5.7,8.7-8,13.5c-1.1-1.1-1.9-3-2.4-5.9
				c-0.7-3.4-1.2-3.4-1.6-0.3c0.5,4.1,1.3,7,2.4,8.8c-3.9,6-7,8.4-9.3,7.2c1.4-8.5,3.3-17.4,5.6-26.8c4.1-4.1,7.6-5.4,10.6-4
				c4.2-3.4,7.9-4,10.9-1.8c1.6,2.6,2.3,5.2,2.1,7.8c-0.2,2.6-1.1,5.4-2.7,8.6c3.4,0,5.1,1.3,5.3,4c-1.4,6-4.2,10.4-8.5,13
				C435.3,256.3,437.4,257.6,437.7,259.3z"/>
		</g>
	</g>
	<g>
		<path class="st13" d="M187.8,446.2c2.4-0.6,4.7-1.2,6.5-3.6l1.2,1.8l-1.3-8.9l-0.6,0.6c0.1,4.8-1.1,8.3-5.2,9.5
			c-5.9,0.7-8.4-5.2-9.7-11.2c-0.7-5.9-0.2-13,5.8-13.7c3.5-0.6,6.6,2.3,7.8,6.4h0.6l-1.3-7.7H191v1.8c-2.4-1.1-4.2-1.7-7.2-1.1
			c-6.5,0.7-10,7.2-9.3,14.9C175.9,442.8,181.3,447.5,187.8,446.2"/>
		<path class="st13" d="M258.4,420.2v1.2c1.2,0,2.4,0.6,2.4,1.7c0.6,1.2,0,3.6,0.1,4.8l-1.6,11.3c0,1.2-0.5,4.1-1.1,4.7
			c-0.6,1.2-1.8,1.2-2.9,1.2v0.6c1.8,0.6,2.9,0.6,4.7,0.5c1.8,0.6,3,0.5,4.7,1.1v-1.2c-1.2,0-2.3,0-2.4-1.7c0-0.6,0-3.6,0.5-4.8
			l1.1-11.3c0.5-1.2,0.5-3.6,1.1-4.8c0.5-1.2,2.3-1.2,2.9-1.2l0.6-0.6c-1.8,0-3.6-0.6-5.4-0.5C262,421.4,260.2,420.8,258.4,420.2"/>
		<path class="st13" d="M166,425.7c0,1.2,0.6,3.5,0.6,4.7l1.9,11.3c0,1.2,0.6,3.5,0.1,4.7c0,1.8-1.1,1.8-2.3,1.8v0.6
			c1.8,0,3.5,0,4.7-0.6l4.7-0.1v-1.2c-1.2,0-2.4,0-3-1.1c-0.6-0.6-1.2-3.5-1.2-4.7l-1.3-11.3c-0.6-1.2-0.6-3.5-0.6-4.8
			c0.6-1.1,1.8-1.8,2.4-1.8v-0.6c-1.2,0-3,0.6-4.7,0.7c-1.2,0-3,0-4.8,0.7l0.6,0.6C163.6,424.5,164.7,424.5,166,425.7"/>
		<path class="st13" d="M37.1,407.8c3,1.8,5.9,1.7,8.9-1.9c2.9-4.2,0.5-7.1-2.5-9.4c-0.6-0.6-1.8-1.8-3-2.3c-1.8-1.2-3-2.3-4.8-3.5
			v1.2c0.6,0.6,1.8,1.2,1.3,2.4c-0.6,1.2-2.4,3.6-2.9,4.2l-6.4,9c-0.6,1.2-2.3,3.6-3.5,4.2c-1.2,0.6-1.8,0-3-0.6l-0.6,0.6
			c1.8,0.5,3,1.7,4.2,2.9c1.2,0.6,2.4,1.8,3.6,2.4l0.6-0.6c-1.2-0.6-1.8-1.2-1.8-2.4c0.6-1.2,2.3-3.6,2.9-4.8l2.9-3.6
			c1.2,1.2,1.2,1.2,1.2,2.9l-0.5,9.5l-0.6,3c0.6,0.6,1.8,0.6,2.4,1.1c0.6,0.6,1.2,1.2,1.8,1.8l0.6-0.6c-1.2-1.2-1.2-1.8-1.2-3.6
			L37.1,407.8z M34.1,404.2l5.3-7.2c0.6,0,0.6-0.6,1.2-0.6c0,0,1.2,0.6,1.8,1.2c1.8,1.2,1.8,4.1,0.1,6.5
			C38.9,408.3,37.1,406.6,34.1,404.2"/>
		<path class="st13" d="M140,441.9c-1.2-1.2-3-1.1-4.8-1.1c2.4-1.3,4.7-3,4.1-6.6c-0.7-4.7-4.8-5.3-8.4-4.6c-1.2,0-2.4,0.6-3.6,0.6
			c-1.8,0-3,0-4.8,0.7v0.6c1.2,0,2.4,0,3,1.1c0.6,0.6,1.2,3.5,1.3,4.7l1.3,11.3c0,1.2,0.6,3.6,0.6,4.7c0,1.8-1.7,1.8-2.3,1.8v1.2
			c1.7-0.6,3.5-1.2,5.3-1.2c1.2,0,3,0,3.5-0.7c1.8,0,4.2-0.1,5.9-1.9c1.1-1.2,2.3-3,2.3-6C143,444.8,141.8,443,140,441.9
			 M129.8,431.3c0,0,1.2,0,1.8-0.6c2.3,0,3.5,1.1,4.2,4.1c0,1.8,0,3.5-1.1,4.7c-0.6,0.6-1.8,0.6-2.9,1.3h-0.6l-1.3-7.7L129.8,431.3z
			 M136,453.2c-1.2,0-2.4,0-3-1.2s-0.6-3-1.2-4.2l-0.7-5.3h1.2c1.2,0,2.4-0.6,4.1-0.1c1.2,1.1,2.4,2.3,2.5,4.7
			C139.5,450.2,138.4,452.6,136,453.2"/>
		<path class="st13" d="M145.5,451.9v0.6c5.3-0.7,11.3-1.9,16.6-2.6h1.7l-0.7-7.1l-1.2,0.6c0,1.8,0,3.6-1.1,4.8s-3,1.2-4.1,1.8
			c-4.2,0.7-5.3-0.5-6-5.3l-1.3-11.2c0-1.2-0.6-4.2-0.7-5.4c0.6-1.2,1.8-1.2,2.9-1.2l-0.6-1.2c-1.2,0.6-3,0.7-4.8,0.7
			c-1.2,0.6-3,0.6-4.8,0.6l0.6,1.2c0.6-0.6,2.4-0.6,3,0.6c0,1.2,0.7,4.2,0.7,5.3l1.9,10.6c0,1.2,0.6,4.2,0.1,5.3
			C147.9,451.3,146.7,451.3,145.5,451.9"/>
		<path class="st13" d="M121.2,444.5c-1.2-0.6-3-0.6-4.7-0.6c2.3-1.2,4.1-3,3.5-6.5c-0.7-5.3-5.4-5.9-8.4-5.2
			c-1.2,0.6-2.3,0.6-4.2,0.6c-1.2,0.6-3,0.7-4.1,0.7v1.2c1.2-0.6,2.4-0.6,3,0.5c0,1.2,0.6,4.1,0.7,5.3l1.9,10.7
			c0,1.2,0.7,4.1,0.7,5.3c-0.6,1.2-1.8,1.2-3,1.8v0.6c2.4,0,3.5-0.7,5.9-0.7c1.2-0.6,2.3-0.6,4.1-0.7c1.8,0,4.1-0.6,5.3-1.8
			c1.8-1.8,2.9-3.6,2.3-6C124.2,447.4,123,445.6,121.2,444.5 M109.7,435.7v-1.2c0.6-0.6,1.8-0.6,1.8-0.6c3-0.6,4.2,1.1,4.8,4.1
			c0,1.7,0,3-1.1,4.2c-0.6,1.2-1.8,1.2-3,1.2L111,444L109.7,435.7z M116.6,455.8c-1.2,0.6-2.4,0.6-3-0.5c-0.6-1.2-1.2-3.6-1.2-4.7
			l-0.7-4.8h0.6c1.8-0.6,3.6-0.6,4.7-0.1c1.8,0.6,2.4,2.4,3,4.1C120.7,453.4,119.5,455.8,116.6,455.8"/>
		<path class="st13" d="M204.4,443v-1.2c-1.2,0-3,0.7-3-1.2c-0.6-1.2,0.5-4.2,0.5-5.9v-1.2l7.7-1.3l2.5,4.2c0,0.6,0.6,1.8,0.6,2.4
			c0.6,1.8-1.2,1.8-1.7,2.4v0.6c1.2,0,3-0.6,4.7-0.6c1.2-0.6,3-0.6,4.1-0.7v-1.2c-1.2,0-2.3,0-3-0.6c-0.6-1.2-1.8-2.9-2.4-4.1
			l-9.2-18.3H204l-2.8,16c-0.5,2.4-0.5,4.8-1.1,7.7c-0.6,1.8-1.2,2.4-2.9,3v0.6c1.2,0,2.4,0,3.5-0.6L204.4,443z M204.7,421.8
			l4.9,9.4l-6.6,0.7L204.7,421.8z"/>
		<path class="st13" d="M358.6,448.8c0.6,2.4,0,3-1.2,4.1l0.6,0.6c0.6-0.6,1.8-1.2,3-1.8s1.7-1.2,2.9-1.8l-0.6-0.6
			c-0.6,0.6-2.3,1.2-3,0c-0.6-1.7-1.2-4.7-1.2-5.9l-0.6-1.2l7.1-3.7l3,2.4c1.2,0.5,1.8,1.7,2.4,2.3c0.6,1.2-0.6,2.4-1.7,2.4l0.6,1.2
			c1.2-1.2,3-1.8,4.1-2.4c1.2-1.2,2.9-1.8,4.1-2.4l-0.6-0.6c-0.6,0-1.8,0.6-3,0c-1.2-0.5-3-2.3-3.6-2.9l-15.6-13.4h-1.2l3.2,16
			C357.9,443.4,358.5,446.4,358.6,448.8 M364.3,437.4l-5.9,3.1l-1.9-10.1L364.3,437.4z"/>
		<path class="st13" d="M369.7,419.5l8.5,11.7c1.2,1.2,2.4,2.9,3.1,4.1c0.6,1.8,0,2.4-1.1,3.6l0.6,0.6c1.2-1.2,1.8-1.8,3-2.4
			c1.2-0.6,2.4-1.2,2.9-2.4v-0.6c-1.2,0.6-2.3,1.2-3.6,0.7c-1.2-1.2-3-2.9-3.6-4.1l-7.9-10.6l21.5,6.8c1.2,0.6,2.4,1.2,3.6,1.2
			l0.6-0.6l-9.7-13c-1.2-1.7-3.6-4.7-4.3-5.9c-0.6-1.7,0.6-1.8,1.2-3l-0.6-0.6c-1.2,0.7-1.8,1.2-2.3,2.4c-1.2,0.6-2.4,1.2-3.6,1.8
			l0.6,0.6c1.8-0.6,2.4-1.2,4.2-0.1c1.2,1.1,2.4,3.5,3.6,4.7l6.7,8.8l-23.3-7.4c-0.6,0.6-1.7,1.2-2.4,1.2c-0.6,1.2-1.2,1.2-2.4,1.8
			l0.6,1.2C366.7,419,367.9,419,369.7,419.5"/>
		<path class="st13" d="M79,429.9c2.9-4.2,0.5-7.7-2.5-9.4c-1.2-0.6-2.4-1.8-3.6-2.3c-1.2-1.2-3-1.7-4.2-2.9l-0.6,0.6
			c1.2,0.6,2.4,1.1,1.8,2.9c-0.6,0.7-2.3,3-2.9,4.2l-5.8,9c-0.6,1.2-2.4,3.6-3.5,4.2c-0.6,1.2-1.8,0-3-0.6v1.2
			c1.2,0.6,2.4,1.7,3.6,2.3c1.8,1.2,3,1.8,4.2,2.9l0.6-0.6c-1.2-1.2-2.4-1.8-1.8-3c0-1.2,1.7-3.6,2.3-4.8l2.9-3.6
			c0,0,1.2,1.2,1.8,1.2C71.3,433.5,76.1,434.7,79,429.9 M75.4,428.2c-1.8,3-4.1,3.6-6.5,1.9c-0.6-0.6-1.2-0.6-1.2-1.2l4.7-7.2
			c1.2-1.8,1.2-1.8,2.4-0.6C77.1,422.8,77.7,425.2,75.4,428.2"/>
		<path class="st13" d="M400,420.8c0,1.8,0,2.4-1.1,3.6l0.6,1.2c0.6-1.2,1.8-1.8,2.4-2.4c1.2-0.6,2.3-1.2,2.9-1.8l-0.6-1.2
			c-0.6,0.6-1.7,1.8-2.9,0.6c-0.6-1.2-1.9-4.1-1.9-5.9l-0.6-0.6l6.5-4.8l3.6,2.3c0.6,0.6,1.8,1.2,2.4,1.7c0.6,1.2-0.5,2.4-1.1,3
			l0.6,0.6c1.1-1.2,2.3-1.8,3.5-3s2.4-1.8,3.5-2.4v-1.2c-1.2,0.6-2.4,1.2-3.6,0.6c-0.6,0-3-1.8-3.6-2.3l-17.4-11.6l-0.6,0.6l5,15.3
			C398.2,415.5,398.8,417.8,400,420.8 M404,408.3l-5.3,4.2l-3.7-10L404,408.3z"/>
		<path class="st13" d="M95.2,431.8v1.2c0.6,0.6,1.8,1.2,0.6,3c-0.6,1.2-5.3,5.4-6.4,6.6l-7.7,6l2.2-10.1c0.6-1.8,2.3-7.7,2.9-9
			c0.6-1.2,2.4-0.6,3,0l0.6-0.6c-1.8-0.5-3-1.7-4.2-2.3s-2.4-1.8-3.6-2.3l-0.6,0.6c1.8,1.8,1.2,3.5,0.7,5.9l-5.1,21.4l1.2,0.6
			l15.3-13.3c2.4-1.8,4.7-4.8,7.1-3.1v-0.6c-0.6-0.6-1.8-1.2-3-1.7C97.6,433.5,96.4,432.9,95.2,431.8"/>
		<path class="st13" d="M330.4,457.8l1.7-7.1h-1.2c-0.5,2.4-0.5,3.6-2.9,4.8c-1.2,0.6-2.9,0-4.7,0.1c-3.6-0.6-4.2-1.7-3.6-6.5
			l1.6-11.3c0.6-1.2,0.6-4.2,1.1-5.3c0.6-1.2,2.4-0.6,3-0.6l0.6-1.2c-1.8,0-3.6,0-5.4-0.6c-1.2,0-3-0.5-4.2-0.5l-0.6,0.5
			c1.2,0,2.4,0.6,3,1.8c0,1.2-0.6,4.1-0.6,5.3l-1.6,10.7c-0.6,1.2-1.2,4.2-1.1,4.8c-1.2,1.2-2.4,1.2-3.5,1.2v0.6
			c5.9,1.1,11.3,1.6,17.2,2.8C329.2,457.2,330.4,457.2,330.4,457.8"/>
		<path class="st13" d="M55.6,429.8c-2.9,2.9-4.7,2.4-7.7,0.6c-1.2-0.5-2.4-1.7-2.4-3.5c0-1.2,1.1-2.4,1.7-3.6l3.5-5.4
			c3,1.8,4.2,2.9,1.9,6.5l0.6,0.6c1.2-1.2,1.8-2.4,2.9-4.2c0.6-1.2,1.8-2.4,2.9-4.2h-0.6c-1.7,1.8-3.5,3.6-7.1,0.7l5.2-7.8
			c1.2-1.2,1.2-1.2,1.8-0.6l1.8,1.2c3,2.3,4.2,3.5,1.9,7.1l0.6,0.6l3.5-4.8l-12.6-8.8l-1.2,0.7c1.2,0.6,2.4,1.2,1.8,2.9
			c-0.6,0.6-2.3,3-2.9,4.2l-5.8,8.4c-1.2,1.2-2.9,3.6-3.5,4.2c-1.2,0.6-2.4,0-3-0.6l-0.6,0.6l14.4,10.5l3.5-5.3L55.6,429.8z"/>
		<path class="st13" d="M307.3,451.7c-0.6-1.2-0.6-3.6-1.3-4.7l-3.8-20.1l-1.2-0.5l-6.9,14.3c-1.2,2.4-2.3,4.8-3.5,7.2
			c-1.2,1.8-1.8,2.4-3.5,2.4l-0.6,0.6c1.2,0,2.4,0.6,3.6,0.6s2.3,0.6,3.5,0.5v-0.6c-0.6-0.6-2.4-0.6-2.4-2.3
			c0.6-1.2,1.7-4.2,2.3-5.4l0.6-1.2l8.3,1.1l0.6,4.1v3.6c0,1.2-1.8,0.6-2.4,0.6l-0.6,1.2c1.8,0,3.5,0,4.7,0.5c1.8,0,3.6,0.6,4.7,0.5
			v-0.6C308.4,452.9,307.8,453,307.3,451.7 M295.2,441.2l4.7-9.6l1.9,10.6L295.2,441.2z"/>
		<path class="st13" d="M290.4,431l0.6,0.6l1.1-6l-20.2-3.3l-1.1,6l1.2,0.6c0.5-4.7,1.7-4.7,5.3-4.2c1.2,0,3,0.6,2.4,1.1l-2.1,18.4
			c-0.5,3-1.2,3.6-4.7,3.6v0.6c1.8,0.6,3.6,0.6,5.4,0.5c1.8,0.6,3.6,1.1,5.3,1.1v-0.6c-3-1.1-3-1.7-3-4.7l2.7-18.4
			c0-1.2,1.8-0.6,3.6-0.6C289.8,426.2,291,427.4,290.4,431"/>
		<path class="st13" d="M341,434.4c0,0.6,0.6,3.6,0.7,4.7l0.8,11.3c0,1.2,0.6,3.5,0.1,4.8c0,1.8-1.8,1.8-2.4,1.8v0.6
			c1.8,0,3,0,4.7-0.6l4.7-0.1v-0.6c-1.2,0-2.3,0-3-1.1c-0.6-1.2-0.7-4.1-0.7-5.3l-1.3-10.7l-0.1-5.3c0.5-1.2,1.8-1.2,3-1.2v-1.2
			c-1.8,0-3.6,0.6-4.8,0.7l-4.7,0.1v1.2C339.2,433.3,340.4,432.7,341,434.4"/>
	</g>
</g>
</svg>
