<svg xmlns="http://www.w3.org/2000/svg" viewBox="0 0 1200 700">
<defs>
  <radialGradient id="bg" cx="50%" cy="50%" r="80%">
    <stop offset="0%" stop-color="#14264a"/><stop offset="100%" stop-color="#050c1a"/>
  </radialGradient>
  <radialGradient id="spot" cx="50%" cy="50%" r="50%">
    <stop offset="0%" stop-color="#e8c547" stop-opacity="0.17"/><stop offset="100%" stop-color="#e8c547" stop-opacity="0"/>
  </radialGradient>
  <linearGradient id="gv" x1="0%" y1="0%" x2="0%" y2="100%">
    <stop offset="0%" stop-color="#f7e07a"/><stop offset="100%" stop-color="#c49a1a"/>
  </linearGradient>
  <linearGradient id="nv" x1="0%" y1="0%" x2="0%" y2="100%">
    <stop offset="0%" stop-color="#2f65cf"/><stop offset="100%" stop-color="#0f2060"/>
  </linearGradient>
  <linearGradient id="nlid" x1="0%" y1="0%" x2="0%" y2="100%">
    <stop offset="0%" stop-color="#3a72e0"/><stop offset="100%" stop-color="#1a3c9a"/>
  </linearGradient>
  <linearGradient id="card" x1="0%" y1="0%" x2="100%" y2="100%">
    <stop offset="0%" stop-color="#1e3a94"/><stop offset="100%" stop-color="#0a1640"/>
  </linearGradient>
  <filter id="ds" x="-30%" y="-30%" width="160%" height="160%">
    <feDropShadow dx="0" dy="12" stdDeviation="24" flood-color="#000" flood-opacity="0.55"/>
  </filter>
  <filter id="glow" x="-20%" y="-20%" width="140%" height="140%">
    <feGaussianBlur stdDeviation="5" result="b"/>
    <feMerge><feMergeNode in="b"/><feMergeNode in="SourceGraphic"/></feMerge>
  </filter>
</defs>
<rect width="1200" height="700" fill="url(#bg)"/>
<ellipse cx="600" cy="335" rx="300" ry="230" fill="url(#spot)"/>
<g filter="url(#ds)">
<g transform="translate(408,340) rotate(-18)">
  <rect x="-70" y="-70" width="140" height="140" rx="20" fill="url(#nv)" stroke="rgba(74,122,224,0.9)" stroke-width="3"/>
  <rect x="-70" y="-70" width="140" height="46" rx="20" fill="rgba(255,255,255,0.07)"/>
  <circle cx="-29.4" cy="-29.4" r="10" fill="rgba(255,255,255,0.92)"/><circle cx="29.4" cy="-29.4" r="10" fill="rgba(255,255,255,0.92)"/><circle cx="-29.4" cy="29.4" r="10" fill="rgba(255,255,255,0.92)"/><circle cx="29.4" cy="29.4" r="10" fill="rgba(255,255,255,0.92)"/>
</g><g transform="translate(600,322) rotate(0)">
  <rect x="-90" y="-90" width="180" height="180" rx="25" fill="url(#nlid)" stroke="url(#gv)" stroke-width="4"/>
  <rect x="-90" y="-90" width="180" height="60" rx="25" fill="rgba(255,255,255,0.07)"/>
  <circle cx="-37.8" cy="-37.8" r="12" fill="rgba(255,255,255,0.92)"/><circle cx="37.8" cy="-37.8" r="12" fill="rgba(255,255,255,0.92)"/><circle cx="-37.8" cy="0.0" r="12" fill="rgba(255,255,255,0.92)"/><circle cx="37.8" cy="0.0" r="12" fill="rgba(255,255,255,0.92)"/><circle cx="-37.8" cy="37.8" r="12" fill="rgba(255,255,255,0.92)"/><circle cx="37.8" cy="37.8" r="12" fill="rgba(255,255,255,0.92)"/>
</g><g transform="translate(792,344) rotate(15)">
  <rect x="-70" y="-70" width="140" height="140" rx="20" fill="url(#nv)" stroke="rgba(74,122,224,0.9)" stroke-width="3"/>
  <rect x="-70" y="-70" width="140" height="46" rx="20" fill="rgba(255,255,255,0.07)"/>
  <circle cx="-29.4" cy="-29.4" r="10" fill="rgba(255,255,255,0.92)"/><circle cx="0.0" cy="0.0" r="10" fill="rgba(255,255,255,0.92)"/><circle cx="29.4" cy="29.4" r="10" fill="rgba(255,255,255,0.92)"/>
</g>
</g>
<text x="600" y="612" text-anchor="middle" font-family="'Arial Black',Arial,sans-serif" font-weight="900" font-size="50" fill="#ffffff" letter-spacing="-1">GIOCHI</text>
<text x="600" y="650" text-anchor="middle" font-family="Arial,sans-serif" font-size="18" fill="rgba(255,255,255,0.34)" letter-spacing="6">SLOT · LIVE DEALER · CRASH</text>
<text x="600" y="686" text-anchor="middle" font-family="Arial,sans-serif" font-size="12" fill="rgba(255,255,255,0.14)" letter-spacing="3">flower-home.it</text>
</svg>