<svg xmlns="http://www.w3.org/2000/svg" viewBox="0 0 1200 800" width="100%" height="100%">
    <defs>
        <radialGradient id="heroGrad" cx="50%" cy="50%" r="75%">
            <stop offset="0%" stop-color="#2c5e43" />
            <stop offset="100%" stop-color="#142c1f" />
        </radialGradient>
        <linearGradient id="heroGoldRim" x1="0%" y1="100%" x2="100%" y2="0%">
            <stop offset="0%" stop-color="#594300" />
            <stop offset="25%" stop-color="#d4af37" />
            <stop offset="50%" stop-color="#fff4c2" />
            <stop offset="75%" stop-color="#aa7c11" />
            <stop offset="100%" stop-color="#3b2b00" />
        </linearGradient>
        <radialGradient id="heroGoldInner" cx="40%" cy="30%" r="60%">
            <stop offset="0%" stop-color="#ffe66d" />
            <stop offset="50%" stop-color="#d4af37" />
            <stop offset="100%" stop-color="#8a6100" />
        </radialGradient>
        <filter id="hero-drop-shadow" x="-20%" y="-20%" width="140%" height="140%">
            <feDropShadow dx="2" dy="12" stdDeviation="12" flood-color="#000" flood-opacity="0.6" />
        </filter>
        <filter id="hero-soft-shadow" x="-20%" y="-20%" width="140%" height="140%">
            <feDropShadow dx="0" dy="5" stdDeviation="5" flood-color="#000" flood-opacity="0.5" />
        </filter>
        <filter id="hero-text-shadow" x="-10%" y="-10%" width="120%" height="120%">
            <feDropShadow dx="0" dy="8" stdDeviation="6" flood-color="#000" flood-opacity="0.4" />
        </filter>
        <g id="hero-base-card">
            <rect x="-60" y="-85" width="120" height="170" rx="8" fill="#f8f8f8" stroke="#dcdcdc" stroke-width="2" />
        </g>
        <g id="hero-chip-black">
            <path d="M-35,0 L-35,8 A35,16 0 0,0 35,8 L35,0 A35,16 0 0,1 -35,0" fill="#111" />
            <ellipse cx="0" cy="0" rx="35" ry="16" fill="#2a2a2a" />
            <ellipse cx="0" cy="0" rx="30" ry="13.7" fill="none" stroke="#f0f0f0" stroke-width="3.5" stroke-dasharray="8 12" />
            <ellipse cx="0" cy="0" rx="18" ry="8" fill="none" stroke="#555" stroke-width="1.5" />
            <ellipse cx="0" cy="0" rx="14" ry="6" fill="#111" />
        </g>
        <g id="hero-chip-green">
            <path d="M-35,0 L-35,8 A35,16 0 0,0 35,8 L35,0 A35,16 0 0,1 -35,0" fill="#0d4022" />
            <ellipse cx="0" cy="0" rx="35" ry="16" fill="#1e7b46" />
            <ellipse cx="0" cy="0" rx="30" ry="13.7" fill="none" stroke="#f0f0f0" stroke-width="3.5" stroke-dasharray="8 12" />
            <ellipse cx="0" cy="0" rx="18" ry="8" fill="none" stroke="#0d4022" stroke-width="1.5" />
            <ellipse cx="0" cy="0" rx="14" ry="6" fill="#0d4022" />
        </g>
        <g id="hero-chip-red">
            <path d="M-35,0 L-35,8 A35,16 0 0,0 35,8 L35,0 A35,16 0 0,1 -35,0" fill="#7a1010" />
            <ellipse cx="0" cy="0" rx="35" ry="16" fill="#c22727" />
            <ellipse cx="0" cy="0" rx="30" ry="13.7" fill="none" stroke="#f0f0f0" stroke-width="3.5" stroke-dasharray="8 12" />
            <ellipse cx="0" cy="0" rx="18" ry="8" fill="none" stroke="#7a1010" stroke-width="1.5" />
            <ellipse cx="0" cy="0" rx="14" ry="6" fill="#7a1010" />
        </g>
    </defs>
    <rect width="1200" height="800" fill="url(#heroGrad)" />
    <g transform="translate(1000, 180) scale(1.6)" filter="url(#hero-drop-shadow)">
        <circle cx="0" cy="0" r="190" fill="#2b1b0d" stroke="#1c1108" stroke-width="8" />
        <circle cx="0" cy="0" r="185" fill="none" stroke="url(#heroGoldRim)" stroke-width="18" />
        <circle cx="0" cy="0" r="176" fill="#1a1a1a" />
        <circle cx="0" cy="0" r="150" fill="none" stroke="#555" stroke-width="40" />
        <circle cx="0" cy="0" r="150" fill="none" stroke="#900" stroke-width="40" />
        <circle cx="0" cy="0" r="150" fill="none" stroke="#111" stroke-width="40" stroke-dasharray="25.47 25.47" />
        <circle cx="0" cy="0" r="130" fill="none" stroke="url(#heroGoldRim)" stroke-width="4" />
        <circle cx="0" cy="0" r="128" fill="#1a1a1a" />
        <circle cx="0" cy="0" r="110" fill="url(#heroGoldInner)" />
        <circle cx="0" cy="0" r="100" fill="#222" />
        <g transform="rotate(25)">
            <path d="M-12,-90 L12,-90 L12,-15 L90,-15 L90,15 L12,15 L12,90 L-12,90 L-12,15 L-90,15 L-90,-15 L-12,-15 Z" fill="url(#heroGoldRim)" />
            <circle cx="0" cy="0" r="22" fill="url(#heroGoldRim)" />
            <circle cx="0" cy="0" r="10" fill="#ffe66d" opacity="0.6" />
        </g>
    </g>
    <g transform="translate(280, 220) scale(1.3)" filter="url(#hero-drop-shadow)">
        <g transform="rotate(-22) translate(-80, 20)">
            <use href="#hero-base-card" />
            <text x="-45" y="-50" font-family="Arial, sans-serif" font-size="28" font-weight="bold" fill="#111">A</text>
            <text x="-45" y="-20" font-family="Arial, sans-serif" font-size="32" fill="#111">&#9824;</text>
            <text x="0" y="25" font-family="Arial, sans-serif" font-size="80" text-anchor="middle" fill="#111">&#9824;</text>
        </g>
        <g transform="rotate(-5) translate(0, 0)">
            <use href="#hero-base-card" />
            <text x="-45" y="-50" font-family="Arial, sans-serif" font-size="28" font-weight="bold" fill="#d32f2f">A</text>
            <text x="-45" y="-20" font-family="Arial, sans-serif" font-size="32" fill="#d32f2f">&#9829;</text>
            <text x="0" y="25" font-family="Arial, sans-serif" font-size="80" text-anchor="middle" fill="#d32f2f">&#9829;</text>
        </g>
        <g transform="rotate(12) translate(80, 15)">
            <use href="#hero-base-card" />
            <text x="-45" y="-50" font-family="Arial, sans-serif" font-size="28" font-weight="bold" fill="#111">A</text>
            <text x="-45" y="-20" font-family="Arial, sans-serif" font-size="32" fill="#111">&#9827;</text>
            <text x="0" y="25" font-family="Arial, sans-serif" font-size="80" text-anchor="middle" fill="#111">&#9827;</text>
        </g>
    </g>
    <g transform="translate(240, 520) scale(1.4)" filter="url(#hero-drop-shadow)">
        <g transform="translate(-10, -50)">
            <polygon points="0,-35 40,-15 0,5 -40,-15" fill="#f44336" stroke="#b71c1c" stroke-linejoin="round" stroke-width="2" />
            <polygon points="-40,-15 0,5 0,45 -40,25" fill="#d32f2f" stroke="#b71c1c" stroke-linejoin="round" stroke-width="2" />
            <polygon points="0,5 40,-15 40,25 0,45" fill="#b71c1c" stroke="#880e4f" stroke-linejoin="round" stroke-width="2" />
            <ellipse cx="-15" cy="-20" rx="3" ry="1.5" fill="#fff" />
            <ellipse cx="15" cy="-20" rx="3" ry="1.5" fill="#fff" />
            <ellipse cx="-15" cy="-10" rx="3" ry="1.5" fill="#fff" />
            <ellipse cx="15" cy="-10" rx="3" ry="1.5" fill="#fff" />
            <ellipse cx="-20" cy="5" rx="1.5" ry="3" fill="#fff" />
            <ellipse cx="-20" cy="25" rx="1.5" ry="3" fill="#fff" />
            <ellipse cx="20" cy="5" rx="1.5" ry="3" fill="#fff" />
            <ellipse cx="20" cy="15" rx="1.5" ry="3" fill="#fff" />
            <ellipse cx="20" cy="25" rx="1.5" ry="3" fill="#fff" />
        </g>
        <g transform="translate(30, 20)">
            <polygon points="0,-35 40,-15 0,5 -40,-15" fill="#f44336" stroke="#b71c1c" stroke-linejoin="round" stroke-width="2" />
            <polygon points="-40,-15 0,5 0,45 -40,25" fill="#d32f2f" stroke="#b71c1c" stroke-linejoin="round" stroke-width="2" />
            <polygon points="0,5 40,-15 40,25 0,45" fill="#b71c1c" stroke="#880e4f" stroke-linejoin="round" stroke-width="2" />
            <ellipse cx="-15" cy="-20" rx="3" ry="1.5" fill="#fff" />
            <ellipse cx="15" cy="-10" rx="3" ry="1.5" fill="#fff" />
            <ellipse cx="-20" cy="5" rx="1.5" ry="3" fill="#fff" />
            <ellipse cx="-20" cy="25" rx="1.5" ry="3" fill="#fff" />
            <ellipse cx="20" cy="15" rx="1.5" ry="3" fill="#fff" />
        </g>
    </g>
    <g transform="translate(250, 700) scale(1.6)" filter="url(#hero-drop-shadow)">
        <path d="M-45,0 L-45,6 A45,22 0 0,0 45,6 L45,0 A45,22 0 0,1 -45,0" fill="#8a6100" />
        <ellipse cx="0" cy="0" rx="45" ry="22" fill="url(#heroGoldRim)" />
        <ellipse cx="0" cy="0" rx="36" ry="17" fill="url(#heroGoldInner)" />
        <ellipse cx="0" cy="0" rx="33" ry="15" fill="none" stroke="#d4af37" stroke-width="1.5" />
        <text x="0" y="8" text-anchor="middle" font-family="Arial, sans-serif" font-size="28" font-weight="bold" fill="#ffd700" stroke="#aa7c11" stroke-width="0.5" transform="scale(1, 0.6)">€</text>
    </g>
    <g transform="translate(900, 720) scale(1.5)" filter="url(#hero-soft-shadow)">
        <use href="#hero-chip-green" x="-60" y="-30" />
        <use href="#hero-chip-green" x="-60" y="-36" />
        <use href="#hero-chip-green" x="-60" y="-42" />
        <use href="#hero-chip-green" x="-60" y="-48" />
        <use href="#hero-chip-green" x="-60" y="-54" />
        <use href="#hero-chip-black" x="40" y="-10" />
        <use href="#hero-chip-black" x="40" y="-16" />
        <use href="#hero-chip-black" x="40" y="-22" />
        <use href="#hero-chip-black" x="40" y="-28" />
        <use href="#hero-chip-black" x="40" y="-34" />
        <use href="#hero-chip-black" x="40" y="-40" />
        <use href="#hero-chip-red" x="-20" y="10" />
        <use href="#hero-chip-red" x="-20" y="4" />
        <use href="#hero-chip-red" x="-20" y="-2" />
        <use href="#hero-chip-red" x="-20" y="-8" />
        <use href="#hero-chip-red" x="-20" y="-14" />
        <use href="#hero-chip-red" x="-20" y="-20" />
    </g>
    <g filter="url(#hero-text-shadow)" transform="translate(600, 260)">
        <text x="0" y="0" font-family="system-ui, -apple-system, 'Segoe UI', Roboto, 'Arial Black', Impact, sans-serif" font-size="120" font-weight="900" fill="#FFFFFF" text-anchor="middle" letter-spacing="3">CASINO</text>
        <text x="0" y="130" font-family="system-ui, -apple-system, 'Segoe UI', Roboto, 'Arial Black', Impact, sans-serif" font-size="120" font-weight="900" fill="#FFFFFF" text-anchor="middle" letter-spacing="3">NON</text>
        <text x="0" y="260" font-family="system-ui, -apple-system, 'Segoe UI', Roboto, 'Arial Black', Impact, sans-serif" font-size="120" font-weight="900" fill="#FFC400" text-anchor="middle" letter-spacing="3">AAMS</text>
        <text x="0" y="340" font-family="system-ui, -apple-system, 'Segoe UI', Roboto, sans-serif" font-size="50" font-weight="700" fill="#d4af37" text-anchor="middle" letter-spacing="8">2026</text>
    </g>
</svg>
