<svg xmlns="http://www.w3.org/2000/svg" viewBox="0 0 500 500" width="100%" height="100%">
    <defs>
        <linearGradient id="bgGrad" x1="0%" y1="100%" x2="100%" y2="0%">
            <stop offset="0%" stop-color="#e63946" />
            <stop offset="100%" stop-color="#1d3557" />
        </linearGradient>
        <mask id="cards-mask">
            <rect width="100%" height="100%" fill="black" />
            <rect x="133" y="100" width="164" height="230" rx="18" fill="white" />
            <rect x="203" y="170" width="164" height="230" rx="18" fill="white" />
            <rect x="156" y="123" width="188" height="254" rx="30" fill="black" />
            <rect x="168" y="135" width="164" height="230" rx="18" fill="white" />
            <g fill="black">
                <path d="M 0 -10 C -15 -35 -40 -20 -40 5 C -40 35 0 55 0 55 C 0 55 40 35 40 5 C 40 -20 15 -35 0 -10 Z" transform="translate(250, 235) scale(1.0)" />
                <path d="M 0 -10 C -15 -35 -40 -20 -40 5 C -40 35 0 55 0 55 C 0 55 40 35 40 5 C 40 -20 15 -35 0 -10 Z" transform="translate(210, 172) scale(0.5)" />
                <path d="M 0 -10 C -15 -35 -40 -20 -40 5 C -40 35 0 55 0 55 C 0 55 40 35 40 5 C 40 -20 15 -35 0 -10 Z" transform="translate(290, 313) scale(0.5)" />
            </g>
        </mask>
    </defs>
    <circle cx="250" cy="250" r="250" fill="url(#bgGrad)" />
    <rect width="100%" height="100%" fill="white" mask="url(#cards-mask)" />
</svg>
